<mxfile host="app.diagrams.net" modified="2021-11-18T13:00:37.286Z" agent="5.0 (Macintosh)" etag="94QWbwAna3Ac5ppLLBkg" version="15.8.2" type="github">
  <diagram id="MNUqCONsUpe-TebcX_Py" name="Page-1">
    <mxGraphModel dx="2489" dy="931" grid="1" gridSize="10" guides="1" tooltips="1" connect="1" arrows="1" fold="1" page="1" pageScale="1" pageWidth="850" pageHeight="1100" math="0" shadow="0">
      <root>
        <mxCell id="0" />
        <mxCell id="1" parent="0" />
        <mxCell id="t5AtAjVldFoCVjbBlI82-2" value="" style="rounded=0;whiteSpace=wrap;html=1;fillColor=none;" parent="1" vertex="1">
          <mxGeometry x="325" y="70" width="255" height="760" as="geometry" />
        </mxCell>
        <mxCell id="MWtXkFUQYbGvttKdn1CM-36" style="edgeStyle=orthogonalEdgeStyle;rounded=0;orthogonalLoop=1;jettySize=auto;html=1;exitX=1;exitY=0.25;exitDx=0;exitDy=0;fontSize=11;" edge="1" parent="1" source="t5AtAjVldFoCVjbBlI82-1" target="MWtXkFUQYbGvttKdn1CM-11">
          <mxGeometry relative="1" as="geometry" />
        </mxCell>
        <mxCell id="MWtXkFUQYbGvttKdn1CM-37" style="edgeStyle=orthogonalEdgeStyle;rounded=0;orthogonalLoop=1;jettySize=auto;html=1;entryX=0.167;entryY=0.333;entryDx=0;entryDy=0;entryPerimeter=0;fontSize=11;" edge="1" parent="1" source="t5AtAjVldFoCVjbBlI82-1" target="MWtXkFUQYbGvttKdn1CM-12">
          <mxGeometry relative="1" as="geometry" />
        </mxCell>
        <mxCell id="MWtXkFUQYbGvttKdn1CM-40" style="edgeStyle=orthogonalEdgeStyle;rounded=0;orthogonalLoop=1;jettySize=auto;html=1;exitX=1;exitY=0.75;exitDx=0;exitDy=0;entryX=0;entryY=0.25;entryDx=0;entryDy=0;fontSize=11;" edge="1" parent="1" source="t5AtAjVldFoCVjbBlI82-1" target="MWtXkFUQYbGvttKdn1CM-13">
          <mxGeometry relative="1" as="geometry" />
        </mxCell>
        <mxCell id="MWtXkFUQYbGvttKdn1CM-41" style="edgeStyle=orthogonalEdgeStyle;rounded=0;orthogonalLoop=1;jettySize=auto;html=1;exitX=1;exitY=1;exitDx=0;exitDy=0;entryX=0;entryY=0.25;entryDx=0;entryDy=0;fontSize=11;" edge="1" parent="1" source="t5AtAjVldFoCVjbBlI82-1" target="MWtXkFUQYbGvttKdn1CM-14">
          <mxGeometry relative="1" as="geometry">
            <Array as="points">
              <mxPoint x="610" y="180" />
              <mxPoint x="610" y="258" />
            </Array>
          </mxGeometry>
        </mxCell>
        <mxCell id="t5AtAjVldFoCVjbBlI82-1" value="" style="shape=image;verticalLabelPosition=bottom;labelBackgroundColor=#ffffff;verticalAlign=top;aspect=fixed;imageAspect=0;image=https://cdn.iconscout.com/icon/free/png-256/prometheus-282488.png;" parent="1" vertex="1">
          <mxGeometry x="405" y="100.00000000000003" width="80" height="80" as="geometry" />
        </mxCell>
        <mxCell id="t5AtAjVldFoCVjbBlI82-5" value="Jaeger" style="shape=image;verticalLabelPosition=bottom;labelBackgroundColor=#ffffff;verticalAlign=top;aspect=fixed;imageAspect=0;image=data:image/png,iVBORw0KGgoAAAANSUhEUgAAAOEAAADhCAMAAAAJbSJIAAAA/FBMVEX///9nz+NkjBrfyqMjHyBbzOHeyJ9fzeJZhQBchwAAAADeyaD7/v7k9vpWgwDdxpty0uXw+vz69/GI2Ojl1LWR2+p41Oa55/HT8Pbr+PvgzKf17+Tv5NGf3+z8+vby9e3L7fSv5O/t4s2luoWSrGrK1rjp7uHz693p2sDO7vW05fAbAADW38im4e6uwZPT3cRyljSZsXUaFRYgEhG5yaJ5m0Hs8OTBz6uBoE9IewCLp1+AoE0mIiNYVlZGgIwoLjFVpLRylTbt7e2OjY16eHje3t5JRkfDw8Oko6MUDg86Nzh1c3S0s7OZmJnk5OQyTFNfu807Y2w/b3lLi5l6nNsCAAASxUlEQVR4nO1daXubxhYWkgEhkJCENmtBqyVsy7KUeIudNk3atE2btu69//+/3FlYZmBYJBjL1w/vhyR2hODl7GcOQ6GQI0eOHBRWrcGxL4EvWpLUP/Y1cIUllUq6eeyr4IghIFjSm8e+DH4wIcE3LcOWChlKx74MfhggEZbesKfpI4Jqy//71TEuJnOYrcIKi1Ca+f5rYB3lijKHPmiVMENfxDel4XGuKGtI2M2QrhRT7etvI8lpYhUlHY2JDLKvSm8jPq4chp4ZtkqAZV99K77Vchi6Gc1Q0gtmSS2pb8TRlPxKOtBLEhKs3/P8n2LgV1L0C/zL415ZVnAcqeNJgQQdym8jVjQdQjChmREifYMiHBRWamHlSrD0RoKhKzLVMlt6a+gRlF6jIx2Px8k/bKLY4KlkX1IdB4MYv7pYuJ4XyxBK8XF+v07CVLcIHfXjtbVsxoCeUrShKEq5tn3crGMK9r4+m0lhBAN11FEx3tVcekWPJ6A5v44QZr8khRHU/WXUcbFRgvwcmuXy7WYdclw/hB7Q0FeVcC+35TB+NsuasrtmKWwIP7U1KDRfUaDY1KL52aJUnm7u/IeGOJl+qy+9nq6i+RAjQFKUtzRJU2czhGb4atozy2KoBbJF+XTvqWvT72ZUSdIlCUTFQLvmaDhLoqE0yuXFtX30gGYoSdaqaTYHQ5DZHJUVgfn+BJEgld0SHr4iGaqqV0cMXkvje5HYBAMka7dnoJCHKukIsPVaWBF42ssE/ajtCtas2RzaBJHhVUcdWTa62rGZ2bhNRRAAf43Zd1znqSHKAoAsnB6VmA1zm5bg1lZL4FERwa4ouHgFUjT3ixIMlN3QaKEc9IogKI+OSA0jvQSVjftlAxgbSIKCIDaOxw0jNcGi4n2ZaboqKosyNsXJ0ahhpPOiiOCc+sIqIii2J9XelfwK1PQxNcFibUl9IxJgvYr+3YAUO8fg5WJ3cKAnZEh940gmHegU/vTytDzcHJSq+fBEfiPSUREEwcaoDtSzJx43XlxnQVBZkF/ZgZY3BUyBmxG1Qk8+KsO7DFSUihWFwgTKTNYKp/bf0+My3GZBsFgjGToxvo7cDRbp8RjO07tRWD7tCFfahSITqwUcJtrYKuvuf5t367Ob+W6xmN/v0Ww+GHfpjVCpFW+oQglnMVhHBblbMAQnWpjrm8VWKZcVjHLtBRiepbVCpbbwtRYnKFIYmBjwqMiTAlEWrj9DbsSx5Tn7ojLFfSolVWqf7S5N05sjRdYnX/XsvBSLVL6ATVj66PIi9LJeB0OlrMxt61u1dLdn37OVs4MJjtpuXurLnEDF/JoZAnqOdjZnqlTyFrTbmFlHoADDP+21a/cvQvAwhpCe0/JetZzOjNRaNUEWIwosyIXCmDT58nYZfWFHZAhc587tHlqwF+o212BlfyEzGRrA0ZSJ79hEXtXxGAJHv904N7856/sWmuAoaZ0tQsrRlJ+4CrAx7ciCMbF/Sh4tFCi8MydGD6y+HmhwW05dGACI/4Vb94v4WmAXt79Eu3ZL1uMGsisu7t0bv7JU1jIhHEO4YispqJ3Mmq2gO7591Kl7j8UJ/Hn5UCtHKSpMPMoP8zO3y2RC18JaYlJR555NECapWFtqj5w9zDmhRGIX/269eSjWUCJFEkPUireLm2tvdclcWSU2PbhEAVfPXCWVMURRRH/1CoUF+PrabdjSamagjePc/f14fb/ZPX4uYp7b28fd/P56SSbGgF0/hF0JxMMhVj2gpJBVvT2adifn5z2A8/PJBNxLUynWttcF3ujRfgDafyHeKszB0CrpoQv0ku5lbIZsXPSYjcObD5/583ODlQgb7RCwpJmVrFXY0lATcGtBcmEDJEB86gwv7mKBh1WB4xeQHwRuEHXATe5ha7kCvwTKJ+lqy7Jmw9VqMBisAIYzCy5MSxHcsPU54rsmQ9zYLgAfnwAeFovF7gz9r8a/LYwYyug+N1w9tRf9QAAgoUZSw/T6tvWZN8UPrgtZPsAxI1wA2nH0FsuvK/BfoYEMoeeG9ofdHixMQ0dEoujpfVs7C+tdWSHS6DEdYUH9uLT5wZPzpgjtEGqm2LF/QFFxED5fECa9kmXTu7vZ1pRimUwz6VRhh4KN1rUtX+CsqKit1y5oogwyYbdRFD6JxoAKpWcbn3n/gCanqFbi2AurZWWD/I82ld1MgHPvG5c2QIZIkqjdIHcDAwZRwpNaQ1t65tmjPRimUN1gN9OtbbHqNq5EItOB7QyegHUpSDDq6E+cYkEhJrFECQnPdOgtFCfbU7bUKRzze8K+p9oW6UyOyDN4ANmeUYCdBadTCy1xFS1E6Gb7s5UTNMf3j1QyS/UE0SqW213sdcRApipz7ZyiDp/Ygx1NYIqeOw0xRBWFkL419GbSlptbumGmUFNR87JnfoVunVVLcV5owy0+5HFA5l13YuKshMI7BV3ttwA3L90xlzePZf9QZpmqFW5qSu3hDP2zcSWHVFIi15CBM9OOfaaR7Nl+E2QzQxsgt2k2qUxuvN48KbXgTGaNKhbOPjjtt4D5kULk62zILkO9KycwjDFsVIdUkbUz8pProh34Jx12qf8iQpwEzi3KVXbGPF5e38yfir5GNUWQ7kdg8Z2GqqcrRL6W6GsViZ0Jurjy7eNit7kB2Gw2O5A0b5VaLZwbiyBCzwhXT48iN3e6vqZrRFls43bNeKMUFQpRzEIJNi6ESPV0z9vlw2/5UIODWYYnP5vf8vbDAUtQAYK9CO/iA5/cDU7fw6Vapysttj2DX8+3jNn8aIKUkwG5dT0xPz6+xp79LY+doqJT9X1gU4zsutlQ0BMmQKXpntJ0D3oCFzVd22qoPBZgdioLE9aH5kpcg1jZLMfLDShq6eXbaSLzI2BkTdBbFaldw9xtFOLMzLOn6PYpTtHufE2X7r4E4YRGtiAeMFBAroLK0Bt2++kuQltr7Hbn/gQFOesKw1y4jsQuV5efP4R2n6+90ojGE/PjBxDkEfSX0Fuiy67dFNDIuhKxBgvL2yBJ9ro7skFZFIVOpw573Mko1llflRZ3Z/OHYrlW/rBeFqFd+vy9n+T1/DN6NG+L/gI6sH1kKSmcIxU70yo2LK16kSSp4TlwCpLN+81i8QSq8NqHXcwyyfj6DK6njc/W67HJNtu26CYODk5HCdT2RQZOzfHdchl4dGkvaIYsGsHo3WjHcjz2wCkDWqM6GfnCWBXYHzt2B0uYFzFE4gLOq6eNRiN5UKqKeKGsQx5yIQpyNeyA4xkiRE/EK3vwVkJ0ELpR53S9h/N4yOkUZEZiGEFn2SBCTXvZcqLRYZ9TbIeeVRO9Txmj6VUb5dli1FWGLOm73zPlQMxByMwLVB1hys76qZVH2S7i4YRFBGJskWf3uxsRsICIJgzzNFifjbtG5kHemTj2TaPPDEn6TZI5YhFhhBin0f2ouMMPh5agkQKyFG+1umcwj4ivgNpRZ+LVyigEVvNDSYqCMbqajtpy+BRQDKKdDb+2acjoGeYFw4iXPstyRGcwwanYM2B7fMFhGIVdNDDAi/MqQK/bjm2aoRmAOEyj1JRfzGdHQ1AgUM96xjU+E9WwkQbBL+YzL1yuB853Gpk/J2qXRXpTbjGf6UpF5tl6URabKJxFqkHm7SgbrIwmLP1q1FM5mhiGvFwNi2G4xnVCr9H3wS9fWIdHMuS1BhVkGBnZQvwSzVD7+WOlcvJLkGR6Z3UAAgyjZwcaIRcpE77+y8fKCcC3ylf/0dEMObkaP8O4fkJIiUCq2K/vThDevfMdG52Z8nI1fl8a6xTZiTrRSvqtcmKj8jt96Hm0p5EzJ4dBnzU+AWZnl4Tof/nmMHz3A31o2Ni3DV5ZjY9h/AEhLQH3/3945zL8gz4ykl9MjyAFqHQ4SVdvwpSEd3l/ejL8lTowroqJaRIcDMquktzGkILS9RO/u3b47efwM7HAqYCiaotExs5WU/fmaK6WVqiIGNOLErg1Tak2TaJ+UEi95V7fbxXMsfKdOiy6OkQ3iU+vhsynk80nhbSuvBLx6x8VgI+/UUfFOFLEkE+vhlSeZGlFWFgjsqGv37/T/BI09rn1akjHkcybhfrECD+VqBvEa32GcBx+Gf79/a/vf+9xtfjpKQaSSFDg1hZuEwzpbsuflcq3SuVPv/1HJF8iu12TZAkRnZ8PQ9JxUMnvHzh0f/NlJtHdOSGoqT0h3snYN4hP3kYqHRmRfnYid4UO3NGdXWf4z0XM7CV9LJ+8jayfiJuouanJSYXW07jrlOV2t9rQNLiK2o6bvaSP5NT4Zp/iK8GQKmXjcxPUIheF5KMY7mGcnCnhaghv9hvBkIptCUL3weDkTElX46UVf4fJ0Pv0Tz/+8+nju/ef/vnxOSOGnJwppXZe3vaHm0F/ZN2P538vL9/jj7x7f/lvNgx59duoc7juzFVTSkmdFOjfy/cnBN5/yoQhr9Z+mzqL++vfUY3wrvIX+Vm8ePh8QvEDuPwxE4acnClVLBD1xdcfvlW+/UAZ4QXS6Gc/P3Aj/vFW9FMw5ORM6Y4imXmZX+jpLju//CfI8P1/hPZo1G4bdWfrwIPAa2CBLk7F0BvpbH94GSB4cvnsqnfj/GqfKW8anBj6li5lg11sOwn0c5Dh5Y905VVNmmz7wKuj6E9TZJZPq3orT5+CBAMblDXYAw1xDHmtkwbPZPhORS2Q/kQL8fLkJ5wqzOBT7u7mC1cHiJHbSAYjExPrF1VHLKddX4Hw/MkJhyDaf/qvva3GWFfhM4q6at2FfWsswyTzAIeAWbbLolA32u12R6D8Bvh1B4jx30/vAT7ijA0V95r7eK2q95Eg49trAfBaCY6oiHxyEIUp0Edsks/PNmU8Ntsin67VoRhjlmKY4MUwdObEx6+DzbPREWVnSxbZnmG06MeHVS3RvFXgDLzm25L1wogJjepkOhqNrrrnztB6y/d8tAS3uA5dMg5nyG2+LcnJ7U6cybjNy5L/8Wj0Pq59GYLKecKLYbzfs0PVXct2Ix60VSu41QSS4Z6uRhyxt7PJBLG9CUzwrq8DYemtlalBSWpa825oMbfjgXYYPpzLgmzw3SYj5najgKdZurvrQKkPgLYfYD6+r0MljRrODRLERY05GAyaXDYAi+qCCjjpD3iTUKj4bUf7KSmkNyuhnQB0vTXMnGW0RiEdDSHo35wAwEKWGjmL6AfM15qEvkvZv5YteokWfOCOsXMN2nEJb0wwm1kAs9lw2cTONuFihXMPq/6NY6RSxq9MYq/P24DJVGDjGlXqz8I3/93zMT0Y6v0nyPj1gVEJCPICvl1dVGLfsiB6ezTzMcMG4xVYGVOMytwgwxatn5YrPg3D/em0N2XuYxLNsBpI/ErE22czQVTmBl3pkDi/G/UhrwZmCKNZve6942E/oLopaOjZvsgz6g43yGAhlex3bmFaDY/s/sw8ig3GS7AyftFlREhEdxgEfAnWuPrMzrZtxcyGIdITBsXM9HQVHRJxzm8OrVbL3ppN8xJwzSV6WP8JA7mzwGZqalYv+GqpheiQ6H+20CaoOdzQn0lW3mIoDv1SzMjZgOx5QG9oGgD1fKjmCM4WHzBISDNhIR16iqtCMOxmY4krHb8EPHqIt24/4qVN6tMCJT4b6UQo4H5P4KWCWbyS1USbjJuxVaIs1g3DgA1ttOWhHSEmztfEPSiaANCh+t/OmoWvQYoBi/KYOWUSrp/R7EZUY69aKYxh277fJMP0r4O035wNtSF2QtJF3aFowAaVYTB2mzsEMPD6LDEDQ7STJZgERqbfNGT0dGkv4imTQwDHsnyb/mUQL+xbFu9rfBcjd4xkO0Htg07A16Rn6N6yBL6GP4I1RnqGlqP2e/oaTgx7xBV5upUKntbv52v4AHYz6HiR+s2zRLIbm9e8BMOR39VIactgIhFE+nBcgmh6kK4wpJQEKaWHvmavDhkH+Bs26cMh2ZyAvma/RjUHhr6mm566cUp5Zuhr2vFXwRPQ1RCWk8ErvANWnWwPAn5ou3lkyV4dSAc6gUDR9YDF6SxBbiqexUvYfSkS1PosioQUgAOKuJmRTdfbxxCGV+24aoqe1rR0VdKz6bMFSupC6mZEWoZo6mxlDbPqsvkIwnozdTciHbJ+hs2/yTwMGPtPGGSJrIfbLF9vCxXCRxMiGmCZZMvQ/y4ElCUJ9o5sL2KQ7quS6h1jdNHtVbNez/dpqYqyJK1R7U26V6N2py54r2qS05N2J43wVwqQ1dVF97x3qvEaFoLNUlKELA+mnVYB4Um3e3E1GrUNo9PpoFUmvAdRPOBtgVvdGUZ7BPl0J71q9XSPXf5Sgli2k/r7uWjYMm2cVtk4BYC7FWr8pJMUFn7znSqlLqdfLZoWjBmt9Flujhw5cuTIkSNHjhw5cuTIkSNHjhw5cuTIkSNHjhw5cuTIkSNHjhyvGP8DxfyDNLchjwcAAAAASUVORK5CYII=;" parent="1" vertex="1">
          <mxGeometry x="415" y="370" width="90" height="90" as="geometry" />
        </mxCell>
        <mxCell id="t5AtAjVldFoCVjbBlI82-6" value="Loki" style="shape=image;verticalLabelPosition=bottom;labelBackgroundColor=#ffffff;verticalAlign=top;aspect=fixed;imageAspect=0;image=https://img.linuxfr.org/img/68747470733a2f2f67726166616e612e636f6d2f7374617469632f696d672f646f63732f6c6f676f732f69636f6e5f6c6f6b692e737667/icon_loki.svg;" parent="1" vertex="1">
          <mxGeometry x="425" y="500" width="64" height="77.09" as="geometry" />
        </mxCell>
        <mxCell id="MWtXkFUQYbGvttKdn1CM-34" value="Alert Forwarding" style="edgeStyle=orthogonalEdgeStyle;rounded=0;orthogonalLoop=1;jettySize=auto;html=1;" edge="1" parent="1" source="t5AtAjVldFoCVjbBlI82-7" target="t5AtAjVldFoCVjbBlI82-1">
          <mxGeometry relative="1" as="geometry" />
        </mxCell>
        <mxCell id="t5AtAjVldFoCVjbBlI82-7" value="Prometheus Server" style="shape=image;verticalLabelPosition=bottom;labelBackgroundColor=#ffffff;verticalAlign=top;aspect=fixed;imageAspect=0;image=https://cdn.iconscout.com/icon/free/png-256/prometheus-282488.png;" parent="1" vertex="1">
          <mxGeometry x="405" y="230.23" width="80" height="80" as="geometry" />
        </mxCell>
        <mxCell id="t5AtAjVldFoCVjbBlI82-9" value="" style="whiteSpace=wrap;html=1;aspect=fixed;fillColor=#dae8fc;strokeColor=#6c8ebf;" parent="1" vertex="1">
          <mxGeometry x="402" y="690" width="110" height="110" as="geometry" />
        </mxCell>
        <mxCell id="t5AtAjVldFoCVjbBlI82-10" value="Couchbase Observability Stack (CMOS)" style="text;html=1;strokeColor=none;fillColor=none;align=center;verticalAlign=middle;whiteSpace=wrap;rounded=0;fontSize=15;" parent="1" vertex="1">
          <mxGeometry x="320" y="40" width="280" height="20" as="geometry" />
        </mxCell>
        <mxCell id="R16O8NXebToeCa1PSR8T-3" value="" style="shape=image;verticalLabelPosition=bottom;labelBackgroundColor=#ffffff;verticalAlign=top;aspect=fixed;imageAspect=0;image=https://raw.githubusercontent.com/grafana/grafana/main/docs/logo-horizontal.png;" parent="1" vertex="1">
          <mxGeometry x="351.25" y="620" width="211.5" height="50" as="geometry" />
        </mxCell>
        <mxCell id="R16O8NXebToeCa1PSR8T-4" style="edgeStyle=orthogonalEdgeStyle;rounded=0;orthogonalLoop=1;jettySize=auto;html=1;exitX=0.5;exitY=1;exitDx=0;exitDy=0;" parent="1" source="t5AtAjVldFoCVjbBlI82-2" target="t5AtAjVldFoCVjbBlI82-2" edge="1">
          <mxGeometry relative="1" as="geometry" />
        </mxCell>
        <mxCell id="BMCwSKgOCaqWYoWooj3r-1" value="" style="shape=image;verticalLabelPosition=bottom;labelBackgroundColor=#ffffff;verticalAlign=top;aspect=fixed;imageAspect=0;image=data:image/png,iVBORw0KGgoAAAANSUhEUgAAAgAAAAIACAYAAAD0eNT6AAAAAXNSR0IArs4c6QAAAGhlWElmTU0AKgAAAAgABAEGAAMAAAABAAIAAAESAAMAAAABAAEAAAEoAAMAAAABAAIAAIdpAAQAAAABAAAAPgAAAAAAA6ABAAMAAAABAAEAAKACAAQAAAABAAACAKADAAQAAAABAAACAAAAAACJBzC+AAACC2lUWHRYTUw6Y29tLmFkb2JlLnhtcAAAAAAAPHg6eG1wbWV0YSB4bWxuczp4PSJhZG9iZTpuczptZXRhLyIgeDp4bXB0az0iWE1QIENvcmUgNi4wLjAiPgogICA8cmRmOlJERiB4bWxuczpyZGY9Imh0dHA6Ly93d3cudzMub3JnLzE5OTkvMDIvMjItcmRmLXN5bnRheC1ucyMiPgogICAgICA8cmRmOkRlc2NyaXB0aW9uIHJkZjphYm91dD0iIgogICAgICAgICAgICB4bWxuczp0aWZmPSJodHRwOi8vbnMuYWRvYmUuY29tL3RpZmYvMS4wLyI+CiAgICAgICAgIDx0aWZmOlJlc29sdXRpb25Vbml0PjI8L3RpZmY6UmVzb2x1dGlvblVuaXQ+CiAgICAgICAgIDx0aWZmOk9yaWVudGF0aW9uPjE8L3RpZmY6T3JpZW50YXRpb24+CiAgICAgICAgIDx0aWZmOkNvbXByZXNzaW9uPjE8L3RpZmY6Q29tcHJlc3Npb24+CiAgICAgICAgIDx0aWZmOlBob3RvbWV0cmljSW50ZXJwcmV0YXRpb24+MjwvdGlmZjpQaG90b21ldHJpY0ludGVycHJldGF0aW9uPgogICAgICA8L3JkZjpEZXNjcmlwdGlvbj4KICAgPC9yZGY6UkRGPgo8L3g6eG1wbWV0YT4KlqhK0AAAQABJREFUeAHs3QecHVd5N/7znDP3rrRqWyVbWPY2rWQvNvCKF0wXIaYE08EBkxASQjHFGAjkzUtC/b8kBJtiY1og1NCMEwc7oYNMb4JQhLSrbbZk2ZK2qK529845z/+ZlSWttO2WmXun/O4Hs7szZ075nqt7nntm5gwpvCAAgVgL8Nat3sjQ/laP/HWOVKtSupG0a1SsG5zjBqW4gRStYa1WEdvlVul6Q7RcKVevrK53yi5jYzxjrVFGG7ZkHDujPG1mGu47q0nLVrbKOkllrLaqQEpNKeMmpLwJy3zCKDfBZE6QU0dZ8WGl6JA2NC7lH2JHh6S8cc3qoM/e/pb2dQdp2zY/1rCoHAQyLiD/xvGCAARqJXBk8+ZmO2k3MPEGRXqDc2qD0rxBK1rPTq2TEXmd0qZJRupE/Vu1EhWQtaOKzH6t3H7WdK9ytEdrtUex20NMe8wys2f1rl2jtbJHuRDIukCiPlSy3llof/IEWL4+H2q/eIMlu1Er7mLSnfItvcu31GWM6pBxvT55rQqzxu44+2pQe2pAZhf6Sbl+x9Rv2PQ3DO28Wz6ghBAvCEAgCgEEAFGoIs/MCQQD/cHOzg5y3iVE3CMAl8jQ1UOkNsvvMh2PV+kCPCGnG3Y5TX/QSu2QmYMdctLiD2v6+4fkg8uVnh+OgAAEZgsgAJitgd8hUIQAd3XVjbD3QO3cQ5jUQxzzQwzxZRIDrCjicCSpWEBmDZz+jdbu18zm187YX7fU1f2eduyYrjhrZACBDAkgAMhQZ6OppQvIN3sa6+q6RDnzcEV8uWP1MLb2EmNMrvTccERUAtbagvSJzBKon0s//VSuo/hZU3//TvmAwymEqNCRb+IFEAAkvgvRgDAFDvT0rDTH7aMU2UfLLPMjZOD/38qo1WGWgbyqIyAXIh6Wiyd/oZh/InHAD2193Y/X7thxrDqloxQIxF8AAUD8+wg1jFBgvK2tgcl7DGv9OMX2sXIL3f8ycul6hEUi6xoJWN/5xtO/kvsT7iRy31fK/qBpcFBuZ8QLAtkUQACQzX7PbKuD8/ejbB6lLF+hSV3hyzl8Ge3lGjO8siYgMwRy+YD7FRn9Lav1N1vqzI9xHUHW3gXZbi8CgGz3fyZaP3LRxovJ0FPkXvsnEqvH4Na7THR7GY10x2Udhu9rrb8lazB8rWW4b1cZmeAQCCRGAAFAYroKFS1WgHt68mMTU1tJ6SvlCrCnyhI6cr89XhAoTYCs6mfD/8WK7mhuXHUnbd9eKC0HpIZAvAUQAMS7f1C7IgWCc/mW8k+Tb/jPlHP5VyhjVhV5KJJBYGkBq44oQ9+S99dtigq349qBpcmQIv4CCADi30eo4QICR7u6WqetfiZrfo7z3R/h1rwFoLA5VAHf2mmPzLeVpltzefpPLGccKi8yq6IAAoAqYqOoygWCtfP9afs8OY9/la/4sbhiv3JT5FC+wMydBYbvJG2+rAt1tzTc/Tt5OBJeEEiGAAKAZPRTpmt537rLVuRXnHgGM10tD6t7Ir7pZ/rtENvGBzMDxuhvaKLPT5449tX1+/bJkxTxgkB8BRAAxLdvMl2zYG39sbbNV8hjZ18kT6p9BpbZzfTbIXmNt/aYPIL5NmL+TNPQ7u/IBy2eXZC8Xkx9jREApL6Lk9XAA52dXZ4yfylPiHuRrMB3QbJqj9pCYK6Ab/luT6tPmxx9qqGvb3BuCmyBQG0EEADUxh2lzhLYt359fX75yufJFdYvkc1ynz5eEEifgCw8xHJ6QFYg5H89MTVxy4a9e0+kr5VoUZIEEAAkqbdSVteRtu7NRHSNJX6RrMbXkLLmoTkQWFBAgoFx4/jTjvRHWod6exdMiB0QiFAAAUCEuMh6rgBv2ZIbGzv2LFLuGibaOjcFtkAgYwLOfVceP/GRpqaVt2GxoYz1fY2biwCgxh2QleLv6+xcm2PzCmnvNfLfeVlpN9oJgeIF7L2KvA/nyX5kVX//weKPQ0oIlCeAAKA8NxxVpMB4e/eDHKnr2KoXyDP26oo8DMkgkGWBSblO4POkzPubBnf9LssQaHu0AggAovXNZO5yCx+Nt3ddKT9ej2n+TL4F0OiwBOT0AGl9Q9Ng33+HlSXygcApAQQApyTws2KB4Pz+6KGjV8u3/TdqrXoqzhAZQAACMwLsu99pY/658aLzv0jbtvlggUAYAggAwlDMeB7BSn25FVMvtT6/3nhqQ8Y50HwIRCYgqwndRcQ3TJ84/gmsNBgZc2YyRgCQma4Ov6FjHR1rmHLX+myv85RuCr8E5AgBCMwn4KwdkecPvI/zdFNrb+/R+dJgGwSWEkAAsJQQ9s8RCB6963T+tXIv83W4f38ODzZAoGoCvnJjhuh9MitwY3N//5GqFYyCUiGAACAV3VidRtw/8L9OBv7XysC/pjqlohQIQGApgZmFhZR6Pyn/A02Dg4eXSo/9EAgEEADgfbCkQHCO36s/cZ0jeiMG/iW5kAACNRMIAgFP0buPTx+/EUsN16wbElMwAoDEdFX1K8o9PfnRicLLZHrx7yVWXFf9GqBECECgPAF7LynvnY2NKz+O1QXLE8zCUQgAstDLJbYxeBTvaGf3nym2b5fFSNpKPBzJIQCBmAiwUwNa01sbB3tlYSEl/7TxgsAZAQQAZyzwmwiMdHT/sXxKXK+VehBAIACBdAgwq1/Lowjf0DrQ+710tAitCEMAAUAYiinIY7Sr6xLl6/corf4kBc1BEyAAgXkEWPHtzPqNeALhPDgZ3IQAIIOdPrvJJx/S473DKvfXRh5JNnsffocABNInYH3na09/LO+pt67u6xtJXwvRomIFEAAUK5WydLx1qzd2977XyFXDb8WV/SnrXDQHAkUIBHcMaFZvaR7q+7AMBPInXlkTQACQtR6X9o50bvojtnwj1uvPYOejyRA4R8Ap+1uP9Wsah3Z//5xd+DPlAggAUt7Bs5snS/deyMrcILf0PXf2dvwOAQhAQAS+yJ76m5a+vnugkQ0BBAAZ6Odgun98zz2vkyuB3yaDf30GmowmQgAC5QhYe0wZ8xZ5/PCNOC1QDmCyjkEAkKz+Krm2o21dlzvNH9XKXFbywTgAAhDIpAA5/pXV+uWtg72/zCRARhqNACClHR08qc85849O08vlIj+5rR8vCEAAAsULyFWBzmN1s83Tm/HEweLdkpQSAUCSeqvIuo50dj+L2N6slDm/yEOQDAIQgMD8Ak7dQ5pf0TS4+475E2BrUgUQACS15+ap99GurtZJ1h+UW3uummc3NkEAAhAoW4AdfT6/jK5dvWvXaNmZ4MBYCSAAiFV3lF+Zsc7u51vf3qSNaSk/FxwJAQhAYDEB3i97X9U8uPvWxVJhXzIEEAAko58WrOX+9vZ1Huc+LGf5n7VgIuyAAAQgEKoA3ZrX9ppV/f0HQ80WmVVVAAFAVbnDLSw418++/Ri+9YfritwgAIEiBKw6QNr9ddNQ/+1FpEaSGAogAIhhpyxVJXlwz2pl9Y2K1F8slRb7IQABCEQs8Am7PHfd2h07jkVcDrIPWQABQMigUWc33tb1OF/rT8t9fRdFXRbyhwAEIFCUAKtBki8ksoDQD4tKj0SxEEAAEItuWLoSvGVLbnT86DudUm/Eff1LeyEFBCBQXYGZdQOI/rFxw/lvo23b/OqWjtLKEUAAUI5alY851N3dYX31BSn2YVUuGsVBAAIQKEmAnfqxIXN149DOu0o6EImrLoAV4qpOXlqBYx0br7ZT6tdyFAb/0uiQGgIQqIEAafXIAtn/GW3fhIeO1cC/lCIxA1CKVhXT3rfushW5FZMflCJfXMViURQEIACB0AQcuY9PTk1eu2Hv3hOhZYqMQhNAABAaZXgZjbR1b5aOuVXu7b8kvFyREwQgAIHqCzhlf8sq/9y1gzt3V790lLiYAE4BLKZTg30y5f8CWcf/Fxj8a4CPIiEAgdAFgieRGmt/iVMCodNWnCFmAComDCcD7unJj54ovE865JXh5IhcIAABCMRNgD/Q1Lj6jbR9eyFuNctifRAAxKDXRzs7Nyg2X5Gq4EK/GPQHqgABCEQnYJl/Qr5+buue3n3RlYKcixFAAFCMUoRpxts3PtY5ukUZtTbCYpA1BCAAgTgJ3KdIP6d5YNeP41SprNUF1wDUsMdH2rtfVXDu2xj8a9gJKBoCEKiFwHm+X/jeaHv3S2tROMo8KYAZgBq8E4Lz/WMnCh+Sol9Sg+JRJAQgAIEYCdBHmxpXvgbXBVS/SxAAVNk8eHwvKe8/DNEjqlw0ioMABCAQSwFn7Q+X5ejZeLxwdbsHAUAVvcc6Nl9asPYOz9CFVSwWRUEAAhCIvYBTbkhrdWVzf/8fYl/ZlFQQ1wBUqSPl/v6nsi38CIN/lcBRDAQgkCgBrXS7dfrHo+1dT0xUxRNcWQQAVei80Y7u1/mKvqqMWVWF4lAEBCAAgUQKyJNO11ii/x7r6MZ6KFXoQZwCiBCZlTKjbRtvIk3XRFgMsoYABCCQPgGmG5uGel8ng5Q8BR2vKAQQAEShKnnuueCC5Svqln+RmZ4eURHIFgIQgEDKBejWI27qz9qHhydT3tCaNA8BQATsR7q7WwpW3a5YXR5B9sgSAhCAQGYEgjsEclz/9Ia7fzeemUZXqaEIAEKGPtTd3WEn+evKo40hZ43sIAABCGRTgNRO7cxTGod23pVNgGhajQAgRNfxrq6HyLK+X1OK1oWYLbKCAAQgAAFl7yX2nizXBfwWGOEI4C6AcBzVzJr+Bb0Ng39IoMgGAhCAwFkC5nyf+M7Rzs2PPGsz/ihbAAFA2XRnDgzu8XdEX5c1/Vef2YrfIAABCEAgTAG5TbBBsf3WaNvmJ4WZb1bzQgBQYc/L4H+17/Ntks3yCrPC4RCAAAQgsKQA1ftc+Opo+6arlkyKBIsKIABYlGfxnWMdm66RBX4+ZzztLZ4SeyEAAQhAICwBz5i8Jf4CniZYmSgCgDL9gtX9WPGHZEoKF1KWaYjDIAABCJQrIJ+92pL6qDxW/dXl5pH14xAAlPEOkG/+fyuHvbeMQ3EIBCAAAQiEJBB8ASNSN8kXsteHlGWmskEAUGJ3j3Ru/Hv55v9PJR6G5BCAAAQgEJ3ADSMd3X8XXfbpzBkBQAn9Otq+8R3E9M4SDkFSCEAAAhCogoCci32XzAS8tQpFpaYInL8usivljfV2SfqWIpMjGQQgAAEI1Ebgrc2Dfe+oTdHJKhUBQBH9FUz745t/EVBIAgEIQCAGAjKw/V3TYB9O1S7RFwgAlgAKLvjDOf8lkLAbAhCAQNwEWP1N81DfDXGrVpzqgwBgkd4IbvWT3bjafxEj7IIABCAQVwEmvrZlYPdNca1freuFAGCBHhjr6H4lK3XzAruxGQIQgAAEkiDA6mUyE/AvSahqteuIAGAecZn2f6Gv+LNY5GceHGyCAAQgkCABq5QzTC9oHur9coKqXZWqIgA4h1nW9r9S1vb/Dyzvew4M/oQABCCQUAFrbcF43tObB3q/ntAmRFJtBACzWMfbuh7ntA7eIMtmbcavEIAABCCQeAGeINJPbBro/VHimxJSAxAA3A95sHPzFu277+KRviG9s5ANBCAAgZgJyOmAwzlWj2sc6vtNzKpWk+ogABD2Q11dnbagfyyD/9qa9AIKhQAEIACBKgnYezXnH9E4tPOuKhUY22IyvxTw0a6uVleQaX8M/rF9k6JiEIAABMITMOc7Knz98AU9TeHlmcycMh0A7Fu/vn7a6TvYqK5kdh9qDQEIQAACpQvozQWvcPtQW1umr/fKbAAg9/ib/LKVX5I3zsNKf/PgCAhAAAIQSLIAafXI1Sr/eRkLMjsOZrbho20bPygXQFyZ5Dcw6g4BCEAAAhUIaPWs8fbu91eQQ6IPzWQAECzxS5pekeieQ+UhAAEIQKBiASb1mpH27ldVnFECM8jcXQAzC/0o+k9Z5S+TwU8C36OoMgQgAIFIBaxia0hfmbWFgjIVAMhUz4Ocsz9UxqyM9N2EzCEAAQhAIFkCVh1ROffI5v7+HcmqePm1zUwAcKCt5zzlCj83ntpQPheOhAAEIACBtAqwssM+qYefNzBwIK1tnN2uTEyDc1dXnTEFWd8fg//szsfvEIAABCBwRoCUaTOO/p23bMmd2Zre3zIRAIw5+pBidXl6uxEtgwAEIACBMAQ06UeNjR+7KYy84p5H6gMAubrz1UrRX8W9I1A/CEAAAhCIiwC/fKyz+2VxqU1U9Uj1NQDB0/0KTn0bj/aN6u2DfCEAAQikU8C3djrneX+U5qcHpjYAGOvouNBZ75dkVGs6355oFQQgAAEIRCxwH3vqoS19ffdEXE5Nsk/lKQDu6cmz1bdi8K/JewqFQgACEEiLwHlqWn05rRcFpjIAGD0+/X5l9EPT8g5EOyAAAQhAoDYCwTMDxkaP/HNtSo+21NSdAhjr2PRCVvy5aNmQOwQgAAEIZEqA6armod5b0tTmVAUAo11dlyinfi6r/K5IUyehLRCAAAQgUGMBa486k3to6+CuvhrXJLTiU3MK4L51l62Qwf9WDP6hvTeQEQQgAAEInBIwZhVbe+u+9evrT21K+s/UBAC5+smbZfDfnPQOQf0hAAEIQCCeAsbQA3PL6z8Qz9qVXqtUnALAef/SOx5HQAACEIBAmQJMfyrXA3y5zKNjc1jiA4ADnZ1dxle/kif8rYqNKioCAQhAAAKpFbBKHc45/eDG4V3DSW5kok8BBPdmGp++gME/yW9B1B0CEIBAsgSMUmuccV/grVu9ZNX87NomOgAYO3TsXbjf/+wOxV8QgAAEIFAFAXnA3OjwvndWoaTIikjsKYCDnZsez8zfkUgssW2IrFeRMQQgAAEIRC4gpwKcx2pr01DfDyIvLIICEjl4yjr/awrW/NYzdGEEJsgSAhCAAAQgUJQAKzvMOe+y1t7eo0UdEKNEyTwFQN5NGPxj9C5CVSAAAQhkVICUadNTLpG3BiZuBmC0fdNzFXGqlmPM6L8bNBsCEIBAagSY1LNaBvpuS1KDEhUAHGjrOU+pyd8bbZqThIy6QgACEIBAugXYqoO+Zx943sDAgaS0NFGnADwz/VEM/kl5a6GeEIAABLIjEDx+Psfeh5LU4sQEAGMdG69mpqcnCRd1hQAEIACBLAnwc+Q09fOS0uJEnALY396+jljvwLf/pLytUE8IQAAC2RQITgXk69Qlq/v6RuIukIgZAI/yN2Pwj/tbCfWDAAQgAIHgVEDBVzclQSL2MwAz0ynEiX/oQhLeDKgjBCAAAQiEI8CantnS3/uf4eQWTS6xDgDG29oanM7tksX+1kXTfOQKAQhAAAIQiECA7D5FdHFzf/+RCHIPJctYnwJwlH83Bv9Q+hmZQAACEIBANQXYrJdr1/5fNYsstazYzgCMdm5+pGX3Q6z1X2qXIj0EIAABCMRBIHhWgHzLvrxlsO8XcajPuXWI5QxA8Jhf69uPYvA/t7vwNwQgAAEIJEVAxjAt37I/xkrJr/F7xTIAGB8/+gZj6IHx40KNIAABCEAAAiUJPHisvfu6ko6oUuLYnQIYb7/4Ikd2p7R/eZUMUAwEIAABCEAgQgF3XGm1WS4I3BthISVnHbsZAMf2vdIKDP4ldyUOgAAEIACBeAroFc6q6+NWt1jNAIy2b7xCbpv4ZtyQUB8IQAACEIBApQJO68e39u/aVmk+YR0fmxmA4MI/eczvjWE1DPlAAAIQgAAE4iRA0/6NvHWrF5c6xSYAGBs78lq5YHJzXGBQDwhAAAIQgECYAuTpS0f33PPKMPOsJK9YnAI40NZznuHJPmXMqkoag2MhAAEIQAACcRaQtQEOL9du46r+/oO1rmcsZgDITL0Tg3+t3wooHwIQgAAEohaQBQHWTDn9tqjLKSb/ms8AjHVsvtRX7n+CBROKqTDSQAACEIAABJIsYH3na60vbRnuk2fd1O5V80GXlb0eg3/t3gAoGQIQgAAEqitgPO0R1f62wJrOAIx2bnqyYv5adelRGgQgAAEIQKD2ArJE8B/LcwK+U6ua1GwGIFgb2VmO3cIIteoIlAsBCEAAAtkSkHHwBvmvZuNwzQoe69j0F1qrnmx1N1oLAQhAAAIQOCkgA/CDxts3XV0rj5qcAuCurrqD03q38dSGWjUc5UIAAhCAAARqLsBqsKlp1Wbavr1Q7brUZAZgzJlrMPhXu6tRHgQgAAEIxE6AVMfo2NGX1aJeVZ8BONDTs1IfKwySUa21aDDKhAAEIAABCMRM4L6pyWOd6/ftm6hmvao+A2BOFN6Awb+aXYyyIAABCEAg5gLn5ZetlOXwq/uq6gzA4Qt6mnwzOYxV/6rbySgNAhCAAATiLSBLBB/ylN/WNDh4uFo1reoMgK3zX4/Bv1pdi3IgAAEIQCApArIgXgMrr6qzAFWbATj57b8wpIxanZQOQT0hAAEIQAAC1RKQWYBxmQVor9YsQNVmAPzc9Osw+FfrbYRyIAABCEAgaQIyC9DIlLu2WvWuygzAoQsvbbQ0Jef+8e2/Wh2LciAAAQhAIHkCwSyA0a6tub//SNS1r8oMgDWT+PYfdU8ifwhAAAIQSLzAzCwAU1VmASKfATi4adMqLvDdwQUOie8ZNAACEIAABCAQsYB1dtSfPnFh1OsCRD4DYHz3Cgz+Eb9bkD0EIAABCKRGwGjTXLds1UujblCkAQD39ORZueuibgTyhwAEIAABCKRJwLfu9bx1qxdlmyINAMYmCi9SbNZH2QDkDQEIQAACEEibgGfowtE9+yJ9UmBkAcDMM47JvTFtnYL2QAACEIAABKohwFa9ScbSyK7ViywAGO3Y+EyldHc1kFAGBCAAAQhAIG0CWque8Y6NT42qXZEFAGzd66KqNPKFAAQgAAEIZEOAXh9VOyOZWjjYuXmLZvfLqCqNfCEAAQhAAAJZEdCsHtw41PebsNsbyQwAMa78D7ujkB8EIAABCGRTwJGK5G660GcADl508flOTQ97xuSz2VVoNQQgAAEIQCA8AbkYcMr37IXnDQwcCC9XuUovzMyCvLT2X4nBP2xV5AcBCEAAAlkVIKPqcmyuCbv9oc4ABAv/jB4r7JXKtoZdUeQHAQhAAAIQyK4A729qXL2Btm8vhGUQ6gzA+Inp52LwD6trkA8EIAABCEDglACtGzt09Nmn/grjZ6gBgLUu9CmKMBqJPCAAAQhAAAJJF2BFoY6xoZ0CGOu8+IHM9ndJB0b9IQABCEAAAnEVYMuXtNy1e2cY9QttBsBZ/5VhVAh5QAACEIAABCAwvwBp/Yr595S+NZQZgAM9PSvNscl9yphVpVcBR0AAAhCAAAQgUIyAVeqwP3ls/fp9+yaKSb9YmlBmAMxE4fkY/Bdjxj4IQAACEIBA5QJGqTX55SuuqjynkNYBsIr/KozKIA8IQAACEIAABBYXIKa/XDxFcXsrPgUw0ta9mbQK5YKE4qqMVBCAAAQgAIFsC1iyG9cODPRXouBVcvDMsZolEqk4jqi4Gsig9gJybkpuBLEFeVNNW2N8stbX8lMpy8oZp4wl5ZuVyqjVta8tagCBeAkE/37k38yoJjM1U7Pg3wsb7az12BjPKJfzLefImJxMA+NDN17dV/XaeMp7sRT695UUXNGbiLdu9cbu3rdHKnBeJZXAsbUTCC4oIeXGDOsxJjUuHyvjTrnDWunD8hlzWLE6IrU7Kj+PkuZj5Pi4jOrHybrjsuzzRE7rEyfq6k60Lls2VewKVUc2b272p+3l7NRzlKbnS/7LayeAkiFQQwGy+0iZTzG5OyYmJ/9nw969J4qpTbDq6tjU1DLf2uV1Ll9vc7aena5nrVcYZ1cqopXy72uV/HsOLsxerRyvkZ/yHzXIjG2D/LtvYl81GbKNcv3WymLKRJqYCVi1t+muvotkEHfl1qyiAGCsY+OVsjDB7eUWjuPCFwi+RRirDrJW90jn7pOnPeyTf/z3ST/tJ/lPsz3oPHVQntR0cOUFF4zTtm3yDb12r/s6O9fmrP4nCQT+sna1QMkQqLrACZkve0tTff5G2rFjuuqlzyowCCZGjvgtxlMtjnitVtzKSq9jx+skWJAvd7zeWrVeGXqAzDw0zjoUv9ZawOknNw/v+ka51agoADjY2f0leU5xKFcjltuAjB4XfEvolf92yYdIvwz2A0xmOFfgu9as9O6p9QdKOX0iweTVBes+iQdJlaOHY5IkYH21x8uZP2ka2Pn7JNU7qOt96y5b4S2f3ECG2uSx723MukPOU3TLuYvNVukuo2QxeLyqJsCK/61lcPeflVtg2QHAwU2bVukC75eCMX1brn6xx1l1hInuIOJt8i3+Z41DvTuk4+TLfrpeI12bnuEc/7t8goRye2q6dNCadAjwfuPRIxv6+gbT0Z4zreCurroR9h5Izj1C/gH/MTv7BJxeOOMTzW/u+NTkxNpy1wQoOwAY6ex+EbH6dDSNQq4yujuP1e2K+F8al+e/lcRv9eX04mj7xnfK+cuKLmwpp1wcA4GoBYLTc0T0hNaB3u9FXVYc8t9zwQXL63MrrmTtXuKYniiBfdnjTRzaE9c6yAzM1U2Du79QTv3K7pCRzo1fl3sRn1ROoThmYQHrO19r+hcvT9en8VvCwi0/uWfmW4RTO+UixPal0mI/BBIlIF+Ymof6XpyoOodU2ZGLNl4sn2v/xyd+IU4ThIR6fzas1B0tg31PKyfXsgKA4MItzXofOrIc8oWPkavxb7PK+9vWwV19C6dK/x65HuAVctHih9PfUrQwKwLBt3+lzKa1gzt3Z6XN87VztKvrEuXofTIZ8MT59mNb6QJWbr1etjx3/updu0ZLPbqsc62eM1dh8C+VepH0Vh2Qizme0zTY/6ysD/4nlewX5Pamml4ZvUhvYRcEShaQ+/t/lPXBP0Br7u//Q/Pg7icF09a+3H5cMiQOmCNgZF0Iua36eXN2FLGhrACACFf+F2FbVBLn3Ndyy/UlciXnvxd1QAYSNQ0OHjae95MMNBVNzIgAafO1jDS1qGYG56x1wVwqF0XcWdQBSLSogNyyWZ0AYH97+zqZznrUorXBzqIEJJB6V8tw/5XlTN0UVUCCE8k3hF8muPqoOgTOEiDW28/agD9U657efc0DvU+QSyNvBEdlAlbT4450d7eUmkvJMwA58p6F27RKZT47vTw8KTgl+FdNA31vloswyl7F6exc0/WXrGI2lK4WoTVZFpAFdoaz3P6F2i6ff7Z5qPe1ck3A605eJ7FQSmxfTCA4JV8o0DMWSzPfvpIDALk46znzZYRtxQkEF2zIsrsvkPNgnyzuiGym0sEyxHhBIC0CTgdLauO1gEDzYO/7DdNLEQQsAFTEZse25LG5pADg8AU9TXKb2tYi6oIk8wgEb27P6L+QiPeWeXZj02wBLSuV4wWBlAiwPEgjJU2JrBnyufgJUXpNZAWkPGPH/ITxtraGUppZUgBQqJt+uvF05U8QLKWGKUprmN9U7oINKWJAUyAAAQjMK9Ay1HeznBb4x3l3YuOiAsEy6pbyJa0HUFIAoJlLPsewaI0ztZP/tXlo9/WZajIaCwEIQKBEgcZBuTaK+KslHobkIiBuTy8FougAIFihTeawriglc6Q9KSBX+f3miCu8Ch4QgAAEILC4gMwAyLIo9kXyuXnX4imxd46AdU/iLVtyc7YvsKHoAGCMzePlGS0rFsgHmxcWkCf36avah4cnF06CPRCAAAQgcEpgZi0QVn+OiwJPiRT505hVo+NHH1dk6uKfusbMJZ1bKLYCaU8nT+97O1b3S3svo30QgEDYAk1DfT/wlPtQ2PmmPT9ZQ+XKYttY9AyAtcVnWmzhaU8XTP03Xnj+DWlvJ9oHAQhAIBoB92Y5IxA8dh6vYgWYiv6yXlQAMNax+VLP0IXFlo90JwU0uzfRtm24nQ1vCAhAAAJlCASnAuSagLeVcWh2DyHVETx9sRiAogIARfbJxWSGNLMEnPtu81D/N2dtwa8QgAAEIFCiQGPj6k+wssMlHpbp5GT0k4oBKCoAYMajG4vBnJ1GE7199t/4HQIQgAAESheg7dsLWul3l35kdo9wzhb1uOUlA4ChtrZlwvjo7FKW1fL/aRza/f2yjsRBEIAABCBwlsDk5PHPyB0B42dtxB8LCmh5OBD39OQXTHD/jiUDgNWUe4ykDYIAvIoVYPpgsUmRDgIQgAAEFhdYv2/fhFH8mcVTYe8ZAaofmbKPPPP3/L8tGQDIPexY/Gd+u4W2Trq8+vJCO7EdAhCAAARKF3BkPlv6Udk9wrBbcuxeOgAgXjKT7BLPbTmx+kZrb+/RuXuwBQIQgAAEyhVoHdi13Sk3VO7xWTuO2S45di8aABzZvLlZzrs8KGtwlbRX7v2/tZLjcSwEIAABCMwvII9Sv2P+Pdh6roBVZstYR8eac7fP/nvRAGC64B5j5PkCsw/A74sLkHHfWzwF9kIAAhCAQDkCztB3yjkui8fI2C3ju1n0Av5FAwCZzn5sFuHKbbNv+e7m/v695R6P4yAAAQhAYGEBn/2fLLwXe84VkBnpRcfwxQMAx0U/VODcgrP4t/bop1lsN9oMAQhAoBoC5w0MHLC+2lONstJQhjyLZtExfMEAYLSra7Wv6cFpQKhWG7TjvmqVhXIgAAEIZFHAeLwzi+0up83Wd1vuW3fZgk/xXTAAIKcfffIcQjnFZvMY1tSfzZaj1RCAAASqJaBxJ0CR1MbTXq7+xILrASwYAEj+i148UGT5GUtGmJrKWI+juRCAQJUFSN1T5RKTXRzRgmP5YgHA5cludQ1q7/hYDUpFkRCAAAQyI8COsSRwSb3NC47l8wYALLcPsLUPLakMJFZyCyACALwPIAABCEQoIPelT0aYfeqytooeJmP6vLfzzxsAjHds7lHGrEqdRMQNsszTEReB7CEAAQhkW4BI7m7Dq1gBuZavYfSijZvnSz9vAMDsHj5fYmyDAAQgAAEI1FJAvsrW1bL8JJZNRs17GmDeAEAmC+ZNnMSGo84QgAAEIJAeAZnOXvIxt+lpbUgtYZp3TJ83AHDK/u+QikU2EIAABCAAgdAE5AwAAoBSNUk9bL5D5gQAQ21ty9inS+ZLjG0QgAAEIACBWgo4hxmAUv2ttT3c0zMncJoTAKzS+UuDxQNKLQDpIQABCEAAAlELEFEu6jLSlr8xJndoaqrn3HbNCQA0qYecmwh/QwACEIAABOIgQKQQAJTREc6ZOWP7nADAWZ6TqIyycAgEIAABCEAgdAFWNGcqO/RCUpgh0dyxfU4AQJoQAKSw89EkCEAAAqkQYIcZgDI60jo3Z2w/KwAIVgCUfC8rI28cAgEIQAACEIhcQGYAEACUoSxPq33QuSsCnhUAHOy4uFPyXV5G3jgEAhCAAAQgELkArgEok9iYlYcv2tQ2++izAgBNds5VgrMT43cIQAACEIBATQUYFwGW6++MO2uMPysAUE7h/v9yZXEcBCAAAQhELiDT2LhNvVxl0meN8WcHAMRn7Sy3DBwHAQhAAAIQiEJAnlWDawDKhJVHKZ81xp8VAJCis6YHyiwDh0EAAhCAAAQiEdCsEQCUK+sWOAVw/x0Am8rNF8dBAAIQgAAEohYgwzgFUC6yURfPvhPg9AzAobbNF0qeuAOgXFgcBwEIQAACkQtYy5gBKFtZrxjr6nrAqcNPBwBWu65TG/ETAhCAAAQgEEcBrfGsmkr6xSnv9Fh/OgDQik9vrCRzHAsBCEAAAhCITEAWtY8s7wxkrO2ZL/unAwAmQgCQgc5HEyEAAQgkWkDjIsBK+o9JnR7rTwcA5M5srCRzHAsBCEAAAhCISsAyLgKsxFbu9psbAFhGAFAJKo6FAAQgAIHoBQwRTgFUwOxmne4/PQOgNbdXkCcOhQAEIAABCEQuQA4zAJUga2s7Th0/EwAc6e5uUYrqT23ETwhAAAIQgEAcBazGDEBF/WLMqvG2toYgj5kAQJ4TvKGiDHEwBCAAAQhAoAoCbBmnACp0Zr1sZsyfCQB8axAAVAiKwyEAAQhAIHoBg5UAQ0C2wcJ/J2cASDECgBBIkQUEIAABCEQs4OMUQAjCZ2YAFCkEACGIIgsIQAACEIhYwCAAqFiYaFYA4E7+UXGmyAACEIAABCAQoYCPuwDC0D0TAMgtgOeHkSPygAAEIAABCEQp4CmauXYtyjLSnjezmhnzZyDZqXVpbzDaBwEIQAACKRAwFncBVNiN7LuZMf/kbYDKIgCoEBSHQwACEIBAFQSsQQBQITORPhkA8NatntKmqcL8cDgEIAABCEAgcgFLmAGoFNkabma5C1CPDNy7VsIpqjRDHA8BCEAAAhCIXEBjBqBSY6PI7O/sbNGecWsrzQzHQwACEIAABKohYOzJ9WuqUVaay8hzbp12pFrT3Ei0DQIQgAAEUiRgHK4BCKE7HXGrXASoG0PIC1lAAAIQgAAEqiCgEQCEocyuQZPmmacChZEf8oAABCAAAQhEKcAW16yF4UusG7ViwgxAGJrIAwIQgAAEIhdwjFMA4SBzg3YOMwDhYCIXCEAAAhCIXMDDKYBwjCUAUAoBQDiYyAUCEIAABKIWwG3r4QgTcaMmRWvCyQ65QAACEIAABKITCBaviS73bOXsFDVo1mpVtpqN1kIAAhCAQCIFtm5FABBSx2mmlZqcqw8pP2QDAQhAAAIQiE7g6FGsWhuSLpOq15ZoeUj5IRsIQCAhAtbaglLuuLLqiFwHNGF95yek6qhmhgWGR0exBkBI/S93U9R7RIQZgJBAkU22BKyMoNqqAik77RsqyFO1pq2vClqradKu4BRPGzYFP/hJJAOumnbOFQzpaSYusNOSjqflruYCsZtmRwU5JTcti3MUmHlaznfKdjXNmgs6+MmyXfKS/AtO9muWPNibdiYoh2WbmjYmKDcoxyt4Tk3bvCvUOTft+37hxPT09Pnnn1+g7duDusx5SXmkenpyB5XK54/q3JQ5lveMyRmt84UC5aQNeav9nPZVXp4mlpNVROUn5ZxTeZlKzMlXs7yTNORUjmQfK5KfLu9c8DNIq3KyLa/Y5eQR5Hk2nDNO5+XZ5Dml5TjJwzrKa3Z5eUxJTiooeXHOZ5WXduXknGVe25Pb5XEwOaNc3reco6COeJ7JnP5M4wbP9+WdlE9j06reJsO03NPKyQwATqtUXR8FLi7AfIws9cs01bSTAU/LIOuYpuUhFoVgm6xfUVAy4MkdwTODpAwUBRk0puXK1oKVwZSUlu0yuOrgpwyeKhgsZXCVAVYGVxm0ZRBmJQPuqYE0yMvcP9DKID2Tt5O8eDrn8gVfBtO6OlsoyGA6MTlZuGDvXilDvj8n7bVv34I1lvaw2rFjWhIE/yXqFTzV9N6+vvyyZctyOQlYJqdMzjOU97UEJ0HQIsGEleBBrnrOy6xnTqY+86StBBUng5ggIAmCGZKgQgKbHEkgcjJgmdmel29Lsk1+15xj0hLESDATpJEgJth+MoiRnzMBkcsbCVwkMJPAyORk4Zr8MnkLJQo0ppU1Ek3GtGqJq5Z89tV7yup6hUmVxHVe2ivcNLj7Dmlj8B9eEFhSgLZtCwZYDLJLSiU7gdcoi9edmHcCK9kNq0HtfUv12im7rAZlo0gIQAACEIBASQIUnALAKxQBT9EyzcZ4oeSGTCAAAQhAAAIRCmhrEQCE5OsbJ2sqWrmcBi8IQAACEIBAzAXM9HKMVyH1kVwHZbQyWFc5JE9kAwEIQAACEQroerkeGK9QBOQuGk+zJURUoXAiEwhAAAIQiFQAdwGEyCszAHi0YoieyAoCEIAABCITmJB7OSPLPGMZy2JgcgoAj1bMWLejuRCAAASSKSBL1+MiwLC6Tm4AQDQVFibygQAEIACBSAWI6xEAhCisle+St5pZiADICgIQgAAEkiEgS2YjAAirq6z1taw7jgAgLFDkAwEIQAAC0QngFEBotsYYK0tVy0rVeEEAAhCAAARiLkDL5UkgeIUk4OSKSotTACFpIhsIQAACEIhQABcBhodrlfa1lWmA8LJEThCAAAQgAIGIBBgzAGHJspIZgOB55mFliHwgAAEIQAACUQnII75xCiAkXM/KDIBoToWUH7KBAAQgAAEIRCZAXIcAICRdX/GkPAvATYSUH7KBAAQgAAEIRCeAGYDQbD3DE7IQkEYAEBopMoIABCAAgagEcAogPFlyNKEt84nwskROEIAABCAAgYgE6nANQFiylt2EPAsYpwDCAkU+EIAABCAQoQAWAgoNVxtzQjMZzACERoqMIAABCEAAAvEXIFYTmpw6Gv+qooYQgAAEIAABCIQl4IiPaVZ8OKwMkQ8EIAABCEAgKoFp3AUQGq1WfEjuAqBDoeWIjCAAAQhAAAIQiL2AxFLjWhsaj31NUUEIQAACEIAA57EQUGjvAgpmABgzAKGBIiMIQAACEIBAAgRIZgDY4RRAAroKVYQABCAAAQiEJiAPAwpmABxOAYRGiowgAAEIQAAC8Rdg0nINAKuD8a8qaggBCEAAAlkXIIWVAMN6DxilD2qfvf1hZYh8IAABCEAAAhCIv8C0mj6gW9rXHbRyJWD8q4saQgACEIBApgWwDkAo3W8V23UDAyOatm3zydrRUHJFJhCAAAQgAIGIBPA0wHBgjVIjcj+lk4sA5UUGpwHCcUUuEIAABCAAgVgLsM8HggrOBABaOQQAse4uVA4CEIAABCAQjgB5embMnwkAWNO94WSLXCAAAQhAAAIQiLMAkZoZ80+eAnC0J86VRd0gAAEIQAACEAhNYGbMP3kKQCsEAKG5IiMIQAACEIBAnAX47qB2J2cA2CEAiHNfoW4QgAAEIACBsAT45Kz/TABA9/8RVt7IBwIQgAAEIACBuAroM6cAzDKDGYC49hPqBQEIQAACEAhVYPrMKYDVu3bJQkDueKj5IzMIQAACEIAABOIlYNWRpsHBw0GlTl4DIL+wrwbjVUvUBgIQgAAEIACBUAXMmbH+dACgPTUQaiHIDAIQgAAEIACBmAlw/6kKnQ4AmMzpjad24icEIAABCEAAAukRYEenx/rTAQApd3pjepqKlkAAAhCAAAQgcEqAaJ4AwPGZjacS4icEIAABCEAAAukRcIZOn+4/PQNgGKcA0tPFaAkEIAABCEBgroBW/unZ/tMBQMPQTlkLgCfmJscWCEAAAhCAAAQSL2Dtsab+/ntOteN0AECyEAA5tevUDvyEAAQgAAEIQCBFAkbtlLGeT7XodAAQbHCa/nBqB35CAAIQgAAEIJAiATZnjfFnBQDyx44UNRVNgQAEIAABCEDgfgHSfNYYf1YAYBkzAHinQAACEIAABFIpwGrhGYCcsWdFB6kEQKMgAAEIQAACGRQgZ84a48+aAVjT3z+EhwKV/64gzp3lWX5OOBICEIAABM4VIM+Zc7fh7yIF5A6AhuFdd81OfdaAFdwJwE7/ZnYC/F68gCHKF58aKSEAAQhAoBQBp1RdKemR9oyAXOT/m9l3AAR7zgoAZjZo9+szh+C3UgRY8epS0iMtBCAAAQiUIuDhM7YUrllpjdZzxvY5AQCzmZNoVh74dREB57hlkd3YBQEIQAACFQhoy2srODzThzLTnLF9TgDgjJ2TKNNqJTTeEF9QQnIkhQAEIACBUgSIH1BKcqQ9I6D13LF9TgDQUlf3e2tt4cxh+K1YAatcZ7FpkQ4CEIAABEoTkKfW4jO2NLKZ1MGY3lBXd9YdAMGOOQEA7dgxbczZtwqUUV42D3Hq4mw2HK2GAAQgUA0BfUk1SklbGVqb3wdj+7ntmhMAzCRg9fNzE+LvpQW01g9ZOhVSQAACEIBAqQKygD35SuEztlQ4SU9E847p8wcAxD8towwcotR5422b2wABAQhAAALhCoy0b+qWRQAaws01G7kxuXnH9PkDAM0/ywZL+K102j4+/FyRIwQgAIFsCxhy+Gwt9y1gqfgAQJ4XvNMqdbjcsjJ9HNFTMt1+NB4CEIBAFAJMT44i27TnKWP5ePNwX+987Zx3BiBYLUimWn4x3wHYtoSAb58y1Na2bIlU2A0BCEAAAkUKHOjpWcmknlhkciSbJaCJf37uCoCnds8bAMzsZP7JqUT4WYKAMStXU93TSjgCSSEAAQhAYBEBPVF4luxevkgS7FpAgHj+6f8g+cIBgOIfLpAfNi8lQO6vl0qC/RCAAAQgUJwAkXppcSmR6lwBuXtiwbF8wQDA1tf92PpO7rrAq1QBq+iKkYs2XlzqcUgPAQhAAAJnC4y3bXywbHnM2VvxVzECwQJA05PHfrxQ2gUDgLU7dhwznv7VQgdi+8ICcv0EaU3/Z+EU2AMBCEAAAsUI+Ib+rph0SDNXwHhm+/p9+ybm7jm5ZcEAYGY30fcXOhDbFxfwiV+IWYDFjbAXAhCAwGICwbd/ZvXcxdJg38ICYnfnwnsXvQZAvsayW/TgxTLO+j6jyDDxDVl3QPshAAEIlCvAmt4rM6qLf1EtN/MMHKepkgDAFX4o9xC6DDhF0kRZGvgpox0bnxNJ5sgUAhCAQIoFxjo2vVAuYHt8ipsYadOsYisrAP5osUIWjawah4cPGetwHcBigkvts/Sh/e3t65ZKhv0QgAAEIHBS4OCGTesLyt4Ij/IFZBZ6e3N//5HFclg0AAgOJKO/tVgG2LeEgFFrPcp9ViLZJa2XyAm7IQABCKReQD4rjcnx5zylm1Lf2AgbKA8AWnLsXnJQskVkEmEb0pL1FWOdm96dlsagHRCAAASiEhhv734fpv4r1yXnvrlULksGAC3LPDmH4I4vlRH2LyHA/DcjnRtfs0Qq7IYABCCQWYHR9o1/I0v+4nOy0neAtccamlYvuZrvkgEA7dgx7Zz6fqX1wfESRjF9YKxz48thAQEIQAACZwvIF6Rr5cH17zl7K/4qS0CbO2n79sJSxy4ZAAQZyNXsS55LWKog7JcTW8GdlUwfGenoxsIWeENAAAIQuF9gtKP7LbJm/QcAEo4Aa15y+j8oqagAgJ36WjjVQi6BgDyZ6V2j7d2f2nPBBXi4Bd4SEIBAZgXuW3fZitG27s8LwNszixBBw9npbxSTrYxFxb3GLureLc8I7iouNVIVI8C++532vBc2De76XTHpkQYCEIBAWgSCVf6con+Tr6GXpKVNsWiHz7ub797dXUxdipoBCDJiw/9VTIZIU7wAefrSgi38Uqa/3j7U1ras+COREgIQgEAyBYKZT7kr6v8rsPs5Bv8I+tCjO4rNtfgAQBWfabGFI51SnjF5cXjLSp3fNdLZ/aLgHli4QAACEEibAG/d6o12bPqrelPfx8xvNnK3f9raGIf2MBU/Vhd9CoC3bMmNjRwalSUaVsWhkWmtA1nVLyHA+/zluc8ET2RMazvRLghAIBsCo11dq+Xi5xfLoH+dVro9G62uTStl6f7DrY2rWou5AyCoYdEBQJBYorevyMkArG0fYET9kvs4Jdj6itwW86WmZd53g9sxoy4S+UMAAhAIQ4C7uurGnX6CYvWn8lA0eZof1YeRL/JYQoDULc0DfVctker07pICgLH2TX8mnfnZ00fjl+oISDDARn9PbpO5Uzrs59MTy3513v7fYnGm6uijFAhAYAmBAz09K3MT0/+LtXq4rHfyWFLu8XKT2YolDsPukAVI0Z81Dfb+W7HZlhYAdHSsKVg6cP9562LLQLqQBWSaRxbLcsOk9A55VuPvleFesrxLK39X8ACnkItDdhCAAARmBA5deGmjzZ/YrBxtZkWbZGOPUvaBTpmLgnVOwFQ7Ad/a6ZzhtU2Dg4eLrUXJHXawreu/g8fcFlsA0lVXwFk7wlrv9hTtlihhkFkNak2D1teDLXftvE86XK4zxAsCEIDAXAH5cKCRDZvOl4fxdDhSHcTyn/yU7RuttRuNNs1zj8KWWAg49d/Nw31PLaUuXimJg7SazK0yhiAAKBWuSum1MS1SVIv8g31EUKT841Vy8Y3SxqrRi7qnxpTaI+s5DMu6xHukM/fIXMLdEsHvkQsP79G+fw9mEKrUUSgGAjUQCL7Bu5z/AHlS/AMUuQ3y6XChfEhskEfHb2A2bQfkp2c4H3xLkMF/5iUfHzMvGfxP/oL/j6eAZrlGr7RXyTMAR7q7WyZ9vk+eNYx3Q2nWCUk98+Cne5jMvXJaYZ/T7l7NdK+cbriPldsvP/dPa/++dQMDI/LmcQlpFKoJgdQKyPhsDrS3t+RUfh0re56E++tI8ToZ2NdLo8+X/9Yrn89XnnqADOu4GC+F7wTrO7/O1a1bs3eHfMcr/lVyABBkPdrW9R15QMAfFV8MUqZNQK5DcFomFeQ0wwGj1QHL7oAhNSIfPgflG4MEB3RQLhgdNfK7M270iO+PtA8PT6bNAe2BQNgCwUI59XV1LdrqZqupWS7+bWbFrTKb1yrX/rRY0q3G8Vq5tW6tY7uWjWmSb2NFr+kSdn2RXywEvt082HdFqTUp+RRAUAAZ/SX5kEcAUKp2itLPfOCY4ANJtco3kB5N+vTFBcFph+BSg+CHnEcMQgW1WuflNtKNE7JhnJ0bUzkzJjMMY0rzuHxTkW08LnmMybzjuBxxmMkFFzMedlPmUMEePbR+374J+RsvCCRCIFjj3lsz2SDPZF+j2GuQgVt+coN8ejY65kbS1Ch/N8q/h0YZuput5SbjuSZZcrVRGrg8+Mck/2xOXlUnc/Ez/6RkhwTY8k9Gfgb/yOR/GuuGJeL9EHklWX25nDJOva9KOvbwBT1Nk2byXtwNUBIbElcgEExxsaeOyGfiYfkIlACBDssH6FFy6qh8EB6V6xmOBH9LEUflU/KYxCPyU/azOuprc5ysO06eOybXORxraGs7Rtu2+RVUB4emTCBYpe7w4OgqucJ9Bft6pdx2u8JzdoXMcK2SAHWVPBBNfsp/Sq2Un6vl5NcqeZ+tktveZvbLYz7XOBnk5ZzYGvLVauPpsr5cpYwVzamCQHD1fx3Xn9dw9++CL08lvcoKAIISRjo2flWmeZ9WUmlIDIGYCMgVzQVZaOm4ceq4XBA5oTw6bplPGOUmmPSEXDg5Idc+TLCmE/Jl64SkOSFBx4S850/It7lJmdmY1Iom5QN/kqw+4Tw1JcHFpHzsT9kCTXpKT/p1PF3n3LSs4DQlp0Cm24aHp+QfnHx/w2shAcGh4ba2utWel5c1suumtM7LSFpnnVsmwV+deC9zyqvTvqpj45bLNvmbl8m34mXy7XiZ9Fu9nP9eLgHhcpmlXE6OlztDK2SAXk7s6q3S9YZouZwTX6FyboVlU6+sXYFlaRfqEWyPuwARf7VpYPczyqln2QHAWGf38+Uf2BfKKRTHQCCrAsFMhnw7LMg1FNNyDcW0BBfTcqGlXFcp3xs1FeTCCt+wKcg3y4JzTk73Gp+c78t91gVJ68tAJ3GKsjLzayWUsHJuWE4TyzAXbFNyckVGOc1GLslwTvKT+EW+q8oIKddjzPwMtgX28ofsCyaT5Xd2MmEiKU/+Idd5yndeiYKCny6Yc5aVXUju/XVkjQRFwcS0FKnkNHSQvVwMLL8HNZrZFvxOnJOpb4/lUZfsrCeHGpmpyVmyOe2MJ/nlZK8nValj3+ScUXk5pZQXmxy+Oc/0Av4PAsULkHq+rP73peIPOJOy7ABg3/r19XW55fvlW9TKM9nhNwhAAAIQgAAEqiJg7dEJO7Vuw969J8opT6L58l7BRVly9elt5R2NoyAAAQhAAAIQqESAPHNbuYN/UG7ZAUBwsJxX+0zwEy8IQAACEIAABKorIHdPfbaSEss+BRAUKicQ9cELu4flrJ6sKIUXBCAAAQhAAALVEPAt3732rt3tMoiXvSBbZTMAUrAx/OlqNBZlQAACEIAABCBwUsDT6tOVDP5BLhUFAEEGJkefDC4/Dn7HCwIQgAAEIACBaAWCMdc4/clKS6k4AGjo6xuUe4K+X2lFcDwEIAABCEAAAksLeMx3NtzVO7R0ysVTVBwAnMye/3XxYrAXAhCAAEaGerAAABshSURBVAQgAIEwBJyiUMbcUAKAE1MTt8iURMnLEIYBgTwgAAEIQAACWREIxtoThYmSH/07n08oAUBwH6IsC4aLAecTxjYIQAACEIBASALBWFvJvf+zqxFKABBkKIuJfmR2xvgdAhCAAAQgAIFwBcIca0MLAFqHenvlloTvhdtU5AYBCEAAAhCAQCAQjLHBWBuWRmgBQFAheeLIh8OqGPKBAAQgAAEIQOCMQNhjbKgBQFPTSnk2gL33THXxGwQgAAEIQAACIQjcd3KMDSGn+7MINQCg7dsLijzMAoTXP8gJAhCAAAQgEAh8eGaMDdEi1AAgqFeebHAx4GSIdURWEIAABCAAgSwLTOa1C/3LdegBwKr+/oNyNcDns9xTaDsEIAABCEAgPAH+/MmxNbwcg5xCDwCCTEmZ9wc/8YIABCAAAQhAoDIBIu99leUw/9GRBABNg7t+p5z77vxFYisEIAABCEAAAkUJsP1O08DO3xeVtsREkQQAQR1I6xtKrAuSQwACEIAABCAwS4DIvHfWn6H+KusKRPOS5wPT6IVdvyFPXxpNCcgVAhCAAAQgkF4B9t3vWu7uvyyqFkY3AyBXAmpj/jmqiiNfCEAAAhCAQJoFtGfeHWX7IgsAgko3XnT+F51Sd0XZAOQNAQhAAAIQSJsAKzvceOH5X4qyXZEGALRtm0/EkZ2/iBIGeUMAAhCAAARqJsDmhmAMjbL8SAOAoOLTJ45/3Fk7EmUjkDcEIAABCEAgLQJs1cEThYlPRN2eyAOA9fv2TZA2kdzDGDUO8ocABCAAAQhUXcCo923Yu/dE1OVGHgAEDeA83eQrNxZ1Y5A/BCAAAQhAIMkC1tlRztEHq9GGqgQArb29Rw0RZgGq0aMoAwIQgAAEEiug5b7/YMysRgOqEgAEDZGLAW+0So1Xo1EoAwIQgAAEIJA0gWCmPJgxr1a9qxYANPf3HzFK4RkB1epZlAMBCEAAAokSMExV+/YfwFQtAAgKI+V/ALMAgQReEIAABCAAgTMCwbd/Mly1b/9ByVUNAJoGBw97iiJd2egMJ36DAAQgAAEIJEMgR/RPwUx5NWtb1QAgaNjx6eM3KmXvrWYjURYEIAABCEAgtgJk9x2fOlGVK/9nG1Q9AAjubSTlvXN2JfA7BCAAAQhAIKsCpPQ7qnHf/7m+VQ8Aggo0Nq78uGI1eG5l8DcEIAABCEAgSwJkVX/jhgdEvurffKY1CQBo+/YCEb1lvgphGwQgAAEIQCAzAobfGvWa/wtZ0kI7ot7OclPAaHv3diL1kKjLQv4QgAAEIACBuAmQ4181Du9+qAzEMiRW/1WTGYCgmUGDWdMbqt9klAgBCEAAAhCovYD1zBtqNfgHra9ZABAU3jrQ+z1WfHvwO14QgAAEIACBrAjI6rhfbe3fta2W7a1pABA0XKYB3mh9F+kzj2sJjLIhAAEIQAACswWstQXL5o2zt9Xi95oHAK1Dvb3a0x+rReNRJgQgAAEIQKDaAp42H2kd3NVX7XLPLa/mAUBQobyn3ipLBB86t3L4GwIQgAAEIJAmgWA5fK9Ovz0ObYpFALC6r29EE+O2wDi8I1AHCEAAAhCITECz+ofVu3aNRlZACRnLBYjxeMk9EGb0wq5fk6cvjUeNUAsIQAACEIBAeAJOqd+0DPZtkYFXJgJq/4rFDEDAEIAYQ6+uPQlqAAEIQAACEAhfwCj16rgM/kHrYhMABJVpHNr9ffnxxeB3vCAAAQhAAAJpEZBb3v+tabDvh3FqT6wCgACGPfU3ytpjcUJCXSAAAQhAAAJlC8iYxgX9prKPj+jA2AUALX199yhjcEFgRB2ObCEAAQhAoMoCxvuH1j29+6pc6pLFxeYiwNk1nbkgsL37F3hOwGwV/A4BCEAAAkkTIFbbG4f6Hh6nc/+nDGM3AxBULIBiopfJZZJy0SReEIAABCAAgeQJWMXWGveyOA7+gWYsA4CgYq2Dvb/0WN0c/I4XBCAAAQhAIGkCxqmbWvv7fxXXesc2AAjAbJ7eLHMA98QVD/WCAAQgAAEIzCdgfbXHrsj/w3z74rIt1gFAa2/vUSJ3TVywUA8IQAACEIBAMQKex9es3bEj1ne0xToACJCbhvpvZ0efLwYcaSAAAQhAAAK1FpAL2T/XNLj7v2pdj6XKj30AEDQgv4yulRUC9i/VGOyHAAQgAAEI1Fjgvtx07rU1rkNRxSciAJh5cAJrLBNcVJciEQQgAAEI1EqASb1yzd4dY7Uqv5RyExEABA1qHur9itwgeGspjUNaCEAAAhCAQNUESN3SMtD3H1Urr8KCEhMABO3Ma3uNPEPpQIVtxuEQgAAEIACBcAVkbMqTe1W4mUabW6ICgFX9/QedppdGS4LcIQABCEAAAqUJkHZ/HYxRpR1V29SJCgACqtah3q/Kj0/Ulg2lQwACEIAABE4KOHIfD+5YS5pH4gKAANjl6HVOuaGkYaO+EIAABCCQLgF2aoCX1b0uia1KZAAQLBBklH4RnhWQxLcc6gwBCEAgHQLBWv9k9IvivuDPQtqJDACCxjQN9v3QI/rHhRqG7RCAAAQgAIEoBQyrdzUP7PpxlGVEmXdiA4AApXHD+W+zzD+JEgh5QwACEIAABM4VcNb+sGlo99vP3Z6kvxMdANC2bX5OeS+QUwGHk4SOukIAAhCAQHIFZMwZN4ZfGNfH/BYrm+gAIGhk49DOuwzj1sBiOxzpIAABCECgMgFN6iVNg4N3V5ZL7Y9OfAAQEMoqgbcEt2HUnhM1gAAEIACBNAuw4w8nabW/xfoiFQFA0MDJqclrnbK/Xayx2AcBCEAAAhAoV8Ap9ZujqvD6co+P23FyCiM9rwMdF2801v5SGbU6Pa1CSyAAAQhAoNYCwbVmee22NPT3D9S6LmGVn5oZgABk7eDO3UrTS8LCQT4QgAAEIACBQEDO+784TYP/TJvS1rUnnxrIH0hbu9AeCEAAAhCokQDR9XLe/7YalR5ZsamaATil1NS4+o1YH+CUBn5CAAIQgEAFAj9o2nD+31VwfGwPTdU1ALOVR7q7H0C++qVsO2/2dvwOAQhAAAIQKEqA7D5rl21ZO7zjvqLSJyxRKmcAgj5o6eu7R5F+jm/tdML6BNWFAAQgAIEaC7BVU2z1s9M6+Ae8qQ0AgsYFazR72rw6+B0vCEAAAhCAQLECZPialuHdPys2fRLTpToACDqkeajvX5Sijyaxc1BnCEAAAhCovgApd3Pz4O5PVr/k6paY+gAg4GxqXPma4MEN1aVFaRCAAAQgkECB7zdeeMF1Cax3yVVO7UWA50oc7epqnXTqZ1rp9nP34W8IQAACEIAAOzWQz6vLV/f1jWRBIxMzAEFHrurvP6i1ulJZdSQLHYs2QgACEIBA8QKy0t8hSX1lVgb/QCYzAUDQ2Ob+/j/InQFXWSXXd+IFAQhAAAIQEAHrO18Gw+e2DPftyhJIpgKAoGObh3d9QzNl4vxOlt7IaCsEIACBcgW8HL26ZbDvO+Uen9TjMhcABB3VMtT3QcV0Y1I7DfWGAAQgAIFwBJxy720a2J3JO8UycxHguW8VltMfY23dt8hJkGefuw9/QwACEIBA+gUcqS/LGv/Pl4FQhoTsvTI5AxB0s3S4O6KmX4jbA7P3pkeLIQABCDDRnS3kXpTVwT94B2R2BuDU2//wBT1Nfn7qRzIhsPnUNvyEAAQgAIH0Cjindnhq+tGNw8PBlf+ZfWV2BuBUj6/Zu2NMc+7Jch3ovae24ScEIAABCKRUwKl7tLFPyfrgH/Ru5gOAAKFxaOddxN6T778PNNiEFwQgAAEIpExAPuPHyZgnNw8M7ElZ08pqDgKA+9mahnp/a0g/Va4FmShLEgdBAAIQgECMBdxx49yfNA3s/H2MK1nVqiEAmMUdPD1QOfNsPEJ4Fgp+hQAEIJBwgeAznZV+ZvNw/08T3pRQq48A4BzOYKEgT3t/LlNF7pxd+BMCEIAABBImEKz86hl9tSz08+2EVT3y6iIAmIe4eaj3y4bVK+bZhU0QgAAEIJAQAfkix0bpl8mjfW9NSJWrWk0EAAtwNw/1/QsTX7vAbmyGAAQgAIGYC3hKvbp5sPdfY17NmlUPAcAi9C0Du2+S3W9YJAl2QQACEIBALAXodU2DfR+KZdViUikEAEt0RPNg33tljcj/u0Qy7IYABCAAgZgIEPGb5Jv/+2NSndhWAwFAEV0jF4/8oyR7WxFJkQQCEIAABGoowMx/Lw/3eU8Nq5CYohEAFNlVMhPwdkn61iKTIxkEIAABCFRZQK7b+oeWod3/r8rFJra4zD8LoNSeG+no/jtBe1epxyE9BCAAAQhEJxBM++Obf2m+CABK85pJPdre/QZ5jNL1ZRyKQyAAAQhAIHQBuk7O+X8g9GxTniECgDI7eKRz47XEhDdcmX44DAIQgEClAsF9/p7iVzYN7v5IpXll8XgEABX0+lhn98t8Vh82eKhSBYo4FAIQgEDpAsEKf/LZ+1JZ5OeTpR+NIwIBBAAVvg9G2zddZZ3/OWNMrsKscDgEIAABCBQhwFZNKU+9oGWg7z+KSI4kCwggAFgAppTNo52bnqzYyVKTVF/KcUgLAQhAAAIlClh7jI15ptye/Z0Sj0TycwQQAJwDUu6fYx3dj/aVukOmpNaUmweOgwAEIACBhQV85cYM66e0DPX9fOFU2FOsAAKAYqWKSDfe3v0gR/ZrSpnzi0iOJBCAAAQgUKyAVXtVzj25ub9/R7GHIN3iAlgIaHGfkvY2DvX9RnP+EfIk4V0lHYjEEIAABCCwoIC1/HsZ/B+BwX9BorJ2YAagLLbFDzp8QU9TwSvcTlo9cvGU2AsBCEAAAosJEPM2RfaZTYODhxdLh32lC2AGoHSzJY9Ys3fH2Al/4o9JuduWTIwEEIAABCCwkMAXG+vzT8LgvxBPZdsxA1CZ36JHy1MEtVwX8H4m9ZpFE2InBCAAAQicLcD0nqah3r+VQUo+SvGKQgABQBSq5+Q50t79akf8fqNIbhLACwIQgAAEFhKw1haMNq9sHur7+EJpsD0cAQQA4TgumcvMWgE+f0kZtXrJxEgAAQhAIIMCsrTvuCZ6bstA73cz2PyqNxkBQBXJR7u6etjxHaRMWxWLRVEQgAAEYi9AVvVbTVe2DvX2xr6yKakgLgKsYkcGt7D4pB7u2P2oisWiKAhAAAKxFgiu9Dc293AM/tXtJgQA1fVW5w0MHGhpWvN4WTb4o1UuGsVBAAIQiJ8A042NFz3giuDuqfhVLt01wimAGvbvWOfGl/u+uwkPEqphJ6BoCECgVgKTcofUK+SBPp+uVQWyXi4CgBq/A8Y6Nz2Kmb8i1TivxlVB8RCAAASqIyDL+rJRz5YH+vyiOgWilPkEcApgPpUqbmsa6P0Re+qhlvknVSwWRUEAAhCoiQAT3enrwkMx+NeE/6xCMQNwFkft/uAtW3Jj40feI9cGvLZ2tUDJEIAABKIRkFv8WL5x/nPzYN+bZeCRP/GqtQACgFr3wDnlj7Zvep5y/ieUMavO2YU/IQABCCRSQEb7Qx67FzUN9d+eyAaktNIIAGLYsQfbN21i575iDD0whtVDlSAAAQgULUCstmtHz2u4q3eo6IOQsCoCuAagKsylFRLcC+sXjj/ckcNSmKXRITUEIBAjAXkg2s2Nxj0Kg3+MOmVWVTADMAsjjr/KKYGrLPHH5CECa+JYP9QJAhCAwLkC1tlRIu+v5MvMV8/dh7/jI4AAID59sWBNDl20qd16/Hl5JtblCybCDghAAAIxEAiu8leGX9jS13dPDKqDKiwigFMAi+DEZVcwfda0Yf1j2Kl/kotpXFzqhXpAAAIQOCVgfecrorc0D/T+EQb/Uyrx/okZgHj3z5zajbV3P8aR/QweKDSHBhsgAIFaCfi8W+7x+/OW4d0/q1UVUG7pApgBKN2spkc0DfX9gHPeZcrxJ2taERQOAQhAQATkCacfnvKPPxiDf/LeDpgBSF6fna7xSGf3M5WvPkZGtZ7eiF8gAAEIVEXA3ktkXtI00Pe1qhSHQkIXwAxA6KTVy1AeonGb71lZK4BurV6pKAkCEMi8gFNfyOVzl2LwT/Y7ATMAye6/07UPVhCUqbibMRtwmgS/QAACYQuQ3eecdw1u7wsbtjb5IQCojXskpR7p7m4p+Oomyfz5kRSATCEAgewKyHVHWhVe3zg8fCi7COlqOQKAdPXnTGuCawNI2ZsVm/UpbB6aBAEIVFFA7ju+Szv98ubhXd+oYrEoqgoCuAagCsjVLiK4NkDux704WIYT6wZUWx/lQSAdAvff13+9Pb6sB4N/Ovr03FZgBuBckZT9PdLe/TAm9TGJ9B6UsqahORCAQHQCP9OsXt441Peb6IpAzrUWQABQ6x6oQvm8das3dte+1ypyb1dKr6hCkSgCAhBIooBVR2RBn//bPNT3YRkcsOpoEvuwhDojACgBK+lJR7u6LnBWXa9J/2nS24L6QwAC4QnIqUL2WH3W59zfrh3ecV94OSOnOAsgAIhz70RUt4Ndm7dywd5kDMkaAnhBAAJZFiDHv5LR/9XN/f0/ybJDFtuOACCLvS5tnjktcPe9r7KK345HDWf0TYBmZ1rAWTtiPPPmxoG+j2O6P5tvBQQA2ez3060+2tXVOuX025zvXmY87Z3egV8gAIFUCvjWTnvG3Gz8unc23P278VQ2Eo0qSgABQFFM6U80ctHGi0nTexSpp6a/tWghBLIqQLcabf+2ob9/IKsCaPcZAQQAZyzwmwiMdHQ/gZW6AbcN4u0AgVQJ/Fw+7N/QNNj3w1S1Co2pSAABQEV86TxYAgA93r7pakv2HVrp9nS2Eq2CQBYEXJ+sCPoPTUO9t8iHvfzTxgsCZwSwEuAZC/x2v4B8UDj5wPhcS+OaTczq1bIZtwXh3QGBJAlYtVeG+5c2XXhBT/NQ75cx+Cep86pXV3lf4AWBxQX2rV9fn1+28rWyKsib5I6BhsVTYy8EIFArgeDKfm3Mu5q0+xD190/Vqh4oNxkCCACS0U+xqOVYR8caVt51smjIdQgEYtElqAQEZgRmbukz5gZ/ee6Da3fsOAYWCBQjgACgGCWkOUtgJhCg3LWW+XUSCDSetRN/QAACVRNgqw5qj66fPlZ383n7f3u8agWjoFQIIABIRTfWphGytPBqZrrWWXed0aa5NrVAqRDIogDvl3P81xcmln8YA38W+z+cNiMACMcx07nct+6yFbkVU3/tW/d6z9CFmcZA4yEQoQA7NaA1X3/YFT7VPjw8GWFRyDoDAggAMtDJ1Woib9mSGz109AUyLfkmrVVPtcpFORBIu4DcjfNr0urdTQN9X5EPbbkMBy8IVC6AAKByQ+RwjoDcbEzjHRtlRUF6vfz++HN2408IQKAIgeAJfZr4m/Kwnvc2D/V/s4hDkAQCJQkgACiJC4lLFRhv736QI3WdzAq8gIyqK/V4pIdABgVOyPn9z7Lj97fctXtnBtuPJldJAAFAlaCzXsz+9vZ1HuWukS81r5CZgXVZ90D7ITBHwKl7WKub83n9sdW7do3O2Y8NEAhZAAFAyKDIbnGB4DqBsUNHn82KriHmxy2eGnshkG6BYJpfbqX9Niv+SPOFD/gqbdvmp7vFaF2cBBAAxKk3MlaXk08g1K+wxH8hH4JrMtZ8NDfDAjMr9nnep6zyP7p2YKA/wxRoeg0FEADUEB9FnxSYWWp4+YqriOkvZctj4QKBNArIt30nge53SfEnGzXfiqV609jLyWoTAoBk9Vfqa3ugs7PLU96L2ee/UEZdkPoGo4HpF2A1qDR9irjw6abBwbvT32C0MCkCCACS0lMZq6fcPqjH2jZfwdr+uXxjeqb8uSJjBGhuggXk2/5h+bb/H07rT7f077pTPmjlLY0XBOIlgAAgXv2B2swjEJwiWLZsxTOcoqvl3OmTjDG5eZJhEwRqLTCpnPpv1vxvzZr/C1P8te4OlL+UAAKApYSwP1YCRzZvbvan7fPkHunnWU2PM0pWF8ALAjUSsNYWSJvvyII9XyZl/12m+A/XqCooFgIlCyAAKJkMB8RF4Eh3d0uhQDIzwM9lZ5+AmYG49Ezq6zFJrL7hlLrV8PTtjcPDh1LfYjQwlQIIAFLZrdlr1HhbW4Ol/NOI+OnKuicpY1ZlTwEtjkpAzumPG6e+Lhem/qddlvuvtTt2HIuqLOQLgWoJIAColjTKqZoA9/TkR08UHisXD16pmJ6mSHVUrXAUlCIBt0uW6bldK3dHw9DuH8mHpcQBeEEgPQIIANLTl2jJAgIzCw4Z/STn7BO1XDcgSxHXL5AUm7MsYNUReeLe92Rq/1uecV9v6O8fyDIH2p5+AQQA6e9jtHCWQDA7MDJlH2nYXcFsr7DKbJGrCPWsJPg1IwJWySOqWP3cEH2LiL7ZuOH8n2Ep3ox0Ppo5I4AAAG+ETAuMdXTIEsTm0fKtT04Z0OOs77YYT3uZRklp431rp2UG6BdG6zvZ6u/bFeZHOJef0s5Gs4oSQABQFBMSZUXgvnWXrcjVn3ikInq0rN1yuVX0MJkhaMhK+9PUTl+5Me3Uz7TWP3VEP5icOv7TDXv3nkhTG9EWCFQigACgEj0cm3oBWb6NRi/auFlWG7hcLii8XC4ofJjc+92DWw7j1fXBt/sc6d/LTM7PlKGfMuuftg7u6otXLVEbCMRLAAFAvPoDtUmAQHAdwaGpqR7nzEPktsOHWOceoh0/SG49XJmA6ie/itYeFev/kYDs16zdr42jXzc0rfoDbd9eSH7j0AIIVE8AAUD1rFFSigWCmYLDF21qc8b1KNKXKMc97Nwlct/4xXiOQZkdf3Kg/4NY/kFmXv5AmnaQM39oGNp5t3xwYW39MllxGAROCSAAOCWBnxCIQCAIDMa6uh7glNelretiUl1ysWGXrF4of9uOrC9YFDw0x3M8wIYGZHW9flbUr9n1+77ub93Tuy+CLkGWEIDA/QIIAPBWgEANBYIVDFkv2yBrzFwo1dggFx/K72oDszqffbeOSK+zRrUk7VbF4BY7qfOIU26/Vma/DO73yiNx98gX9+BxuHuY3MzP5v7+IzXkR9EQyLQAAoBMdz8anwQBmUXQ+zs7W/KcW+eIWxW7BmLdKIOp3J3ADXIdQqM8KbFBM62UGYZ6x67eMC2Xp9LV+5bqPUXLfOM8UtoY5eQWR23kQkYjsw8nb3e01peLGq2Sn1Z+snLWs9r3FU96hifI0YRlN6GNniCmE1KHY5poXB7IJGvg08x/MqCPM+lxo/TBHP3/+/2S586dt8DCBbgmbxSMhsBoCAzWEAAArpJuXvr/YLQAAAAASUVORK5CYII=;" parent="1" vertex="1">
          <mxGeometry x="437" y="710" width="40" height="40" as="geometry" />
        </mxCell>
        <mxCell id="BMCwSKgOCaqWYoWooj3r-2" value="Cluster Monitor" style="text;html=1;strokeColor=none;fillColor=none;align=center;verticalAlign=middle;whiteSpace=wrap;rounded=0;" parent="1" vertex="1">
          <mxGeometry x="427" y="760" width="60" height="30" as="geometry" />
        </mxCell>
        <mxCell id="MWtXkFUQYbGvttKdn1CM-11" value="" style="shape=image;verticalLabelPosition=bottom;labelBackgroundColor=#ffffff;verticalAlign=top;aspect=fixed;imageAspect=0;image=https://a.slack-edge.com/80588/marketing/img/meta/slack_hash_256.png;" vertex="1" parent="1">
          <mxGeometry x="785" y="55" width="60" height="60" as="geometry" />
        </mxCell>
        <mxCell id="MWtXkFUQYbGvttKdn1CM-12" value="" style="shape=image;verticalLabelPosition=bottom;labelBackgroundColor=#ffffff;verticalAlign=top;aspect=fixed;imageAspect=0;image=https://www.freepnglogos.com/uploads/logo-gmail-png/logo-gmail-png-gmail-icon-download-png-and-vector-1.png;" vertex="1" parent="1">
          <mxGeometry x="785" y="130" width="60" height="60" as="geometry" />
        </mxCell>
        <mxCell id="MWtXkFUQYbGvttKdn1CM-13" value="" style="shape=image;verticalLabelPosition=bottom;labelBackgroundColor=#ffffff;verticalAlign=top;aspect=fixed;imageAspect=0;image=https://response.pagerduty.com/assets/img/headers/pagerduty_logo.png;" vertex="1" parent="1">
          <mxGeometry x="759.29" y="195" width="111.43" height="30" as="geometry" />
        </mxCell>
        <mxCell id="MWtXkFUQYbGvttKdn1CM-14" value="Other Routes" style="whiteSpace=wrap;html=1;aspect=fixed;" vertex="1" parent="1">
          <mxGeometry x="780" y="240.23" width="70" height="70" as="geometry" />
        </mxCell>
        <mxCell id="MWtXkFUQYbGvttKdn1CM-17" value="" style="shape=cylinder3;whiteSpace=wrap;html=1;boundedLbl=1;backgroundOutline=1;size=15;fontSize=15;fillColor=none;" vertex="1" parent="1">
          <mxGeometry x="60" y="250" width="100" height="110" as="geometry" />
        </mxCell>
        <mxCell id="MWtXkFUQYbGvttKdn1CM-18" value="" style="rounded=0;whiteSpace=wrap;html=1;fontSize=15;fillColor=none;" vertex="1" parent="1">
          <mxGeometry x="5" y="230.23" width="215" height="419.77" as="geometry" />
        </mxCell>
        <mxCell id="MWtXkFUQYbGvttKdn1CM-19" value="" style="shape=image;verticalLabelPosition=bottom;labelBackgroundColor=#ffffff;verticalAlign=top;aspect=fixed;imageAspect=0;image=data:image/png,iVBORw0KGgoAAAANSUhEUgAAAgAAAAIACAYAAAD0eNT6AAAAAXNSR0IArs4c6QAAAGhlWElmTU0AKgAAAAgABAEGAAMAAAABAAIAAAESAAMAAAABAAEAAAEoAAMAAAABAAIAAIdpAAQAAAABAAAAPgAAAAAAA6ABAAMAAAABAAEAAKACAAQAAAABAAACAKADAAQAAAABAAACAAAAAACJBzC+AAACC2lUWHRYTUw6Y29tLmFkb2JlLnhtcAAAAAAAPHg6eG1wbWV0YSB4bWxuczp4PSJhZG9iZTpuczptZXRhLyIgeDp4bXB0az0iWE1QIENvcmUgNi4wLjAiPgogICA8cmRmOlJERiB4bWxuczpyZGY9Imh0dHA6Ly93d3cudzMub3JnLzE5OTkvMDIvMjItcmRmLXN5bnRheC1ucyMiPgogICAgICA8cmRmOkRlc2NyaXB0aW9uIHJkZjphYm91dD0iIgogICAgICAgICAgICB4bWxuczp0aWZmPSJodHRwOi8vbnMuYWRvYmUuY29tL3RpZmYvMS4wLyI+CiAgICAgICAgIDx0aWZmOlJlc29sdXRpb25Vbml0PjI8L3RpZmY6UmVzb2x1dGlvblVuaXQ+CiAgICAgICAgIDx0aWZmOk9yaWVudGF0aW9uPjE8L3RpZmY6T3JpZW50YXRpb24+CiAgICAgICAgIDx0aWZmOkNvbXByZXNzaW9uPjE8L3RpZmY6Q29tcHJlc3Npb24+CiAgICAgICAgIDx0aWZmOlBob3RvbWV0cmljSW50ZXJwcmV0YXRpb24+MjwvdGlmZjpQaG90b21ldHJpY0ludGVycHJldGF0aW9uPgogICAgICA8L3JkZjpEZXNjcmlwdGlvbj4KICAgPC9yZGY6UkRGPgo8L3g6eG1wbWV0YT4KlqhK0AAAQABJREFUeAHs3QecHVd5N/7znDP3rrRqWyVbWPY2rWQvNvCKF0wXIaYE08EBkxASQjHFGAjkzUtC/b8kBJtiY1og1NCMEwc7oYNMb4JQhLSrbbZk2ZK2qK529845z/+ZlSWttO2WmXun/O4Hs7szZ075nqt7nntm5gwpvCAAgVgL8Nat3sjQ/laP/HWOVKtSupG0a1SsG5zjBqW4gRStYa1WEdvlVul6Q7RcKVevrK53yi5jYzxjrVFGG7ZkHDujPG1mGu47q0nLVrbKOkllrLaqQEpNKeMmpLwJy3zCKDfBZE6QU0dZ8WGl6JA2NC7lH2JHh6S8cc3qoM/e/pb2dQdp2zY/1rCoHAQyLiD/xvGCAARqJXBk8+ZmO2k3MPEGRXqDc2qD0rxBK1rPTq2TEXmd0qZJRupE/Vu1EhWQtaOKzH6t3H7WdK9ytEdrtUex20NMe8wys2f1rl2jtbJHuRDIukCiPlSy3llof/IEWL4+H2q/eIMlu1Er7mLSnfItvcu31GWM6pBxvT55rQqzxu44+2pQe2pAZhf6Sbl+x9Rv2PQ3DO28Wz6ghBAvCEAgCgEEAFGoIs/MCQQD/cHOzg5y3iVE3CMAl8jQ1UOkNsvvMh2PV+kCPCGnG3Y5TX/QSu2QmYMdctLiD2v6+4fkg8uVnh+OgAAEZgsgAJitgd8hUIQAd3XVjbD3QO3cQ5jUQxzzQwzxZRIDrCjicCSpWEBmDZz+jdbu18zm187YX7fU1f2eduyYrjhrZACBDAkgAMhQZ6OppQvIN3sa6+q6RDnzcEV8uWP1MLb2EmNMrvTccERUAtbagvSJzBKon0s//VSuo/hZU3//TvmAwymEqNCRb+IFEAAkvgvRgDAFDvT0rDTH7aMU2UfLLPMjZOD/38qo1WGWgbyqIyAXIh6Wiyd/oZh/InHAD2193Y/X7thxrDqloxQIxF8AAUD8+wg1jFBgvK2tgcl7DGv9OMX2sXIL3f8ycul6hEUi6xoJWN/5xtO/kvsT7iRy31fK/qBpcFBuZ8QLAtkUQACQzX7PbKuD8/ejbB6lLF+hSV3hyzl8Ge3lGjO8siYgMwRy+YD7FRn9Lav1N1vqzI9xHUHW3gXZbi8CgGz3fyZaP3LRxovJ0FPkXvsnEqvH4Na7THR7GY10x2Udhu9rrb8lazB8rWW4b1cZmeAQCCRGAAFAYroKFS1WgHt68mMTU1tJ6SvlCrCnyhI6cr89XhAoTYCs6mfD/8WK7mhuXHUnbd9eKC0HpIZAvAUQAMS7f1C7IgWCc/mW8k+Tb/jPlHP5VyhjVhV5KJJBYGkBq44oQ9+S99dtigq349qBpcmQIv4CCADi30eo4QICR7u6WqetfiZrfo7z3R/h1rwFoLA5VAHf2mmPzLeVpltzefpPLGccKi8yq6IAAoAqYqOoygWCtfP9afs8OY9/la/4sbhiv3JT5FC+wMydBYbvJG2+rAt1tzTc/Tt5OBJeEEiGAAKAZPRTpmt537rLVuRXnHgGM10tD6t7Ir7pZ/rtENvGBzMDxuhvaKLPT5449tX1+/bJkxTxgkB8BRAAxLdvMl2zYG39sbbNV8hjZ18kT6p9BpbZzfTbIXmNt/aYPIL5NmL+TNPQ7u/IBy2eXZC8Xkx9jREApL6Lk9XAA52dXZ4yfylPiHuRrMB3QbJqj9pCYK6Ab/luT6tPmxx9qqGvb3BuCmyBQG0EEADUxh2lzhLYt359fX75yufJFdYvkc1ynz5eEEifgCw8xHJ6QFYg5H89MTVxy4a9e0+kr5VoUZIEEAAkqbdSVteRtu7NRHSNJX6RrMbXkLLmoTkQWFBAgoFx4/jTjvRHWod6exdMiB0QiFAAAUCEuMh6rgBv2ZIbGzv2LFLuGibaOjcFtkAgYwLOfVceP/GRpqaVt2GxoYz1fY2biwCgxh2QleLv6+xcm2PzCmnvNfLfeVlpN9oJgeIF7L2KvA/nyX5kVX//weKPQ0oIlCeAAKA8NxxVpMB4e/eDHKnr2KoXyDP26oo8DMkgkGWBSblO4POkzPubBnf9LssQaHu0AggAovXNZO5yCx+Nt3ddKT9ej2n+TL4F0OiwBOT0AGl9Q9Ng33+HlSXygcApAQQApyTws2KB4Pz+6KGjV8u3/TdqrXoqzhAZQAACMwLsu99pY/658aLzv0jbtvlggUAYAggAwlDMeB7BSn25FVMvtT6/3nhqQ8Y50HwIRCYgqwndRcQ3TJ84/gmsNBgZc2YyRgCQma4Ov6FjHR1rmHLX+myv85RuCr8E5AgBCMwn4KwdkecPvI/zdFNrb+/R+dJgGwSWEkAAsJQQ9s8RCB6963T+tXIv83W4f38ODzZAoGoCvnJjhuh9MitwY3N//5GqFYyCUiGAACAV3VidRtw/8L9OBv7XysC/pjqlohQIQGApgZmFhZR6Pyn/A02Dg4eXSo/9EAgEEADgfbCkQHCO36s/cZ0jeiMG/iW5kAACNRMIAgFP0buPTx+/EUsN16wbElMwAoDEdFX1K8o9PfnRicLLZHrx7yVWXFf9GqBECECgPAF7LynvnY2NKz+O1QXLE8zCUQgAstDLJbYxeBTvaGf3nym2b5fFSNpKPBzJIQCBmAiwUwNa01sbB3tlYSEl/7TxgsAZAQQAZyzwmwiMdHT/sXxKXK+VehBAIACBdAgwq1/Lowjf0DrQ+710tAitCEMAAUAYiinIY7Sr6xLl6/corf4kBc1BEyAAgXkEWPHtzPqNeALhPDgZ3IQAIIOdPrvJJx/S473DKvfXRh5JNnsffocABNInYH3na09/LO+pt67u6xtJXwvRomIFEAAUK5WydLx1qzd2977XyFXDb8WV/SnrXDQHAkUIBHcMaFZvaR7q+7AMBPInXlkTQACQtR6X9o50bvojtnwj1uvPYOejyRA4R8Ap+1uP9Wsah3Z//5xd+DPlAggAUt7Bs5snS/deyMrcILf0PXf2dvwOAQhAQAS+yJ76m5a+vnugkQ0BBAAZ6Odgun98zz2vkyuB3yaDf30GmowmQgAC5QhYe0wZ8xZ5/PCNOC1QDmCyjkEAkKz+Krm2o21dlzvNH9XKXFbywTgAAhDIpAA5/pXV+uWtg72/zCRARhqNACClHR08qc85849O08vlIj+5rR8vCEAAAsULyFWBzmN1s83Tm/HEweLdkpQSAUCSeqvIuo50dj+L2N6slDm/yEOQDAIQgMD8Ak7dQ5pf0TS4+475E2BrUgUQACS15+ap99GurtZJ1h+UW3uummc3NkEAAhAoW4AdfT6/jK5dvWvXaNmZ4MBYCSAAiFV3lF+Zsc7u51vf3qSNaSk/FxwJAQhAYDEB3i97X9U8uPvWxVJhXzIEEAAko58WrOX+9vZ1Huc+LGf5n7VgIuyAAAQgEKoA3ZrX9ppV/f0HQ80WmVVVAAFAVbnDLSw418++/Ri+9YfritwgAIEiBKw6QNr9ddNQ/+1FpEaSGAogAIhhpyxVJXlwz2pl9Y2K1F8slRb7IQABCEQs8Am7PHfd2h07jkVcDrIPWQABQMigUWc33tb1OF/rT8t9fRdFXRbyhwAEIFCUAKtBki8ksoDQD4tKj0SxEEAAEItuWLoSvGVLbnT86DudUm/Eff1LeyEFBCBQXYGZdQOI/rFxw/lvo23b/OqWjtLKEUAAUI5alY851N3dYX31BSn2YVUuGsVBAAIQKEmAnfqxIXN149DOu0o6EImrLoAV4qpOXlqBYx0br7ZT6tdyFAb/0uiQGgIQqIEAafXIAtn/GW3fhIeO1cC/lCIxA1CKVhXT3rfushW5FZMflCJfXMViURQEIACB0AQcuY9PTk1eu2Hv3hOhZYqMQhNAABAaZXgZjbR1b5aOuVXu7b8kvFyREwQgAIHqCzhlf8sq/9y1gzt3V790lLiYAE4BLKZTg30y5f8CWcf/Fxj8a4CPIiEAgdAFgieRGmt/iVMCodNWnCFmAComDCcD7unJj54ovE865JXh5IhcIAABCMRNgD/Q1Lj6jbR9eyFuNctifRAAxKDXRzs7Nyg2X5Gq4EK/GPQHqgABCEQnYJl/Qr5+buue3n3RlYKcixFAAFCMUoRpxts3PtY5ukUZtTbCYpA1BCAAgTgJ3KdIP6d5YNeP41SprNUF1wDUsMdH2rtfVXDu2xj8a9gJKBoCEKiFwHm+X/jeaHv3S2tROMo8KYAZgBq8E4Lz/WMnCh+Sol9Sg+JRJAQgAIEYCdBHmxpXvgbXBVS/SxAAVNk8eHwvKe8/DNEjqlw0ioMABCAQSwFn7Q+X5ejZeLxwdbsHAUAVvcc6Nl9asPYOz9CFVSwWRUEAAhCIvYBTbkhrdWVzf/8fYl/ZlFQQ1wBUqSPl/v6nsi38CIN/lcBRDAQgkCgBrXS7dfrHo+1dT0xUxRNcWQQAVei80Y7u1/mKvqqMWVWF4lAEBCAAgUQKyJNO11ii/x7r6MZ6KFXoQZwCiBCZlTKjbRtvIk3XRFgMsoYABCCQPgGmG5uGel8ng5Q8BR2vKAQQAEShKnnuueCC5Svqln+RmZ4eURHIFgIQgEDKBejWI27qz9qHhydT3tCaNA8BQATsR7q7WwpW3a5YXR5B9sgSAhCAQGYEgjsEclz/9Ia7fzeemUZXqaEIAEKGPtTd3WEn+evKo40hZ43sIAABCGRTgNRO7cxTGod23pVNgGhajQAgRNfxrq6HyLK+X1OK1oWYLbKCAAQgAAFl7yX2nizXBfwWGOEI4C6AcBzVzJr+Bb0Ng39IoMgGAhCAwFkC5nyf+M7Rzs2PPGsz/ihbAAFA2XRnDgzu8XdEX5c1/Vef2YrfIAABCEAgTAG5TbBBsf3WaNvmJ4WZb1bzQgBQYc/L4H+17/Ntks3yCrPC4RCAAAQgsKQA1ftc+Opo+6arlkyKBIsKIABYlGfxnWMdm66RBX4+ZzztLZ4SeyEAAQhAICwBz5i8Jf4CniZYmSgCgDL9gtX9WPGHZEoKF1KWaYjDIAABCJQrIJ+92pL6qDxW/dXl5pH14xAAlPEOkG/+fyuHvbeMQ3EIBCAAAQiEJBB8ASNSN8kXsteHlGWmskEAUGJ3j3Ru/Hv55v9PJR6G5BCAAAQgEJ3ADSMd3X8XXfbpzBkBQAn9Otq+8R3E9M4SDkFSCEAAAhCogoCci32XzAS8tQpFpaYInL8usivljfV2SfqWIpMjGQQgAAEI1Ebgrc2Dfe+oTdHJKhUBQBH9FUz745t/EVBIAgEIQCAGAjKw/V3TYB9O1S7RFwgAlgAKLvjDOf8lkLAbAhCAQNwEWP1N81DfDXGrVpzqgwBgkd4IbvWT3bjafxEj7IIABCAQVwEmvrZlYPdNca1freuFAGCBHhjr6H4lK3XzAruxGQIQgAAEkiDA6mUyE/AvSahqteuIAGAecZn2f6Gv+LNY5GceHGyCAAQgkCABq5QzTC9oHur9coKqXZWqIgA4h1nW9r9S1vb/Dyzvew4M/oQABCCQUAFrbcF43tObB3q/ntAmRFJtBACzWMfbuh7ntA7eIMtmbcavEIAABCCQeAGeINJPbBro/VHimxJSAxAA3A95sHPzFu277+KRviG9s5ANBCAAgZgJyOmAwzlWj2sc6vtNzKpWk+ogABD2Q11dnbagfyyD/9qa9AIKhQAEIACBKgnYezXnH9E4tPOuKhUY22IyvxTw0a6uVleQaX8M/rF9k6JiEIAABMITMOc7Knz98AU9TeHlmcycMh0A7Fu/vn7a6TvYqK5kdh9qDQEIQAACpQvozQWvcPtQW1umr/fKbAAg9/ib/LKVX5I3zsNKf/PgCAhAAAIQSLIAafXI1Sr/eRkLMjsOZrbho20bPygXQFyZ5Dcw6g4BCEAAAhUIaPWs8fbu91eQQ6IPzWQAECzxS5pekeieQ+UhAAEIQKBiASb1mpH27ldVnFECM8jcXQAzC/0o+k9Z5S+TwU8C36OoMgQgAIFIBaxia0hfmbWFgjIVAMhUz4Ocsz9UxqyM9N2EzCEAAQhAIFkCVh1ROffI5v7+HcmqePm1zUwAcKCt5zzlCj83ntpQPheOhAAEIACBtAqwssM+qYefNzBwIK1tnN2uTEyDc1dXnTEFWd8fg//szsfvEIAABCBwRoCUaTOO/p23bMmd2Zre3zIRAIw5+pBidXl6uxEtgwAEIACBMAQ06UeNjR+7KYy84p5H6gMAubrz1UrRX8W9I1A/CEAAAhCIiwC/fKyz+2VxqU1U9Uj1NQDB0/0KTn0bj/aN6u2DfCEAAQikU8C3djrneX+U5qcHpjYAGOvouNBZ75dkVGs6355oFQQgAAEIRCxwH3vqoS19ffdEXE5Nsk/lKQDu6cmz1bdi8K/JewqFQgACEEiLwHlqWn05rRcFpjIAGD0+/X5l9EPT8g5EOyAAAQhAoDYCwTMDxkaP/HNtSo+21NSdAhjr2PRCVvy5aNmQOwQgAAEIZEqA6armod5b0tTmVAUAo11dlyinfi6r/K5IUyehLRCAAAQgUGMBa486k3to6+CuvhrXJLTiU3MK4L51l62Qwf9WDP6hvTeQEQQgAAEInBIwZhVbe+u+9evrT21K+s/UBAC5+smbZfDfnPQOQf0hAAEIQCCeAsbQA3PL6z8Qz9qVXqtUnALAef/SOx5HQAACEIBAmQJMfyrXA3y5zKNjc1jiA4ADnZ1dxle/kif8rYqNKioCAQhAAAKpFbBKHc45/eDG4V3DSW5kok8BBPdmGp++gME/yW9B1B0CEIBAsgSMUmuccV/grVu9ZNX87NomOgAYO3TsXbjf/+wOxV8QgAAEIFAFAXnA3OjwvndWoaTIikjsKYCDnZsez8zfkUgssW2IrFeRMQQgAAEIRC4gpwKcx2pr01DfDyIvLIICEjl4yjr/awrW/NYzdGEEJsgSAhCAAAQgUJQAKzvMOe+y1t7eo0UdEKNEyTwFQN5NGPxj9C5CVSAAAQhkVICUadNTLpG3BiZuBmC0fdNzFXGqlmPM6L8bNBsCEIBAagSY1LNaBvpuS1KDEhUAHGjrOU+pyd8bbZqThIy6QgACEIBAugXYqoO+Zx943sDAgaS0NFGnADwz/VEM/kl5a6GeEIAABLIjEDx+Psfeh5LU4sQEAGMdG69mpqcnCRd1hQAEIACBLAnwc+Q09fOS0uJEnALY396+jljvwLf/pLytUE8IQAAC2RQITgXk69Qlq/v6RuIukIgZAI/yN2Pwj/tbCfWDAAQgAIHgVEDBVzclQSL2MwAz0ynEiX/oQhLeDKgjBCAAAQiEI8CantnS3/uf4eQWTS6xDgDG29oanM7tksX+1kXTfOQKAQhAAAIQiECA7D5FdHFzf/+RCHIPJctYnwJwlH83Bv9Q+hmZQAACEIBANQXYrJdr1/5fNYsstazYzgCMdm5+pGX3Q6z1X2qXIj0EIAABCMRBIHhWgHzLvrxlsO8XcajPuXWI5QxA8Jhf69uPYvA/t7vwNwQgAAEIJEVAxjAt37I/xkrJr/F7xTIAGB8/+gZj6IHx40KNIAABCEAAAiUJPHisvfu6ko6oUuLYnQIYb7/4Ikd2p7R/eZUMUAwEIAABCEAgQgF3XGm1WS4I3BthISVnHbsZAMf2vdIKDP4ldyUOgAAEIACBeAroFc6q6+NWt1jNAIy2b7xCbpv4ZtyQUB8IQAACEIBApQJO68e39u/aVmk+YR0fmxmA4MI/eczvjWE1DPlAAAIQgAAE4iRA0/6NvHWrF5c6xSYAGBs78lq5YHJzXGBQDwhAAAIQgECYAuTpS0f33PPKMPOsJK9YnAI40NZznuHJPmXMqkoag2MhAAEIQAACcRaQtQEOL9du46r+/oO1rmcsZgDITL0Tg3+t3wooHwIQgAAEohaQBQHWTDn9tqjLKSb/ms8AjHVsvtRX7n+CBROKqTDSQAACEIAABJIsYH3na60vbRnuk2fd1O5V80GXlb0eg3/t3gAoGQIQgAAEqitgPO0R1f62wJrOAIx2bnqyYv5adelRGgQgAAEIQKD2ArJE8B/LcwK+U6ua1GwGIFgb2VmO3cIIteoIlAsBCEAAAtkSkHHwBvmvZuNwzQoe69j0F1qrnmx1N1oLAQhAAAIQOCkgA/CDxts3XV0rj5qcAuCurrqD03q38dSGWjUc5UIAAhCAAARqLsBqsKlp1Wbavr1Q7brUZAZgzJlrMPhXu6tRHgQgAAEIxE6AVMfo2NGX1aJeVZ8BONDTs1IfKwySUa21aDDKhAAEIAABCMRM4L6pyWOd6/ftm6hmvao+A2BOFN6Awb+aXYyyIAABCEAg5gLn5ZetlOXwq/uq6gzA4Qt6mnwzOYxV/6rbySgNAhCAAATiLSBLBB/ylN/WNDh4uFo1reoMgK3zX4/Bv1pdi3IgAAEIQCApArIgXgMrr6qzAFWbATj57b8wpIxanZQOQT0hAAEIQAAC1RKQWYBxmQVor9YsQNVmAPzc9Osw+FfrbYRyIAABCEAgaQIyC9DIlLu2WvWuygzAoQsvbbQ0Jef+8e2/Wh2LciAAAQhAIHkCwSyA0a6tub//SNS1r8oMgDWT+PYfdU8ifwhAAAIQSLzAzCwAU1VmASKfATi4adMqLvDdwQUOie8ZNAACEIAABCAQsYB1dtSfPnFh1OsCRD4DYHz3Cgz+Eb9bkD0EIAABCKRGwGjTXLds1UujblCkAQD39ORZueuibgTyhwAEIAABCKRJwLfu9bx1qxdlmyINAMYmCi9SbNZH2QDkDQEIQAACEEibgGfowtE9+yJ9UmBkAcDMM47JvTFtnYL2QAACEIAABKohwFa9ScbSyK7ViywAGO3Y+EyldHc1kFAGBCAAAQhAIG0CWque8Y6NT42qXZEFAGzd66KqNPKFAAQgAAEIZEOAXh9VOyOZWjjYuXmLZvfLqCqNfCEAAQhAAAJZEdCsHtw41PebsNsbyQwAMa78D7ujkB8EIAABCGRTwJGK5G660GcADl508flOTQ97xuSz2VVoNQQgAAEIQCA8AbkYcMr37IXnDQwcCC9XuUovzMyCvLT2X4nBP2xV5AcBCEAAAlkVIKPqcmyuCbv9oc4ABAv/jB4r7JXKtoZdUeQHAQhAAAIQyK4A729qXL2Btm8vhGUQ6gzA+Inp52LwD6trkA8EIAABCEDglACtGzt09Nmn/grjZ6gBgLUu9CmKMBqJPCAAAQhAAAJJF2BFoY6xoZ0CGOu8+IHM9ndJB0b9IQABCEAAAnEVYMuXtNy1e2cY9QttBsBZ/5VhVAh5QAACEIAABCAwvwBp/Yr595S+NZQZgAM9PSvNscl9yphVpVcBR0AAAhCAAAQgUIyAVeqwP3ls/fp9+yaKSb9YmlBmAMxE4fkY/Bdjxj4IQAACEIBA5QJGqTX55SuuqjynkNYBsIr/KozKIA8IQAACEIAABBYXIKa/XDxFcXsrPgUw0ta9mbQK5YKE4qqMVBCAAAQgAIFsC1iyG9cODPRXouBVcvDMsZolEqk4jqi4Gsig9gJybkpuBLEFeVNNW2N8stbX8lMpy8oZp4wl5ZuVyqjVta8tagCBeAkE/37k38yoJjM1U7Pg3wsb7az12BjPKJfzLefImJxMA+NDN17dV/XaeMp7sRT695UUXNGbiLdu9cbu3rdHKnBeJZXAsbUTCC4oIeXGDOsxJjUuHyvjTrnDWunD8hlzWLE6IrU7Kj+PkuZj5Pi4jOrHybrjsuzzRE7rEyfq6k60Lls2VewKVUc2b272p+3l7NRzlKbnS/7LayeAkiFQQwGy+0iZTzG5OyYmJ/9nw969J4qpTbDq6tjU1DLf2uV1Ll9vc7aena5nrVcYZ1cqopXy72uV/HsOLsxerRyvkZ/yHzXIjG2D/LtvYl81GbKNcv3WymLKRJqYCVi1t+muvotkEHfl1qyiAGCsY+OVsjDB7eUWjuPCFwi+RRirDrJW90jn7pOnPeyTf/z3ST/tJ/lPsz3oPHVQntR0cOUFF4zTtm3yDb12r/s6O9fmrP4nCQT+sna1QMkQqLrACZkve0tTff5G2rFjuuqlzyowCCZGjvgtxlMtjnitVtzKSq9jx+skWJAvd7zeWrVeGXqAzDw0zjoUv9ZawOknNw/v+ka51agoADjY2f0leU5xKFcjltuAjB4XfEvolf92yYdIvwz2A0xmOFfgu9as9O6p9QdKOX0iweTVBes+iQdJlaOHY5IkYH21x8uZP2ka2Pn7JNU7qOt96y5b4S2f3ECG2uSx723MukPOU3TLuYvNVukuo2QxeLyqJsCK/61lcPeflVtg2QHAwU2bVukC75eCMX1brn6xx1l1hInuIOJt8i3+Z41DvTuk4+TLfrpeI12bnuEc/7t8goRye2q6dNCadAjwfuPRIxv6+gbT0Z4zreCurroR9h5Izj1C/gH/MTv7BJxeOOMTzW/u+NTkxNpy1wQoOwAY6ex+EbH6dDSNQq4yujuP1e2K+F8al+e/lcRv9eX04mj7xnfK+cuKLmwpp1wcA4GoBYLTc0T0hNaB3u9FXVYc8t9zwQXL63MrrmTtXuKYniiBfdnjTRzaE9c6yAzM1U2Du79QTv3K7pCRzo1fl3sRn1ROoThmYQHrO19r+hcvT9en8VvCwi0/uWfmW4RTO+UixPal0mI/BBIlIF+Ymof6XpyoOodU2ZGLNl4sn2v/xyd+IU4ThIR6fzas1B0tg31PKyfXsgKA4MItzXofOrIc8oWPkavxb7PK+9vWwV19C6dK/x65HuAVctHih9PfUrQwKwLBt3+lzKa1gzt3Z6XN87VztKvrEuXofTIZ8MT59mNb6QJWbr1etjx3/updu0ZLPbqsc62eM1dh8C+VepH0Vh2Qizme0zTY/6ysD/4nlewX5Pamml4ZvUhvYRcEShaQ+/t/lPXBP0Br7u//Q/Pg7icF09a+3H5cMiQOmCNgZF0Iua36eXN2FLGhrACACFf+F2FbVBLn3Ndyy/UlciXnvxd1QAYSNQ0OHjae95MMNBVNzIgAafO1jDS1qGYG56x1wVwqF0XcWdQBSLSogNyyWZ0AYH97+zqZznrUorXBzqIEJJB6V8tw/5XlTN0UVUCCE8k3hF8muPqoOgTOEiDW28/agD9U657efc0DvU+QSyNvBEdlAlbT4450d7eUmkvJMwA58p6F27RKZT47vTw8KTgl+FdNA31vloswyl7F6exc0/WXrGI2lK4WoTVZFpAFdoaz3P6F2i6ff7Z5qPe1ck3A605eJ7FQSmxfTCA4JV8o0DMWSzPfvpIDALk46znzZYRtxQkEF2zIsrsvkPNgnyzuiGym0sEyxHhBIC0CTgdLauO1gEDzYO/7DdNLEQQsAFTEZse25LG5pADg8AU9TXKb2tYi6oIk8wgEb27P6L+QiPeWeXZj02wBLSuV4wWBlAiwPEgjJU2JrBnyufgJUXpNZAWkPGPH/ITxtraGUppZUgBQqJt+uvF05U8QLKWGKUprmN9U7oINKWJAUyAAAQjMK9Ay1HeznBb4x3l3YuOiAsEy6pbyJa0HUFIAoJlLPsewaI0ztZP/tXlo9/WZajIaCwEIQKBEgcZBuTaK+KslHobkIiBuTy8FougAIFihTeawriglc6Q9KSBX+f3miCu8Ch4QgAAEILC4gMwAyLIo9kXyuXnX4imxd46AdU/iLVtyc7YvsKHoAGCMzePlGS0rFsgHmxcWkCf36avah4cnF06CPRCAAAQgcEpgZi0QVn+OiwJPiRT505hVo+NHH1dk6uKfusbMJZ1bKLYCaU8nT+97O1b3S3svo30QgEDYAk1DfT/wlPtQ2PmmPT9ZQ+XKYttY9AyAtcVnWmzhaU8XTP03Xnj+DWlvJ9oHAQhAIBoB92Y5IxA8dh6vYgWYiv6yXlQAMNax+VLP0IXFlo90JwU0uzfRtm24nQ1vCAhAAAJlCASnAuSagLeVcWh2DyHVETx9sRiAogIARfbJxWSGNLMEnPtu81D/N2dtwa8QgAAEIFCiQGPj6k+wssMlHpbp5GT0k4oBKCoAYMajG4vBnJ1GE7199t/4HQIQgAAESheg7dsLWul3l35kdo9wzhb1uOUlA4ChtrZlwvjo7FKW1fL/aRza/f2yjsRBEIAABCBwlsDk5PHPyB0B42dtxB8LCmh5OBD39OQXTHD/jiUDgNWUe4ykDYIAvIoVYPpgsUmRDgIQgAAEFhdYv2/fhFH8mcVTYe8ZAaofmbKPPPP3/L8tGQDIPexY/Gd+u4W2Trq8+vJCO7EdAhCAAARKF3BkPlv6Udk9wrBbcuxeOgAgXjKT7BLPbTmx+kZrb+/RuXuwBQIQgAAEyhVoHdi13Sk3VO7xWTuO2S45di8aABzZvLlZzrs8KGtwlbRX7v2/tZLjcSwEIAABCMwvII9Sv2P+Pdh6roBVZstYR8eac7fP/nvRAGC64B5j5PkCsw/A74sLkHHfWzwF9kIAAhCAQDkCztB3yjkui8fI2C3ju1n0Av5FAwCZzn5sFuHKbbNv+e7m/v695R6P4yAAAQhAYGEBn/2fLLwXe84VkBnpRcfwxQMAx0U/VODcgrP4t/bop1lsN9oMAQhAoBoC5w0MHLC+2lONstJQhjyLZtExfMEAYLSra7Wv6cFpQKhWG7TjvmqVhXIgAAEIZFHAeLwzi+0up83Wd1vuW3fZgk/xXTAAIKcfffIcQjnFZvMY1tSfzZaj1RCAAASqJaBxJ0CR1MbTXq7+xILrASwYAEj+i148UGT5GUtGmJrKWI+juRCAQJUFSN1T5RKTXRzRgmP5YgHA5cludQ1q7/hYDUpFkRCAAAQyI8COsSRwSb3NC47l8wYALLcPsLUPLakMJFZyCyACALwPIAABCEQoIPelT0aYfeqytooeJmP6vLfzzxsAjHds7lHGrEqdRMQNsszTEReB7CEAAQhkW4BI7m7Dq1gBuZavYfSijZvnSz9vAMDsHj5fYmyDAAQgAAEI1FJAvsrW1bL8JJZNRs17GmDeAEAmC+ZNnMSGo84QgAAEIJAeAZnOXvIxt+lpbUgtYZp3TJ83AHDK/u+QikU2EIAABCAAgdAE5AwAAoBSNUk9bL5D5gQAQ21ty9inS+ZLjG0QgAAEIACBWgo4hxmAUv2ttT3c0zMncJoTAKzS+UuDxQNKLQDpIQABCEAAAlELEFEu6jLSlr8xJndoaqrn3HbNCQA0qYecmwh/QwACEIAABOIgQKQQAJTREc6ZOWP7nADAWZ6TqIyycAgEIAABCEAgdAFWNGcqO/RCUpgh0dyxfU4AQJoQAKSw89EkCEAAAqkQYIcZgDI60jo3Z2w/KwAIVgCUfC8rI28cAgEIQAACEIhcQGYAEACUoSxPq33QuSsCnhUAHOy4uFPyXV5G3jgEAhCAAAQgELkArgEok9iYlYcv2tQ2++izAgBNds5VgrMT43cIQAACEIBATQUYFwGW6++MO2uMPysAUE7h/v9yZXEcBCAAAQhELiDT2LhNvVxl0meN8WcHAMRn7Sy3DBwHAQhAAAIQiEJAnlWDawDKhJVHKZ81xp8VAJCis6YHyiwDh0EAAhCAAAQiEdCsEQCUK+sWOAVw/x0Am8rNF8dBAAIQgAAEohYgwzgFUC6yURfPvhPg9AzAobbNF0qeuAOgXFgcBwEIQAACkQtYy5gBKFtZrxjr6nrAqcNPBwBWu65TG/ETAhCAAAQgEEcBrfGsmkr6xSnv9Fh/OgDQik9vrCRzHAsBCEAAAhCITEAWtY8s7wxkrO2ZL/unAwAmQgCQgc5HEyEAAQgkWkDjIsBK+o9JnR7rTwcA5M5srCRzHAsBCEAAAhCISsAyLgKsxFbu9psbAFhGAFAJKo6FAAQgAIHoBQwRTgFUwOxmne4/PQOgNbdXkCcOhQAEIAABCEQuQA4zAJUga2s7Th0/EwAc6e5uUYrqT23ETwhAAAIQgEAcBazGDEBF/WLMqvG2toYgj5kAQJ4TvKGiDHEwBCAAAQhAoAoCbBmnACp0Zr1sZsyfCQB8axAAVAiKwyEAAQhAIHoBg5UAQ0C2wcJ/J2cASDECgBBIkQUEIAABCEQs4OMUQAjCZ2YAFCkEACGIIgsIQAACEIhYwCAAqFiYaFYA4E7+UXGmyAACEIAABCAQoYCPuwDC0D0TAMgtgOeHkSPygAAEIAABCEQp4CmauXYtyjLSnjezmhnzZyDZqXVpbzDaBwEIQAACKRAwFncBVNiN7LuZMf/kbYDKIgCoEBSHQwACEIBAFQSsQQBQITORPhkA8NatntKmqcL8cDgEIAABCEAgcgFLmAGoFNkabma5C1CPDNy7VsIpqjRDHA8BCEAAAhCIXEBjBqBSY6PI7O/sbNGecWsrzQzHQwACEIAABKohYOzJ9WuqUVaay8hzbp12pFrT3Ei0DQIQgAAEUiRgHK4BCKE7HXGrXASoG0PIC1lAAAIQgAAEqiCgEQCEocyuQZPmmacChZEf8oAABCAAAQhEKcAW16yF4UusG7ViwgxAGJrIAwIQgAAEIhdwjFMA4SBzg3YOMwDhYCIXCEAAAhCIXMDDKYBwjCUAUAoBQDiYyAUCEIAABKIWwG3r4QgTcaMmRWvCyQ65QAACEIAABKITCBaviS73bOXsFDVo1mpVtpqN1kIAAhCAQCIFtm5FABBSx2mmlZqcqw8pP2QDAQhAAAIQiE7g6FGsWhuSLpOq15ZoeUj5IRsIQCAhAtbaglLuuLLqiFwHNGF95yek6qhmhgWGR0exBkBI/S93U9R7RIQZgJBAkU22BKyMoNqqAik77RsqyFO1pq2vClqradKu4BRPGzYFP/hJJAOumnbOFQzpaSYusNOSjqflruYCsZtmRwU5JTcti3MUmHlaznfKdjXNmgs6+MmyXfKS/AtO9muWPNibdiYoh2WbmjYmKDcoxyt4Tk3bvCvUOTft+37hxPT09Pnnn1+g7duDusx5SXmkenpyB5XK54/q3JQ5lveMyRmt84UC5aQNeav9nPZVXp4mlpNVROUn5ZxTeZlKzMlXs7yTNORUjmQfK5KfLu9c8DNIq3KyLa/Y5eQR5Hk2nDNO5+XZ5Dml5TjJwzrKa3Z5eUxJTiooeXHOZ5WXduXknGVe25Pb5XEwOaNc3reco6COeJ7JnP5M4wbP9+WdlE9j06reJsO03NPKyQwATqtUXR8FLi7AfIws9cs01bSTAU/LIOuYpuUhFoVgm6xfUVAy4MkdwTODpAwUBRk0puXK1oKVwZSUlu0yuOrgpwyeKhgsZXCVAVYGVxm0ZRBmJQPuqYE0yMvcP9DKID2Tt5O8eDrn8gVfBtO6OlsoyGA6MTlZuGDvXilDvj8n7bVv34I1lvaw2rFjWhIE/yXqFTzV9N6+vvyyZctyOQlYJqdMzjOU97UEJ0HQIsGEleBBrnrOy6xnTqY+86StBBUng5ggIAmCGZKgQgKbHEkgcjJgmdmel29Lsk1+15xj0hLESDATpJEgJth+MoiRnzMBkcsbCVwkMJPAyORk4Zr8MnkLJQo0ppU1Ek3GtGqJq5Z89tV7yup6hUmVxHVe2ivcNLj7Dmlj8B9eEFhSgLZtCwZYDLJLSiU7gdcoi9edmHcCK9kNq0HtfUv12im7rAZlo0gIQAACEIBASQIUnALAKxQBT9EyzcZ4oeSGTCAAAQhAAAIRCmhrEQCE5OsbJ2sqWrmcBi8IQAACEIBAzAXM9HKMVyH1kVwHZbQyWFc5JE9kAwEIQAACEQroerkeGK9QBOQuGk+zJURUoXAiEwhAAAIQiFQAdwGEyCszAHi0YoieyAoCEIAABCITmJB7OSPLPGMZy2JgcgoAj1bMWLejuRCAAASSKSBL1+MiwLC6Tm4AQDQVFibygQAEIACBSAWI6xEAhCisle+St5pZiADICgIQgAAEkiEgS2YjAAirq6z1taw7jgAgLFDkAwEIQAAC0QngFEBotsYYK0tVy0rVeEEAAhCAAARiLkDL5UkgeIUk4OSKSotTACFpIhsIQAACEIhQABcBhodrlfa1lWmA8LJEThCAAAQgAIGIBBgzAGHJspIZgOB55mFliHwgAAEIQAACUQnII75xCiAkXM/KDIBoToWUH7KBAAQgAAEIRCZAXIcAICRdX/GkPAvATYSUH7KBAAQgAAEIRCeAGYDQbD3DE7IQkEYAEBopMoIABCAAgagEcAogPFlyNKEt84nwskROEIAABCAAgYgE6nANQFiylt2EPAsYpwDCAkU+EIAABCAQoQAWAgoNVxtzQjMZzACERoqMIAABCEAAAvEXIFYTmpw6Gv+qooYQgAAEIAABCIQl4IiPaVZ8OKwMkQ8EIAABCEAgKoFp3AUQGq1WfEjuAqBDoeWIjCAAAQhAAAIQiL2AxFLjWhsaj31NUUEIQAACEIAA57EQUGjvAgpmABgzAKGBIiMIQAACEIBAAgRIZgDY4RRAAroKVYQABCAAAQiEJiAPAwpmABxOAYRGiowgAAEIQAAC8Rdg0nINAKuD8a8qaggBCEAAAlkXIIWVAMN6DxilD2qfvf1hZYh8IAABCEAAAhCIv8C0mj6gW9rXHbRyJWD8q4saQgACEIBApgWwDkAo3W8V23UDAyOatm3zydrRUHJFJhCAAAQgAIGIBPA0wHBgjVIjcj+lk4sA5UUGpwHCcUUuEIAABCAAgVgLsM8HggrOBABaOQQAse4uVA4CEIAABCAQjgB5embMnwkAWNO94WSLXCAAAQhAAAIQiLMAkZoZ80+eAnC0J86VRd0gAAEIQAACEAhNYGbMP3kKQCsEAKG5IiMIQAACEIBAnAX47qB2J2cA2CEAiHNfoW4QgAAEIACBsAT45Kz/TABA9/8RVt7IBwIQgAAEIACBuAroM6cAzDKDGYC49hPqBQEIQAACEAhVYPrMKYDVu3bJQkDueKj5IzMIQAACEIAABOIlYNWRpsHBw0GlTl4DIL+wrwbjVUvUBgIQgAAEIACBUAXMmbH+dACgPTUQaiHIDAIQgAAEIACBmAlw/6kKnQ4AmMzpjad24icEIAABCEAAAukRYEenx/rTAQApd3pjepqKlkAAAhCAAAQgcEqAaJ4AwPGZjacS4icEIAABCEAAAukRcIZOn+4/PQNgGKcA0tPFaAkEIAABCEBgroBW/unZ/tMBQMPQTlkLgCfmJscWCEAAAhCAAAQSL2Dtsab+/ntOteN0AECyEAA5tevUDvyEAAQgAAEIQCBFAkbtlLGeT7XodAAQbHCa/nBqB35CAAIQgAAEIJAiATZnjfFnBQDyx44UNRVNgQAEIAABCEDgfgHSfNYYf1YAYBkzAHinQAACEIAABFIpwGrhGYCcsWdFB6kEQKMgAAEIQAACGRQgZ84a48+aAVjT3z+EhwKV/64gzp3lWX5OOBICEIAABM4VIM+Zc7fh7yIF5A6AhuFdd81OfdaAFdwJwE7/ZnYC/F68gCHKF58aKSEAAQhAoBQBp1RdKemR9oyAXOT/m9l3AAR7zgoAZjZo9+szh+C3UgRY8epS0iMtBCAAAQiUIuDhM7YUrllpjdZzxvY5AQCzmZNoVh74dREB57hlkd3YBQEIQAACFQhoy2srODzThzLTnLF9TgDgjJ2TKNNqJTTeEF9QQnIkhQAEIACBUgSIH1BKcqQ9I6D13LF9TgDQUlf3e2tt4cxh+K1YAatcZ7FpkQ4CEIAABEoTkKfW4jO2NLKZ1MGY3lBXd9YdAMGOOQEA7dgxbczZtwqUUV42D3Hq4mw2HK2GAAQgUA0BfUk1SklbGVqb3wdj+7ntmhMAzCRg9fNzE+LvpQW01g9ZOhVSQAACEIBAqQKygD35SuEztlQ4SU9E847p8wcAxD8towwcotR5422b2wABAQhAAALhCoy0b+qWRQAaws01G7kxuXnH9PkDAM0/ywZL+K102j4+/FyRIwQgAIFsCxhy+Gwt9y1gqfgAQJ4XvNMqdbjcsjJ9HNFTMt1+NB4CEIBAFAJMT44i27TnKWP5ePNwX+987Zx3BiBYLUimWn4x3wHYtoSAb58y1Na2bIlU2A0BCEAAAkUKHOjpWcmknlhkciSbJaCJf37uCoCnds8bAMzsZP7JqUT4WYKAMStXU93TSjgCSSEAAQhAYBEBPVF4luxevkgS7FpAgHj+6f8g+cIBgOIfLpAfNi8lQO6vl0qC/RCAAAQgUJwAkXppcSmR6lwBuXtiwbF8wQDA1tf92PpO7rrAq1QBq+iKkYs2XlzqcUgPAQhAAAJnC4y3bXywbHnM2VvxVzECwQJA05PHfrxQ2gUDgLU7dhwznv7VQgdi+8ICcv0EaU3/Z+EU2AMBCEAAAsUI+Ib+rph0SDNXwHhm+/p9+ybm7jm5ZcEAYGY30fcXOhDbFxfwiV+IWYDFjbAXAhCAwGICwbd/ZvXcxdJg38ICYnfnwnsXvQZAvsayW/TgxTLO+j6jyDDxDVl3QPshAAEIlCvAmt4rM6qLf1EtN/MMHKepkgDAFX4o9xC6DDhF0kRZGvgpox0bnxNJ5sgUAhCAQIoFxjo2vVAuYHt8ipsYadOsYisrAP5osUIWjawah4cPGetwHcBigkvts/Sh/e3t65ZKhv0QgAAEIHBS4OCGTesLyt4Ij/IFZBZ6e3N//5HFclg0AAgOJKO/tVgG2LeEgFFrPcp9ViLZJa2XyAm7IQABCKReQD4rjcnx5zylm1Lf2AgbKA8AWnLsXnJQskVkEmEb0pL1FWOdm96dlsagHRCAAASiEhhv734fpv4r1yXnvrlULksGAC3LPDmH4I4vlRH2LyHA/DcjnRtfs0Qq7IYABCCQWYHR9o1/I0v+4nOy0neAtccamlYvuZrvkgEA7dgx7Zz6fqX1wfESRjF9YKxz48thAQEIQAACZwvIF6Rr5cH17zl7K/4qS0CbO2n79sJSxy4ZAAQZyNXsS55LWKog7JcTW8GdlUwfGenoxsIWeENAAAIQuF9gtKP7LbJm/QcAEo4Aa15y+j8oqagAgJ36WjjVQi6BgDyZ6V2j7d2f2nPBBXi4Bd4SEIBAZgXuW3fZitG27s8LwNszixBBw9npbxSTrYxFxb3GLureLc8I7iouNVIVI8C++532vBc2De76XTHpkQYCEIBAWgSCVf6con+Tr6GXpKVNsWiHz7ub797dXUxdipoBCDJiw/9VTIZIU7wAefrSgi38Uqa/3j7U1ras+COREgIQgEAyBYKZT7kr6v8rsPs5Bv8I+tCjO4rNtfgAQBWfabGFI51SnjF5cXjLSp3fNdLZ/aLgHli4QAACEEibAG/d6o12bPqrelPfx8xvNnK3f9raGIf2MBU/Vhd9CoC3bMmNjRwalSUaVsWhkWmtA1nVLyHA+/zluc8ET2RMazvRLghAIBsCo11dq+Xi5xfLoH+dVro9G62uTStl6f7DrY2rWou5AyCoYdEBQJBYorevyMkArG0fYET9kvs4Jdj6itwW86WmZd53g9sxoy4S+UMAAhAIQ4C7uurGnX6CYvWn8lA0eZof1YeRL/JYQoDULc0DfVctker07pICgLH2TX8mnfnZ00fjl+oISDDARn9PbpO5Uzrs59MTy3513v7fYnGm6uijFAhAYAmBAz09K3MT0/+LtXq4rHfyWFLu8XKT2YolDsPukAVI0Z81Dfb+W7HZlhYAdHSsKVg6cP9562LLQLqQBWSaRxbLcsOk9A55VuPvleFesrxLK39X8ACnkItDdhCAAARmBA5deGmjzZ/YrBxtZkWbZGOPUvaBTpmLgnVOwFQ7Ad/a6ZzhtU2Dg4eLrUXJHXawreu/g8fcFlsA0lVXwFk7wlrv9hTtlihhkFkNak2D1teDLXftvE86XK4zxAsCEIDAXAH5cKCRDZvOl4fxdDhSHcTyn/yU7RuttRuNNs1zj8KWWAg49d/Nw31PLaUuXimJg7SazK0yhiAAKBWuSum1MS1SVIv8g31EUKT841Vy8Y3SxqrRi7qnxpTaI+s5DMu6xHukM/fIXMLdEsHvkQsP79G+fw9mEKrUUSgGAjUQCL7Bu5z/AHlS/AMUuQ3y6XChfEhskEfHb2A2bQfkp2c4H3xLkMF/5iUfHzMvGfxP/oL/j6eAZrlGr7RXyTMAR7q7WyZ9vk+eNYx3Q2nWCUk98+Cne5jMvXJaYZ/T7l7NdK+cbriPldsvP/dPa/++dQMDI/LmcQlpFKoJgdQKyPhsDrS3t+RUfh0re56E++tI8ToZ2NdLo8+X/9Yrn89XnnqADOu4GC+F7wTrO7/O1a1bs3eHfMcr/lVyABBkPdrW9R15QMAfFV8MUqZNQK5DcFomFeQ0wwGj1QHL7oAhNSIfPgflG4MEB3RQLhgdNfK7M270iO+PtA8PT6bNAe2BQNgCwUI59XV1LdrqZqupWS7+bWbFrTKb1yrX/rRY0q3G8Vq5tW6tY7uWjWmSb2NFr+kSdn2RXywEvt082HdFqTUp+RRAUAAZ/SX5kEcAUKp2itLPfOCY4ANJtco3kB5N+vTFBcFph+BSg+CHnEcMQgW1WuflNtKNE7JhnJ0bUzkzJjMMY0rzuHxTkW08LnmMybzjuBxxmMkFFzMedlPmUMEePbR+374J+RsvCCRCIFjj3lsz2SDPZF+j2GuQgVt+coN8ejY65kbS1Ch/N8q/h0YZuput5SbjuSZZcrVRGrg8+Mck/2xOXlUnc/Ez/6RkhwTY8k9Gfgb/yOR/GuuGJeL9EHklWX25nDJOva9KOvbwBT1Nk2byXtwNUBIbElcgEExxsaeOyGfiYfkIlACBDssH6FFy6qh8EB6V6xmOBH9LEUflU/KYxCPyU/azOuprc5ysO06eOybXORxraGs7Rtu2+RVUB4emTCBYpe7w4OgqucJ9Bft6pdx2u8JzdoXMcK2SAHWVPBBNfsp/Sq2Un6vl5NcqeZ+tktveZvbLYz7XOBnk5ZzYGvLVauPpsr5cpYwVzamCQHD1fx3Xn9dw9++CL08lvcoKAIISRjo2flWmeZ9WUmlIDIGYCMgVzQVZaOm4ceq4XBA5oTw6bplPGOUmmPSEXDg5Idc+TLCmE/Jl64SkOSFBx4S850/It7lJmdmY1Iom5QN/kqw+4Tw1JcHFpHzsT9kCTXpKT/p1PF3n3LSs4DQlp0Cm24aHp+QfnHx/w2shAcGh4ba2utWel5c1suumtM7LSFpnnVsmwV+deC9zyqvTvqpj45bLNvmbl8m34mXy7XiZ9Fu9nP9eLgHhcpmlXE6OlztDK2SAXk7s6q3S9YZouZwTX6FyboVlU6+sXYFlaRfqEWyPuwARf7VpYPczyqln2QHAWGf38+Uf2BfKKRTHQCCrAsFMhnw7LMg1FNNyDcW0BBfTcqGlXFcp3xs1FeTCCt+wKcg3y4JzTk73Gp+c78t91gVJ68tAJ3GKsjLzayWUsHJuWE4TyzAXbFNyckVGOc1GLslwTvKT+EW+q8oIKddjzPwMtgX28ofsCyaT5Xd2MmEiKU/+Idd5yndeiYKCny6Yc5aVXUju/XVkjQRFwcS0FKnkNHSQvVwMLL8HNZrZFvxOnJOpb4/lUZfsrCeHGpmpyVmyOe2MJ/nlZK8nValj3+ScUXk5pZQXmxy+Oc/0Av4PAsULkHq+rP73peIPOJOy7ABg3/r19XW55fvlW9TKM9nhNwhAAAIQgAAEqiJg7dEJO7Vuw969J8opT6L58l7BRVly9elt5R2NoyAAAQhAAAIQqESAPHNbuYN/UG7ZAUBwsJxX+0zwEy8IQAACEIAABKorIHdPfbaSEss+BRAUKicQ9cELu4flrJ6sKIUXBCAAAQhAAALVEPAt3732rt3tMoiXvSBbZTMAUrAx/OlqNBZlQAACEIAABCBwUsDT6tOVDP5BLhUFAEEGJkefDC4/Dn7HCwIQgAAEIACBaAWCMdc4/clKS6k4AGjo6xuUe4K+X2lFcDwEIAABCEAAAksLeMx3NtzVO7R0ysVTVBwAnMye/3XxYrAXAhCAAEaGerAAABshSURBVAQgAIEwBJyiUMbcUAKAE1MTt8iURMnLEIYBgTwgAAEIQAACWREIxtoThYmSH/07n08oAUBwH6IsC4aLAecTxjYIQAACEIBASALBWFvJvf+zqxFKABBkKIuJfmR2xvgdAhCAAAQgAIFwBcIca0MLAFqHenvlloTvhdtU5AYBCEAAAhCAQCAQjLHBWBuWRmgBQFAheeLIh8OqGPKBAAQgAAEIQOCMQNhjbKgBQFPTSnk2gL33THXxGwQgAAEIQAACIQjcd3KMDSGn+7MINQCg7dsLijzMAoTXP8gJAhCAAAQgEAh8eGaMDdEi1AAgqFeebHAx4GSIdURWEIAABCAAgSwLTOa1C/3LdegBwKr+/oNyNcDns9xTaDsEIAABCEAgPAH+/MmxNbwcg5xCDwCCTEmZ9wc/8YIABCAAAQhAoDIBIu99leUw/9GRBABNg7t+p5z77vxFYisEIAABCEAAAkUJsP1O08DO3xeVtsREkQQAQR1I6xtKrAuSQwACEIAABCAwS4DIvHfWn6H+KusKRPOS5wPT6IVdvyFPXxpNCcgVAhCAAAQgkF4B9t3vWu7uvyyqFkY3AyBXAmpj/jmqiiNfCEAAAhCAQJoFtGfeHWX7IgsAgko3XnT+F51Sd0XZAOQNAQhAAAIQSJsAKzvceOH5X4qyXZEGALRtm0/EkZ2/iBIGeUMAAhCAAARqJsDmhmAMjbL8SAOAoOLTJ45/3Fk7EmUjkDcEIAABCEAgLQJs1cEThYlPRN2eyAOA9fv2TZA2kdzDGDUO8ocABCAAAQhUXcCo923Yu/dE1OVGHgAEDeA83eQrNxZ1Y5A/BCAAAQhAIMkC1tlRztEHq9GGqgQArb29Rw0RZgGq0aMoAwIQgAAEEiug5b7/YMysRgOqEgAEDZGLAW+0So1Xo1EoAwIQgAAEIJA0gWCmPJgxr1a9qxYANPf3HzFK4RkB1epZlAMBCEAAAokSMExV+/YfwFQtAAgKI+V/ALMAgQReEIAABCAAgTMCwbd/Mly1b/9ByVUNAJoGBw97iiJd2egMJ36DAAQgAAEIJEMgR/RPwUx5NWtb1QAgaNjx6eM3KmXvrWYjURYEIAABCEAgtgJk9x2fOlGVK/9nG1Q9AAjubSTlvXN2JfA7BCAAAQhAIKsCpPQ7qnHf/7m+VQ8Aggo0Nq78uGI1eG5l8DcEIAABCEAgSwJkVX/jhgdEvurffKY1CQBo+/YCEb1lvgphGwQgAAEIQCAzAobfGvWa/wtZ0kI7ot7OclPAaHv3diL1kKjLQv4QgAAEIACBuAmQ4181Du9+qAzEMiRW/1WTGYCgmUGDWdMbqt9klAgBCEAAAhCovYD1zBtqNfgHra9ZABAU3jrQ+z1WfHvwO14QgAAEIACBrAjI6rhfbe3fta2W7a1pABA0XKYB3mh9F+kzj2sJjLIhAAEIQAACswWstQXL5o2zt9Xi95oHAK1Dvb3a0x+rReNRJgQgAAEIQKDaAp42H2kd3NVX7XLPLa/mAUBQobyn3ipLBB86t3L4GwIQgAAEIJAmgWA5fK9Ovz0ObYpFALC6r29EE+O2wDi8I1AHCEAAAhCITECz+ofVu3aNRlZACRnLBYjxeMk9EGb0wq5fk6cvjUeNUAsIQAACEIBAeAJOqd+0DPZtkYFXJgJq/4rFDEDAEIAYQ6+uPQlqAAEIQAACEAhfwCj16rgM/kHrYhMABJVpHNr9ffnxxeB3vCAAAQhAAAJpEZBb3v+tabDvh3FqT6wCgACGPfU3ytpjcUJCXSAAAQhAAAJlC8iYxgX9prKPj+jA2AUALX199yhjcEFgRB2ObCEAAQhAoMoCxvuH1j29+6pc6pLFxeYiwNk1nbkgsL37F3hOwGwV/A4BCEAAAkkTIFbbG4f6Hh6nc/+nDGM3AxBULIBiopfJZZJy0SReEIAABCAAgeQJWMXWGveyOA7+gWYsA4CgYq2Dvb/0WN0c/I4XBCAAAQhAIGkCxqmbWvv7fxXXesc2AAjAbJ7eLHMA98QVD/WCAAQgAAEIzCdgfbXHrsj/w3z74rIt1gFAa2/vUSJ3TVywUA8IQAACEIBAMQKex9es3bEj1ne0xToACJCbhvpvZ0efLwYcaSAAAQhAAAK1FpAL2T/XNLj7v2pdj6XKj30AEDQgv4yulRUC9i/VGOyHAAQgAAEI1Fjgvtx07rU1rkNRxSciAJh5cAJrLBNcVJciEQQgAAEI1EqASb1yzd4dY7Uqv5RyExEABA1qHur9itwgeGspjUNaCEAAAhCAQNUESN3SMtD3H1Urr8KCEhMABO3Ma3uNPEPpQIVtxuEQgAAEIACBcAVkbMqTe1W4mUabW6ICgFX9/QedppdGS4LcIQABCEAAAqUJkHZ/HYxRpR1V29SJCgACqtah3q/Kj0/Ulg2lQwACEIAABE4KOHIfD+5YS5pH4gKAANjl6HVOuaGkYaO+EIAABCCQLgF2aoCX1b0uia1KZAAQLBBklH4RnhWQxLcc6gwBCEAgHQLBWv9k9IvivuDPQtqJDACCxjQN9v3QI/rHhRqG7RCAAAQgAIEoBQyrdzUP7PpxlGVEmXdiA4AApXHD+W+zzD+JEgh5QwACEIAABM4VcNb+sGlo99vP3Z6kvxMdANC2bX5OeS+QUwGHk4SOukIAAhCAQHIFZMwZN4ZfGNfH/BYrm+gAIGhk49DOuwzj1sBiOxzpIAABCECgMgFN6iVNg4N3V5ZL7Y9OfAAQEMoqgbcEt2HUnhM1gAAEIACBNAuw4w8nabW/xfoiFQFA0MDJqclrnbK/Xayx2AcBCEAAAhAoV8Ap9ZujqvD6co+P23FyCiM9rwMdF2801v5SGbU6Pa1CSyAAAQhAoNYCwbVmee22NPT3D9S6LmGVn5oZgABk7eDO3UrTS8LCQT4QgAAEIACBQEDO+784TYP/TJvS1rUnnxrIH0hbu9AeCEAAAhCokQDR9XLe/7YalR5ZsamaATil1NS4+o1YH+CUBn5CAAIQgEAFAj9o2nD+31VwfGwPTdU1ALOVR7q7H0C++qVsO2/2dvwOAQhAAAIQKEqA7D5rl21ZO7zjvqLSJyxRKmcAgj5o6eu7R5F+jm/tdML6BNWFAAQgAIEaC7BVU2z1s9M6+Ae8qQ0AgsYFazR72rw6+B0vCEAAAhCAQLECZPialuHdPys2fRLTpToACDqkeajvX5Sijyaxc1BnCEAAAhCovgApd3Pz4O5PVr/k6paY+gAg4GxqXPma4MEN1aVFaRCAAAQgkECB7zdeeMF1Cax3yVVO7UWA50oc7epqnXTqZ1rp9nP34W8IQAACEIAAOzWQz6vLV/f1jWRBIxMzAEFHrurvP6i1ulJZdSQLHYs2QgACEIBA8QKy0t8hSX1lVgb/QCYzAUDQ2Ob+/j/InQFXWSXXd+IFAQhAAAIQEAHrO18Gw+e2DPftyhJIpgKAoGObh3d9QzNl4vxOlt7IaCsEIACBcgW8HL26ZbDvO+Uen9TjMhcABB3VMtT3QcV0Y1I7DfWGAAQgAIFwBJxy720a2J3JO8UycxHguW8VltMfY23dt8hJkGefuw9/QwACEIBA+gUcqS/LGv/Pl4FQhoTsvTI5AxB0s3S4O6KmX4jbA7P3pkeLIQABCDDRnS3kXpTVwT94B2R2BuDU2//wBT1Nfn7qRzIhsPnUNvyEAAQgAIH0Cjindnhq+tGNw8PBlf+ZfWV2BuBUj6/Zu2NMc+7Jch3ovae24ScEIAABCKRUwKl7tLFPyfrgH/Ru5gOAAKFxaOddxN6T778PNNiEFwQgAAEIpExAPuPHyZgnNw8M7ElZ08pqDgKA+9mahnp/a0g/Va4FmShLEgdBAAIQgECMBdxx49yfNA3s/H2MK1nVqiEAmMUdPD1QOfNsPEJ4Fgp+hQAEIJBwgeAznZV+ZvNw/08T3pRQq48A4BzOYKEgT3t/LlNF7pxd+BMCEIAABBImEKz86hl9tSz08+2EVT3y6iIAmIe4eaj3y4bVK+bZhU0QgAAEIJAQAfkix0bpl8mjfW9NSJWrWk0EAAtwNw/1/QsTX7vAbmyGAAQgAIGYC3hKvbp5sPdfY17NmlUPAcAi9C0Du2+S3W9YJAl2QQACEIBALAXodU2DfR+KZdViUikEAEt0RPNg33tljcj/u0Qy7IYABCAAgZgIEPGb5Jv/+2NSndhWAwFAEV0jF4/8oyR7WxFJkQQCEIAABGoowMx/Lw/3eU8Nq5CYohEAFNlVMhPwdkn61iKTIxkEIAABCFRZQK7b+oeWod3/r8rFJra4zD8LoNSeG+no/jtBe1epxyE9BCAAAQhEJxBM++Obf2m+CABK85pJPdre/QZ5jNL1ZRyKQyAAAQhAIHQBuk7O+X8g9GxTniECgDI7eKRz47XEhDdcmX44DAIQgEClAsF9/p7iVzYN7v5IpXll8XgEABX0+lhn98t8Vh82eKhSBYo4FAIQgEDpAsEKf/LZ+1JZ5OeTpR+NIwIBBAAVvg9G2zddZZ3/OWNMrsKscDgEIAABCBQhwFZNKU+9oGWg7z+KSI4kCwggAFgAppTNo52bnqzYyVKTVF/KcUgLAQhAAAIlClh7jI15ptye/Z0Sj0TycwQQAJwDUu6fYx3dj/aVukOmpNaUmweOgwAEIACBhQV85cYM66e0DPX9fOFU2FOsAAKAYqWKSDfe3v0gR/ZrSpnzi0iOJBCAAAQgUKyAVXtVzj25ub9/R7GHIN3iAlgIaHGfkvY2DvX9RnP+EfIk4V0lHYjEEIAABCCwoIC1/HsZ/B+BwX9BorJ2YAagLLbFDzp8QU9TwSvcTlo9cvGU2AsBCEAAAosJEPM2RfaZTYODhxdLh32lC2AGoHSzJY9Ys3fH2Al/4o9JuduWTIwEEIAABCCwkMAXG+vzT8LgvxBPZdsxA1CZ36JHy1MEtVwX8H4m9ZpFE2InBCAAAQicLcD0nqah3r+VQUo+SvGKQgABQBSq5+Q50t79akf8fqNIbhLACwIQgAAEFhKw1haMNq9sHur7+EJpsD0cAQQA4TgumcvMWgE+f0kZtXrJxEgAAQhAIIMCsrTvuCZ6bstA73cz2PyqNxkBQBXJR7u6etjxHaRMWxWLRVEQgAAEYi9AVvVbTVe2DvX2xr6yKakgLgKsYkcGt7D4pB7u2P2oisWiKAhAAAKxFgiu9Dc293AM/tXtJgQA1fVW5w0MHGhpWvN4WTb4o1UuGsVBAAIQiJ8A042NFz3giuDuqfhVLt01wimAGvbvWOfGl/u+uwkPEqphJ6BoCECgVgKTcofUK+SBPp+uVQWyXi4CgBq/A8Y6Nz2Kmb8i1TivxlVB8RCAAASqIyDL+rJRz5YH+vyiOgWilPkEcApgPpUqbmsa6P0Re+qhlvknVSwWRUEAAhCoiQAT3enrwkMx+NeE/6xCMQNwFkft/uAtW3Jj40feI9cGvLZ2tUDJEIAABKIRkFv8WL5x/nPzYN+bZeCRP/GqtQACgFr3wDnlj7Zvep5y/ieUMavO2YU/IQABCCRSQEb7Qx67FzUN9d+eyAaktNIIAGLYsQfbN21i575iDD0whtVDlSAAAQgULUCstmtHz2u4q3eo6IOQsCoCuAagKsylFRLcC+sXjj/ckcNSmKXRITUEIBAjAXkg2s2Nxj0Kg3+MOmVWVTADMAsjjr/KKYGrLPHH5CECa+JYP9QJAhCAwLkC1tlRIu+v5MvMV8/dh7/jI4AAID59sWBNDl20qd16/Hl5JtblCybCDghAAAIxEAiu8leGX9jS13dPDKqDKiwigFMAi+DEZVcwfda0Yf1j2Kl/kotpXFzqhXpAAAIQOCVgfecrorc0D/T+EQb/Uyrx/okZgHj3z5zajbV3P8aR/QweKDSHBhsgAIFaCfi8W+7x+/OW4d0/q1UVUG7pApgBKN2spkc0DfX9gHPeZcrxJ2taERQOAQhAQATkCacfnvKPPxiDf/LeDpgBSF6fna7xSGf3M5WvPkZGtZ7eiF8gAAEIVEXA3ktkXtI00Pe1qhSHQkIXwAxA6KTVy1AeonGb71lZK4BurV6pKAkCEMi8gFNfyOVzl2LwT/Y7ATMAye6/07UPVhCUqbibMRtwmgS/QAACYQuQ3eecdw1u7wsbtjb5IQCojXskpR7p7m4p+Oomyfz5kRSATCEAgewKyHVHWhVe3zg8fCi7COlqOQKAdPXnTGuCawNI2ZsVm/UpbB6aBAEIVFFA7ju+Szv98ubhXd+oYrEoqgoCuAagCsjVLiK4NkDux704WIYT6wZUWx/lQSAdAvff13+9Pb6sB4N/Ovr03FZgBuBckZT9PdLe/TAm9TGJ9B6UsqahORCAQHQCP9OsXt441Peb6IpAzrUWQABQ6x6oQvm8das3dte+1ypyb1dKr6hCkSgCAhBIooBVR2RBn//bPNT3YRkcsOpoEvuwhDojACgBK+lJR7u6LnBWXa9J/2nS24L6QwAC4QnIqUL2WH3W59zfrh3ecV94OSOnOAsgAIhz70RUt4Ndm7dywd5kDMkaAnhBAAJZFiDHv5LR/9XN/f0/ybJDFtuOACCLvS5tnjktcPe9r7KK345HDWf0TYBmZ1rAWTtiPPPmxoG+j2O6P5tvBQQA2ez3060+2tXVOuX025zvXmY87Z3egV8gAIFUCvjWTnvG3Gz8unc23P278VQ2Eo0qSgABQFFM6U80ctHGi0nTexSpp6a/tWghBLIqQLcabf+2ob9/IKsCaPcZAQQAZyzwmwiMdHQ/gZW6AbcN4u0AgVQJ/Fw+7N/QNNj3w1S1Co2pSAABQEV86TxYAgA93r7pakv2HVrp9nS2Eq2CQBYEXJ+sCPoPTUO9t8iHvfzTxgsCZwSwEuAZC/x2v4B8UDj5wPhcS+OaTczq1bIZtwXh3QGBJAlYtVeG+5c2XXhBT/NQ75cx+Cep86pXV3lf4AWBxQX2rV9fn1+28rWyKsib5I6BhsVTYy8EIFArgeDKfm3Mu5q0+xD190/Vqh4oNxkCCACS0U+xqOVYR8caVt51smjIdQgEYtElqAQEZgRmbukz5gZ/ee6Da3fsOAYWCBQjgACgGCWkOUtgJhCg3LWW+XUSCDSetRN/QAACVRNgqw5qj66fPlZ383n7f3u8agWjoFQIIABIRTfWphGytPBqZrrWWXed0aa5NrVAqRDIogDvl3P81xcmln8YA38W+z+cNiMACMcx07nct+6yFbkVU3/tW/d6z9CFmcZA4yEQoQA7NaA1X3/YFT7VPjw8GWFRyDoDAggAMtDJ1Woib9mSGz109AUyLfkmrVVPtcpFORBIu4DcjfNr0urdTQN9X5EPbbkMBy8IVC6AAKByQ+RwjoDcbEzjHRtlRUF6vfz++HN2408IQKAIgeAJfZr4m/Kwnvc2D/V/s4hDkAQCJQkgACiJC4lLFRhv736QI3WdzAq8gIyqK/V4pIdABgVOyPn9z7Lj97fctXtnBtuPJldJAAFAlaCzXsz+9vZ1HuWukS81r5CZgXVZ90D7ITBHwKl7WKub83n9sdW7do3O2Y8NEAhZAAFAyKDIbnGB4DqBsUNHn82KriHmxy2eGnshkG6BYJpfbqX9Niv+SPOFD/gqbdvmp7vFaF2cBBAAxKk3MlaXk08g1K+wxH8hH4JrMtZ8NDfDAjMr9nnep6zyP7p2YKA/wxRoeg0FEADUEB9FnxSYWWp4+YqriOkvZctj4QKBNArIt30nge53SfEnGzXfiqV609jLyWoTAoBk9Vfqa3ugs7PLU96L2ee/UEZdkPoGo4HpF2A1qDR9irjw6abBwbvT32C0MCkCCACS0lMZq6fcPqjH2jZfwdr+uXxjeqb8uSJjBGhuggXk2/5h+bb/H07rT7f077pTPmjlLY0XBOIlgAAgXv2B2swjEJwiWLZsxTOcoqvl3OmTjDG5eZJhEwRqLTCpnPpv1vxvzZr/C1P8te4OlL+UAAKApYSwP1YCRzZvbvan7fPkHunnWU2PM0pWF8ALAjUSsNYWSJvvyII9XyZl/12m+A/XqCooFgIlCyAAKJkMB8RF4Eh3d0uhQDIzwM9lZ5+AmYG49Ezq6zFJrL7hlLrV8PTtjcPDh1LfYjQwlQIIAFLZrdlr1HhbW4Ol/NOI+OnKuicpY1ZlTwEtjkpAzumPG6e+Lhem/qddlvuvtTt2HIuqLOQLgWoJIAColjTKqZoA9/TkR08UHisXD16pmJ6mSHVUrXAUlCIBt0uW6bldK3dHw9DuH8mHpcQBeEEgPQIIANLTl2jJAgIzCw4Z/STn7BO1XDcgSxHXL5AUm7MsYNUReeLe92Rq/1uecV9v6O8fyDIH2p5+AQQA6e9jtHCWQDA7MDJlH2nYXcFsr7DKbJGrCPWsJPg1IwJWySOqWP3cEH2LiL7ZuOH8n2Ep3ox0Ppo5I4AAAG+ETAuMdXTIEsTm0fKtT04Z0OOs77YYT3uZRklp431rp2UG6BdG6zvZ6u/bFeZHOJef0s5Gs4oSQABQFBMSZUXgvnWXrcjVn3ikInq0rN1yuVX0MJkhaMhK+9PUTl+5Me3Uz7TWP3VEP5icOv7TDXv3nkhTG9EWCFQigACgEj0cm3oBWb6NRi/auFlWG7hcLii8XC4ofJjc+92DWw7j1fXBt/sc6d/LTM7PlKGfMuuftg7u6otXLVEbCMRLAAFAvPoDtUmAQHAdwaGpqR7nzEPktsOHWOceoh0/SG49XJmA6ie/itYeFev/kYDs16zdr42jXzc0rfoDbd9eSH7j0AIIVE8AAUD1rFFSigWCmYLDF21qc8b1KNKXKMc97Nwlct/4xXiOQZkdf3Kg/4NY/kFmXv5AmnaQM39oGNp5t3xwYW39MllxGAROCSAAOCWBnxCIQCAIDMa6uh7glNelretiUl1ysWGXrF4of9uOrC9YFDw0x3M8wIYGZHW9flbUr9n1+77ub93Tuy+CLkGWEIDA/QIIAPBWgEANBYIVDFkv2yBrzFwo1dggFx/K72oDszqffbeOSK+zRrUk7VbF4BY7qfOIU26/Vma/DO73yiNx98gX9+BxuHuY3MzP5v7+IzXkR9EQyLQAAoBMdz8anwQBmUXQ+zs7W/KcW+eIWxW7BmLdKIOp3J3ADXIdQqM8KbFBM62UGYZ6x67eMC2Xp9LV+5bqPUXLfOM8UtoY5eQWR23kQkYjsw8nb3e01peLGq2Sn1Z+snLWs9r3FU96hifI0YRlN6GNniCmE1KHY5poXB7IJGvg08x/MqCPM+lxo/TBHP3/+/2S586dt8DCBbgmbxSMhsBoCAzWEAAArpJuXvr/YLQAAAAASUVORK5CYII=;" vertex="1" parent="1">
          <mxGeometry x="70" y="290" width="40" height="40" as="geometry" />
        </mxCell>
        <mxCell id="MWtXkFUQYbGvttKdn1CM-20" value="Couchbase Cluster" style="text;html=1;strokeColor=none;fillColor=none;align=center;verticalAlign=middle;whiteSpace=wrap;rounded=0;fontSize=15;" vertex="1" parent="1">
          <mxGeometry x="10" y="200" width="205" height="20" as="geometry" />
        </mxCell>
        <mxCell id="MWtXkFUQYbGvttKdn1CM-21" value="Node 1" style="text;html=1;strokeColor=none;fillColor=none;align=center;verticalAlign=middle;whiteSpace=wrap;rounded=0;fontSize=15;" vertex="1" parent="1">
          <mxGeometry x="60" y="250" width="60" height="20" as="geometry" />
        </mxCell>
        <mxCell id="MWtXkFUQYbGvttKdn1CM-22" value="" style="shape=image;verticalLabelPosition=bottom;labelBackgroundColor=#ffffff;verticalAlign=top;aspect=fixed;imageAspect=0;image=https://cdn.iconscout.com/icon/free/png-256/prometheus-282488.png;" vertex="1" parent="1">
          <mxGeometry x="115" y="290" width="40" height="40" as="geometry" />
        </mxCell>
        <mxCell id="MWtXkFUQYbGvttKdn1CM-23" value="" style="shape=cylinder3;whiteSpace=wrap;html=1;boundedLbl=1;backgroundOutline=1;size=15;fontSize=15;fillColor=none;" vertex="1" parent="1">
          <mxGeometry x="60" y="380" width="100" height="110" as="geometry" />
        </mxCell>
        <mxCell id="MWtXkFUQYbGvttKdn1CM-24" value="" style="shape=image;verticalLabelPosition=bottom;labelBackgroundColor=#ffffff;verticalAlign=top;aspect=fixed;imageAspect=0;image=data:image/png,iVBORw0KGgoAAAANSUhEUgAAAgAAAAIACAYAAAD0eNT6AAAAAXNSR0IArs4c6QAAAGhlWElmTU0AKgAAAAgABAEGAAMAAAABAAIAAAESAAMAAAABAAEAAAEoAAMAAAABAAIAAIdpAAQAAAABAAAAPgAAAAAAA6ABAAMAAAABAAEAAKACAAQAAAABAAACAKADAAQAAAABAAACAAAAAACJBzC+AAACC2lUWHRYTUw6Y29tLmFkb2JlLnhtcAAAAAAAPHg6eG1wbWV0YSB4bWxuczp4PSJhZG9iZTpuczptZXRhLyIgeDp4bXB0az0iWE1QIENvcmUgNi4wLjAiPgogICA8cmRmOlJERiB4bWxuczpyZGY9Imh0dHA6Ly93d3cudzMub3JnLzE5OTkvMDIvMjItcmRmLXN5bnRheC1ucyMiPgogICAgICA8cmRmOkRlc2NyaXB0aW9uIHJkZjphYm91dD0iIgogICAgICAgICAgICB4bWxuczp0aWZmPSJodHRwOi8vbnMuYWRvYmUuY29tL3RpZmYvMS4wLyI+CiAgICAgICAgIDx0aWZmOlJlc29sdXRpb25Vbml0PjI8L3RpZmY6UmVzb2x1dGlvblVuaXQ+CiAgICAgICAgIDx0aWZmOk9yaWVudGF0aW9uPjE8L3RpZmY6T3JpZW50YXRpb24+CiAgICAgICAgIDx0aWZmOkNvbXByZXNzaW9uPjE8L3RpZmY6Q29tcHJlc3Npb24+CiAgICAgICAgIDx0aWZmOlBob3RvbWV0cmljSW50ZXJwcmV0YXRpb24+MjwvdGlmZjpQaG90b21ldHJpY0ludGVycHJldGF0aW9uPgogICAgICA8L3JkZjpEZXNjcmlwdGlvbj4KICAgPC9yZGY6UkRGPgo8L3g6eG1wbWV0YT4KlqhK0AAAQABJREFUeAHs3QecHVd5N/7znDP3rrRqWyVbWPY2rWQvNvCKF0wXIaYE08EBkxASQjHFGAjkzUtC/b8kBJtiY1og1NCMEwc7oYNMb4JQhLSrbbZk2ZK2qK529845z/+ZlSWttO2WmXun/O4Hs7szZ075nqt7nntm5gwpvCAAgVgL8Nat3sjQ/laP/HWOVKtSupG0a1SsG5zjBqW4gRStYa1WEdvlVul6Q7RcKVevrK53yi5jYzxjrVFGG7ZkHDujPG1mGu47q0nLVrbKOkllrLaqQEpNKeMmpLwJy3zCKDfBZE6QU0dZ8WGl6JA2NC7lH2JHh6S8cc3qoM/e/pb2dQdp2zY/1rCoHAQyLiD/xvGCAARqJXBk8+ZmO2k3MPEGRXqDc2qD0rxBK1rPTq2TEXmd0qZJRupE/Vu1EhWQtaOKzH6t3H7WdK9ytEdrtUex20NMe8wys2f1rl2jtbJHuRDIukCiPlSy3llof/IEWL4+H2q/eIMlu1Er7mLSnfItvcu31GWM6pBxvT55rQqzxu44+2pQe2pAZhf6Sbl+x9Rv2PQ3DO28Wz6ghBAvCEAgCgEEAFGoIs/MCQQD/cHOzg5y3iVE3CMAl8jQ1UOkNsvvMh2PV+kCPCGnG3Y5TX/QSu2QmYMdctLiD2v6+4fkg8uVnh+OgAAEZgsgAJitgd8hUIQAd3XVjbD3QO3cQ5jUQxzzQwzxZRIDrCjicCSpWEBmDZz+jdbu18zm187YX7fU1f2eduyYrjhrZACBDAkgAMhQZ6OppQvIN3sa6+q6RDnzcEV8uWP1MLb2EmNMrvTccERUAtbagvSJzBKon0s//VSuo/hZU3//TvmAwymEqNCRb+IFEAAkvgvRgDAFDvT0rDTH7aMU2UfLLPMjZOD/38qo1WGWgbyqIyAXIh6Wiyd/oZh/InHAD2193Y/X7thxrDqloxQIxF8AAUD8+wg1jFBgvK2tgcl7DGv9OMX2sXIL3f8ycul6hEUi6xoJWN/5xtO/kvsT7iRy31fK/qBpcFBuZ8QLAtkUQACQzX7PbKuD8/ejbB6lLF+hSV3hyzl8Ge3lGjO8siYgMwRy+YD7FRn9Lav1N1vqzI9xHUHW3gXZbi8CgGz3fyZaP3LRxovJ0FPkXvsnEqvH4Na7THR7GY10x2Udhu9rrb8lazB8rWW4b1cZmeAQCCRGAAFAYroKFS1WgHt68mMTU1tJ6SvlCrCnyhI6cr89XhAoTYCs6mfD/8WK7mhuXHUnbd9eKC0HpIZAvAUQAMS7f1C7IgWCc/mW8k+Tb/jPlHP5VyhjVhV5KJJBYGkBq44oQ9+S99dtigq349qBpcmQIv4CCADi30eo4QICR7u6WqetfiZrfo7z3R/h1rwFoLA5VAHf2mmPzLeVpltzefpPLGccKi8yq6IAAoAqYqOoygWCtfP9afs8OY9/la/4sbhiv3JT5FC+wMydBYbvJG2+rAt1tzTc/Tt5OBJeEEiGAAKAZPRTpmt537rLVuRXnHgGM10tD6t7Ir7pZ/rtENvGBzMDxuhvaKLPT5449tX1+/bJkxTxgkB8BRAAxLdvMl2zYG39sbbNV8hjZ18kT6p9BpbZzfTbIXmNt/aYPIL5NmL+TNPQ7u/IBy2eXZC8Xkx9jREApL6Lk9XAA52dXZ4yfylPiHuRrMB3QbJqj9pCYK6Ab/luT6tPmxx9qqGvb3BuCmyBQG0EEADUxh2lzhLYt359fX75yufJFdYvkc1ynz5eEEifgCw8xHJ6QFYg5H89MTVxy4a9e0+kr5VoUZIEEAAkqbdSVteRtu7NRHSNJX6RrMbXkLLmoTkQWFBAgoFx4/jTjvRHWod6exdMiB0QiFAAAUCEuMh6rgBv2ZIbGzv2LFLuGibaOjcFtkAgYwLOfVceP/GRpqaVt2GxoYz1fY2biwCgxh2QleLv6+xcm2PzCmnvNfLfeVlpN9oJgeIF7L2KvA/nyX5kVX//weKPQ0oIlCeAAKA8NxxVpMB4e/eDHKnr2KoXyDP26oo8DMkgkGWBSblO4POkzPubBnf9LssQaHu0AggAovXNZO5yCx+Nt3ddKT9ej2n+TL4F0OiwBOT0AGl9Q9Ng33+HlSXygcApAQQApyTws2KB4Pz+6KGjV8u3/TdqrXoqzhAZQAACMwLsu99pY/658aLzv0jbtvlggUAYAggAwlDMeB7BSn25FVMvtT6/3nhqQ8Y50HwIRCYgqwndRcQ3TJ84/gmsNBgZc2YyRgCQma4Ov6FjHR1rmHLX+myv85RuCr8E5AgBCMwn4KwdkecPvI/zdFNrb+/R+dJgGwSWEkAAsJQQ9s8RCB6963T+tXIv83W4f38ODzZAoGoCvnJjhuh9MitwY3N//5GqFYyCUiGAACAV3VidRtw/8L9OBv7XysC/pjqlohQIQGApgZmFhZR6Pyn/A02Dg4eXSo/9EAgEEADgfbCkQHCO36s/cZ0jeiMG/iW5kAACNRMIAgFP0buPTx+/EUsN16wbElMwAoDEdFX1K8o9PfnRicLLZHrx7yVWXFf9GqBECECgPAF7LynvnY2NKz+O1QXLE8zCUQgAstDLJbYxeBTvaGf3nym2b5fFSNpKPBzJIQCBmAiwUwNa01sbB3tlYSEl/7TxgsAZAQQAZyzwmwiMdHT/sXxKXK+VehBAIACBdAgwq1/Lowjf0DrQ+710tAitCEMAAUAYiinIY7Sr6xLl6/corf4kBc1BEyAAgXkEWPHtzPqNeALhPDgZ3IQAIIOdPrvJJx/S473DKvfXRh5JNnsffocABNInYH3na09/LO+pt67u6xtJXwvRomIFEAAUK5WydLx1qzd2977XyFXDb8WV/SnrXDQHAkUIBHcMaFZvaR7q+7AMBPInXlkTQACQtR6X9o50bvojtnwj1uvPYOejyRA4R8Ap+1uP9Wsah3Z//5xd+DPlAggAUt7Bs5snS/deyMrcILf0PXf2dvwOAQhAQAS+yJ76m5a+vnugkQ0BBAAZ6Odgun98zz2vkyuB3yaDf30GmowmQgAC5QhYe0wZ8xZ5/PCNOC1QDmCyjkEAkKz+Krm2o21dlzvNH9XKXFbywTgAAhDIpAA5/pXV+uWtg72/zCRARhqNACClHR08qc85849O08vlIj+5rR8vCEAAAsULyFWBzmN1s83Tm/HEweLdkpQSAUCSeqvIuo50dj+L2N6slDm/yEOQDAIQgMD8Ak7dQ5pf0TS4+475E2BrUgUQACS15+ap99GurtZJ1h+UW3uummc3NkEAAhAoW4AdfT6/jK5dvWvXaNmZ4MBYCSAAiFV3lF+Zsc7u51vf3qSNaSk/FxwJAQhAYDEB3i97X9U8uPvWxVJhXzIEEAAko58WrOX+9vZ1Huc+LGf5n7VgIuyAAAQgEKoA3ZrX9ppV/f0HQ80WmVVVAAFAVbnDLSw418++/Ri+9YfritwgAIEiBKw6QNr9ddNQ/+1FpEaSGAogAIhhpyxVJXlwz2pl9Y2K1F8slRb7IQABCEQs8Am7PHfd2h07jkVcDrIPWQABQMigUWc33tb1OF/rT8t9fRdFXRbyhwAEIFCUAKtBki8ksoDQD4tKj0SxEEAAEItuWLoSvGVLbnT86DudUm/Eff1LeyEFBCBQXYGZdQOI/rFxw/lvo23b/OqWjtLKEUAAUI5alY851N3dYX31BSn2YVUuGsVBAAIQKEmAnfqxIXN149DOu0o6EImrLoAV4qpOXlqBYx0br7ZT6tdyFAb/0uiQGgIQqIEAafXIAtn/GW3fhIeO1cC/lCIxA1CKVhXT3rfushW5FZMflCJfXMViURQEIACB0AQcuY9PTk1eu2Hv3hOhZYqMQhNAABAaZXgZjbR1b5aOuVXu7b8kvFyREwQgAIHqCzhlf8sq/9y1gzt3V790lLiYAE4BLKZTg30y5f8CWcf/Fxj8a4CPIiEAgdAFgieRGmt/iVMCodNWnCFmAComDCcD7unJj54ovE865JXh5IhcIAABCMRNgD/Q1Lj6jbR9eyFuNctifRAAxKDXRzs7Nyg2X5Gq4EK/GPQHqgABCEQnYJl/Qr5+buue3n3RlYKcixFAAFCMUoRpxts3PtY5ukUZtTbCYpA1BCAAgTgJ3KdIP6d5YNeP41SprNUF1wDUsMdH2rtfVXDu2xj8a9gJKBoCEKiFwHm+X/jeaHv3S2tROMo8KYAZgBq8E4Lz/WMnCh+Sol9Sg+JRJAQgAIEYCdBHmxpXvgbXBVS/SxAAVNk8eHwvKe8/DNEjqlw0ioMABCAQSwFn7Q+X5ejZeLxwdbsHAUAVvcc6Nl9asPYOz9CFVSwWRUEAAhCIvYBTbkhrdWVzf/8fYl/ZlFQQ1wBUqSPl/v6nsi38CIN/lcBRDAQgkCgBrXS7dfrHo+1dT0xUxRNcWQQAVei80Y7u1/mKvqqMWVWF4lAEBCAAgUQKyJNO11ii/x7r6MZ6KFXoQZwCiBCZlTKjbRtvIk3XRFgMsoYABCCQPgGmG5uGel8ng5Q8BR2vKAQQAEShKnnuueCC5Svqln+RmZ4eURHIFgIQgEDKBejWI27qz9qHhydT3tCaNA8BQATsR7q7WwpW3a5YXR5B9sgSAhCAQGYEgjsEclz/9Ia7fzeemUZXqaEIAEKGPtTd3WEn+evKo40hZ43sIAABCGRTgNRO7cxTGod23pVNgGhajQAgRNfxrq6HyLK+X1OK1oWYLbKCAAQgAAFl7yX2nizXBfwWGOEI4C6AcBzVzJr+Bb0Ng39IoMgGAhCAwFkC5nyf+M7Rzs2PPGsz/ihbAAFA2XRnDgzu8XdEX5c1/Vef2YrfIAABCEAgTAG5TbBBsf3WaNvmJ4WZb1bzQgBQYc/L4H+17/Ntks3yCrPC4RCAAAQgsKQA1ftc+Opo+6arlkyKBIsKIABYlGfxnWMdm66RBX4+ZzztLZ4SeyEAAQhAICwBz5i8Jf4CniZYmSgCgDL9gtX9WPGHZEoKF1KWaYjDIAABCJQrIJ+92pL6qDxW/dXl5pH14xAAlPEOkG/+fyuHvbeMQ3EIBCAAAQiEJBB8ASNSN8kXsteHlGWmskEAUGJ3j3Ru/Hv55v9PJR6G5BCAAAQgEJ3ADSMd3X8XXfbpzBkBQAn9Otq+8R3E9M4SDkFSCEAAAhCogoCci32XzAS8tQpFpaYInL8usivljfV2SfqWIpMjGQQgAAEI1Ebgrc2Dfe+oTdHJKhUBQBH9FUz745t/EVBIAgEIQCAGAjKw/V3TYB9O1S7RFwgAlgAKLvjDOf8lkLAbAhCAQNwEWP1N81DfDXGrVpzqgwBgkd4IbvWT3bjafxEj7IIABCAQVwEmvrZlYPdNca1freuFAGCBHhjr6H4lK3XzAruxGQIQgAAEkiDA6mUyE/AvSahqteuIAGAecZn2f6Gv+LNY5GceHGyCAAQgkCABq5QzTC9oHur9coKqXZWqIgA4h1nW9r9S1vb/Dyzvew4M/oQABCCQUAFrbcF43tObB3q/ntAmRFJtBACzWMfbuh7ntA7eIMtmbcavEIAABCCQeAGeINJPbBro/VHimxJSAxAA3A95sHPzFu277+KRviG9s5ANBCAAgZgJyOmAwzlWj2sc6vtNzKpWk+ogABD2Q11dnbagfyyD/9qa9AIKhQAEIACBKgnYezXnH9E4tPOuKhUY22IyvxTw0a6uVleQaX8M/rF9k6JiEIAABMITMOc7Knz98AU9TeHlmcycMh0A7Fu/vn7a6TvYqK5kdh9qDQEIQAACpQvozQWvcPtQW1umr/fKbAAg9/ib/LKVX5I3zsNKf/PgCAhAAAIQSLIAafXI1Sr/eRkLMjsOZrbho20bPygXQFyZ5Dcw6g4BCEAAAhUIaPWs8fbu91eQQ6IPzWQAECzxS5pekeieQ+UhAAEIQKBiASb1mpH27ldVnFECM8jcXQAzC/0o+k9Z5S+TwU8C36OoMgQgAIFIBaxia0hfmbWFgjIVAMhUz4Ocsz9UxqyM9N2EzCEAAQhAIFkCVh1ROffI5v7+HcmqePm1zUwAcKCt5zzlCj83ntpQPheOhAAEIACBtAqwssM+qYefNzBwIK1tnN2uTEyDc1dXnTEFWd8fg//szsfvEIAABCBwRoCUaTOO/p23bMmd2Zre3zIRAIw5+pBidXl6uxEtgwAEIACBMAQ06UeNjR+7KYy84p5H6gMAubrz1UrRX8W9I1A/CEAAAhCIiwC/fKyz+2VxqU1U9Uj1NQDB0/0KTn0bj/aN6u2DfCEAAQikU8C3djrneX+U5qcHpjYAGOvouNBZ75dkVGs6355oFQQgAAEIRCxwH3vqoS19ffdEXE5Nsk/lKQDu6cmz1bdi8K/JewqFQgACEEiLwHlqWn05rRcFpjIAGD0+/X5l9EPT8g5EOyAAAQhAoDYCwTMDxkaP/HNtSo+21NSdAhjr2PRCVvy5aNmQOwQgAAEIZEqA6armod5b0tTmVAUAo11dlyinfi6r/K5IUyehLRCAAAQgUGMBa486k3to6+CuvhrXJLTiU3MK4L51l62Qwf9WDP6hvTeQEQQgAAEInBIwZhVbe+u+9evrT21K+s/UBAC5+smbZfDfnPQOQf0hAAEIQCCeAsbQA3PL6z8Qz9qVXqtUnALAef/SOx5HQAACEIBAmQJMfyrXA3y5zKNjc1jiA4ADnZ1dxle/kif8rYqNKioCAQhAAAKpFbBKHc45/eDG4V3DSW5kok8BBPdmGp++gME/yW9B1B0CEIBAsgSMUmuccV/grVu9ZNX87NomOgAYO3TsXbjf/+wOxV8QgAAEIFAFAXnA3OjwvndWoaTIikjsKYCDnZsez8zfkUgssW2IrFeRMQQgAAEIRC4gpwKcx2pr01DfDyIvLIICEjl4yjr/awrW/NYzdGEEJsgSAhCAAAQgUJQAKzvMOe+y1t7eo0UdEKNEyTwFQN5NGPxj9C5CVSAAAQhkVICUadNTLpG3BiZuBmC0fdNzFXGqlmPM6L8bNBsCEIBAagSY1LNaBvpuS1KDEhUAHGjrOU+pyd8bbZqThIy6QgACEIBAugXYqoO+Zx943sDAgaS0NFGnADwz/VEM/kl5a6GeEIAABLIjEDx+Psfeh5LU4sQEAGMdG69mpqcnCRd1hQAEIACBLAnwc+Q09fOS0uJEnALY396+jljvwLf/pLytUE8IQAAC2RQITgXk69Qlq/v6RuIukIgZAI/yN2Pwj/tbCfWDAAQgAIHgVEDBVzclQSL2MwAz0ynEiX/oQhLeDKgjBCAAAQiEI8CantnS3/uf4eQWTS6xDgDG29oanM7tksX+1kXTfOQKAQhAAAIQiECA7D5FdHFzf/+RCHIPJctYnwJwlH83Bv9Q+hmZQAACEIBANQXYrJdr1/5fNYsstazYzgCMdm5+pGX3Q6z1X2qXIj0EIAABCMRBIHhWgHzLvrxlsO8XcajPuXWI5QxA8Jhf69uPYvA/t7vwNwQgAAEIJEVAxjAt37I/xkrJr/F7xTIAGB8/+gZj6IHx40KNIAABCEAAAiUJPHisvfu6ko6oUuLYnQIYb7/4Ikd2p7R/eZUMUAwEIAABCEAgQgF3XGm1WS4I3BthISVnHbsZAMf2vdIKDP4ldyUOgAAEIACBeAroFc6q6+NWt1jNAIy2b7xCbpv4ZtyQUB8IQAACEIBApQJO68e39u/aVmk+YR0fmxmA4MI/eczvjWE1DPlAAAIQgAAE4iRA0/6NvHWrF5c6xSYAGBs78lq5YHJzXGBQDwhAAAIQgECYAuTpS0f33PPKMPOsJK9YnAI40NZznuHJPmXMqkoag2MhAAEIQAACcRaQtQEOL9du46r+/oO1rmcsZgDITL0Tg3+t3wooHwIQgAAEohaQBQHWTDn9tqjLKSb/ms8AjHVsvtRX7n+CBROKqTDSQAACEIAABJIsYH3na60vbRnuk2fd1O5V80GXlb0eg3/t3gAoGQIQgAAEqitgPO0R1f62wJrOAIx2bnqyYv5adelRGgQgAAEIQKD2ArJE8B/LcwK+U6ua1GwGIFgb2VmO3cIIteoIlAsBCEAAAtkSkHHwBvmvZuNwzQoe69j0F1qrnmx1N1oLAQhAAAIQOCkgA/CDxts3XV0rj5qcAuCurrqD03q38dSGWjUc5UIAAhCAAARqLsBqsKlp1Wbavr1Q7brUZAZgzJlrMPhXu6tRHgQgAAEIxE6AVMfo2NGX1aJeVZ8BONDTs1IfKwySUa21aDDKhAAEIAABCMRM4L6pyWOd6/ftm6hmvao+A2BOFN6Awb+aXYyyIAABCEAg5gLn5ZetlOXwq/uq6gzA4Qt6mnwzOYxV/6rbySgNAhCAAATiLSBLBB/ylN/WNDh4uFo1reoMgK3zX4/Bv1pdi3IgAAEIQCApArIgXgMrr6qzAFWbATj57b8wpIxanZQOQT0hAAEIQAAC1RKQWYBxmQVor9YsQNVmAPzc9Osw+FfrbYRyIAABCEAgaQIyC9DIlLu2WvWuygzAoQsvbbQ0Jef+8e2/Wh2LciAAAQhAIHkCwSyA0a6tub//SNS1r8oMgDWT+PYfdU8ifwhAAAIQSLzAzCwAU1VmASKfATi4adMqLvDdwQUOie8ZNAACEIAABCAQsYB1dtSfPnFh1OsCRD4DYHz3Cgz+Eb9bkD0EIAABCKRGwGjTXLds1UujblCkAQD39ORZueuibgTyhwAEIAABCKRJwLfu9bx1qxdlmyINAMYmCi9SbNZH2QDkDQEIQAACEEibgGfowtE9+yJ9UmBkAcDMM47JvTFtnYL2QAACEIAABKohwFa9ScbSyK7ViywAGO3Y+EyldHc1kFAGBCAAAQhAIG0CWque8Y6NT42qXZEFAGzd66KqNPKFAAQgAAEIZEOAXh9VOyOZWjjYuXmLZvfLqCqNfCEAAQhAAAJZEdCsHtw41PebsNsbyQwAMa78D7ujkB8EIAABCGRTwJGK5G660GcADl508flOTQ97xuSz2VVoNQQgAAEIQCA8AbkYcMr37IXnDQwcCC9XuUovzMyCvLT2X4nBP2xV5AcBCEAAAlkVIKPqcmyuCbv9oc4ABAv/jB4r7JXKtoZdUeQHAQhAAAIQyK4A729qXL2Btm8vhGUQ6gzA+Inp52LwD6trkA8EIAABCEDglACtGzt09Nmn/grjZ6gBgLUu9CmKMBqJPCAAAQhAAAJJF2BFoY6xoZ0CGOu8+IHM9ndJB0b9IQABCEAAAnEVYMuXtNy1e2cY9QttBsBZ/5VhVAh5QAACEIAABCAwvwBp/Yr595S+NZQZgAM9PSvNscl9yphVpVcBR0AAAhCAAAQgUIyAVeqwP3ls/fp9+yaKSb9YmlBmAMxE4fkY/Bdjxj4IQAACEIBA5QJGqTX55SuuqjynkNYBsIr/KozKIA8IQAACEIAABBYXIKa/XDxFcXsrPgUw0ta9mbQK5YKE4qqMVBCAAAQgAIFsC1iyG9cODPRXouBVcvDMsZolEqk4jqi4Gsig9gJybkpuBLEFeVNNW2N8stbX8lMpy8oZp4wl5ZuVyqjVta8tagCBeAkE/37k38yoJjM1U7Pg3wsb7az12BjPKJfzLefImJxMA+NDN17dV/XaeMp7sRT695UUXNGbiLdu9cbu3rdHKnBeJZXAsbUTCC4oIeXGDOsxJjUuHyvjTrnDWunD8hlzWLE6IrU7Kj+PkuZj5Pi4jOrHybrjsuzzRE7rEyfq6k60Lls2VewKVUc2b272p+3l7NRzlKbnS/7LayeAkiFQQwGy+0iZTzG5OyYmJ/9nw969J4qpTbDq6tjU1DLf2uV1Ll9vc7aena5nrVcYZ1cqopXy72uV/HsOLsxerRyvkZ/yHzXIjG2D/LtvYl81GbKNcv3WymLKRJqYCVi1t+muvotkEHfl1qyiAGCsY+OVsjDB7eUWjuPCFwi+RRirDrJW90jn7pOnPeyTf/z3ST/tJ/lPsz3oPHVQntR0cOUFF4zTtm3yDb12r/s6O9fmrP4nCQT+sna1QMkQqLrACZkve0tTff5G2rFjuuqlzyowCCZGjvgtxlMtjnitVtzKSq9jx+skWJAvd7zeWrVeGXqAzDw0zjoUv9ZawOknNw/v+ka51agoADjY2f0leU5xKFcjltuAjB4XfEvolf92yYdIvwz2A0xmOFfgu9as9O6p9QdKOX0iweTVBes+iQdJlaOHY5IkYH21x8uZP2ka2Pn7JNU7qOt96y5b4S2f3ECG2uSx723MukPOU3TLuYvNVukuo2QxeLyqJsCK/61lcPeflVtg2QHAwU2bVukC75eCMX1brn6xx1l1hInuIOJt8i3+Z41DvTuk4+TLfrpeI12bnuEc/7t8goRye2q6dNCadAjwfuPRIxv6+gbT0Z4zreCurroR9h5Izj1C/gH/MTv7BJxeOOMTzW/u+NTkxNpy1wQoOwAY6ex+EbH6dDSNQq4yujuP1e2K+F8al+e/lcRv9eX04mj7xnfK+cuKLmwpp1wcA4GoBYLTc0T0hNaB3u9FXVYc8t9zwQXL63MrrmTtXuKYniiBfdnjTRzaE9c6yAzM1U2Du79QTv3K7pCRzo1fl3sRn1ROoThmYQHrO19r+hcvT9en8VvCwi0/uWfmW4RTO+UixPal0mI/BBIlIF+Ymof6XpyoOodU2ZGLNl4sn2v/xyd+IU4ThIR6fzas1B0tg31PKyfXsgKA4MItzXofOrIc8oWPkavxb7PK+9vWwV19C6dK/x65HuAVctHih9PfUrQwKwLBt3+lzKa1gzt3Z6XN87VztKvrEuXofTIZ8MT59mNb6QJWbr1etjx3/updu0ZLPbqsc62eM1dh8C+VepH0Vh2Qizme0zTY/6ysD/4nlewX5Pamml4ZvUhvYRcEShaQ+/t/lPXBP0Br7u//Q/Pg7icF09a+3H5cMiQOmCNgZF0Iua36eXN2FLGhrACACFf+F2FbVBLn3Ndyy/UlciXnvxd1QAYSNQ0OHjae95MMNBVNzIgAafO1jDS1qGYG56x1wVwqF0XcWdQBSLSogNyyWZ0AYH97+zqZznrUorXBzqIEJJB6V8tw/5XlTN0UVUCCE8k3hF8muPqoOgTOEiDW28/agD9U657efc0DvU+QSyNvBEdlAlbT4450d7eUmkvJMwA58p6F27RKZT47vTw8KTgl+FdNA31vloswyl7F6exc0/WXrGI2lK4WoTVZFpAFdoaz3P6F2i6ff7Z5qPe1ck3A605eJ7FQSmxfTCA4JV8o0DMWSzPfvpIDALk46znzZYRtxQkEF2zIsrsvkPNgnyzuiGym0sEyxHhBIC0CTgdLauO1gEDzYO/7DdNLEQQsAFTEZse25LG5pADg8AU9TXKb2tYi6oIk8wgEb27P6L+QiPeWeXZj02wBLSuV4wWBlAiwPEgjJU2JrBnyufgJUXpNZAWkPGPH/ITxtraGUppZUgBQqJt+uvF05U8QLKWGKUprmN9U7oINKWJAUyAAAQjMK9Ay1HeznBb4x3l3YuOiAsEy6pbyJa0HUFIAoJlLPsewaI0ztZP/tXlo9/WZajIaCwEIQKBEgcZBuTaK+KslHobkIiBuTy8FougAIFihTeawriglc6Q9KSBX+f3miCu8Ch4QgAAEILC4gMwAyLIo9kXyuXnX4imxd46AdU/iLVtyc7YvsKHoAGCMzePlGS0rFsgHmxcWkCf36avah4cnF06CPRCAAAQgcEpgZi0QVn+OiwJPiRT505hVo+NHH1dk6uKfusbMJZ1bKLYCaU8nT+97O1b3S3svo30QgEDYAk1DfT/wlPtQ2PmmPT9ZQ+XKYttY9AyAtcVnWmzhaU8XTP03Xnj+DWlvJ9oHAQhAIBoB92Y5IxA8dh6vYgWYiv6yXlQAMNax+VLP0IXFlo90JwU0uzfRtm24nQ1vCAhAAAJlCASnAuSagLeVcWh2DyHVETx9sRiAogIARfbJxWSGNLMEnPtu81D/N2dtwa8QgAAEIFCiQGPj6k+wssMlHpbp5GT0k4oBKCoAYMajG4vBnJ1GE7199t/4HQIQgAAESheg7dsLWul3l35kdo9wzhb1uOUlA4ChtrZlwvjo7FKW1fL/aRza/f2yjsRBEIAABCBwlsDk5PHPyB0B42dtxB8LCmh5OBD39OQXTHD/jiUDgNWUe4ykDYIAvIoVYPpgsUmRDgIQgAAEFhdYv2/fhFH8mcVTYe8ZAaofmbKPPPP3/L8tGQDIPexY/Gd+u4W2Trq8+vJCO7EdAhCAAARKF3BkPlv6Udk9wrBbcuxeOgAgXjKT7BLPbTmx+kZrb+/RuXuwBQIQgAAEyhVoHdi13Sk3VO7xWTuO2S45di8aABzZvLlZzrs8KGtwlbRX7v2/tZLjcSwEIAABCMwvII9Sv2P+Pdh6roBVZstYR8eac7fP/nvRAGC64B5j5PkCsw/A74sLkHHfWzwF9kIAAhCAQDkCztB3yjkui8fI2C3ju1n0Av5FAwCZzn5sFuHKbbNv+e7m/v695R6P4yAAAQhAYGEBn/2fLLwXe84VkBnpRcfwxQMAx0U/VODcgrP4t/bop1lsN9oMAQhAoBoC5w0MHLC+2lONstJQhjyLZtExfMEAYLSra7Wv6cFpQKhWG7TjvmqVhXIgAAEIZFHAeLwzi+0up83Wd1vuW3fZgk/xXTAAIKcfffIcQjnFZvMY1tSfzZaj1RCAAASqJaBxJ0CR1MbTXq7+xILrASwYAEj+i148UGT5GUtGmJrKWI+juRCAQJUFSN1T5RKTXRzRgmP5YgHA5cludQ1q7/hYDUpFkRCAAAQyI8COsSRwSb3NC47l8wYALLcPsLUPLakMJFZyCyACALwPIAABCEQoIPelT0aYfeqytooeJmP6vLfzzxsAjHds7lHGrEqdRMQNsszTEReB7CEAAQhkW4BI7m7Dq1gBuZavYfSijZvnSz9vAMDsHj5fYmyDAAQgAAEI1FJAvsrW1bL8JJZNRs17GmDeAEAmC+ZNnMSGo84QgAAEIJAeAZnOXvIxt+lpbUgtYZp3TJ83AHDK/u+QikU2EIAABCAAgdAE5AwAAoBSNUk9bL5D5gQAQ21ty9inS+ZLjG0QgAAEIACBWgo4hxmAUv2ttT3c0zMncJoTAKzS+UuDxQNKLQDpIQABCEAAAlELEFEu6jLSlr8xJndoaqrn3HbNCQA0qYecmwh/QwACEIAABOIgQKQQAJTREc6ZOWP7nADAWZ6TqIyycAgEIAABCEAgdAFWNGcqO/RCUpgh0dyxfU4AQJoQAKSw89EkCEAAAqkQYIcZgDI60jo3Z2w/KwAIVgCUfC8rI28cAgEIQAACEIhcQGYAEACUoSxPq33QuSsCnhUAHOy4uFPyXV5G3jgEAhCAAAQgELkArgEok9iYlYcv2tQ2++izAgBNds5VgrMT43cIQAACEIBATQUYFwGW6++MO2uMPysAUE7h/v9yZXEcBCAAAQhELiDT2LhNvVxl0meN8WcHAMRn7Sy3DBwHAQhAAAIQiEJAnlWDawDKhJVHKZ81xp8VAJCis6YHyiwDh0EAAhCAAAQiEdCsEQCUK+sWOAVw/x0Am8rNF8dBAAIQgAAEohYgwzgFUC6yURfPvhPg9AzAobbNF0qeuAOgXFgcBwEIQAACkQtYy5gBKFtZrxjr6nrAqcNPBwBWu65TG/ETAhCAAAQgEEcBrfGsmkr6xSnv9Fh/OgDQik9vrCRzHAsBCEAAAhCITEAWtY8s7wxkrO2ZL/unAwAmQgCQgc5HEyEAAQgkWkDjIsBK+o9JnR7rTwcA5M5srCRzHAsBCEAAAhCISsAyLgKsxFbu9psbAFhGAFAJKo6FAAQgAIHoBQwRTgFUwOxmne4/PQOgNbdXkCcOhQAEIAABCEQuQA4zAJUga2s7Th0/EwAc6e5uUYrqT23ETwhAAAIQgEAcBazGDEBF/WLMqvG2toYgj5kAQJ4TvKGiDHEwBCAAAQhAoAoCbBmnACp0Zr1sZsyfCQB8axAAVAiKwyEAAQhAIHoBg5UAQ0C2wcJ/J2cASDECgBBIkQUEIAABCEQs4OMUQAjCZ2YAFCkEACGIIgsIQAACEIhYwCAAqFiYaFYA4E7+UXGmyAACEIAABCAQoYCPuwDC0D0TAMgtgOeHkSPygAAEIAABCEQp4CmauXYtyjLSnjezmhnzZyDZqXVpbzDaBwEIQAACKRAwFncBVNiN7LuZMf/kbYDKIgCoEBSHQwACEIBAFQSsQQBQITORPhkA8NatntKmqcL8cDgEIAABCEAgcgFLmAGoFNkabma5C1CPDNy7VsIpqjRDHA8BCEAAAhCIXEBjBqBSY6PI7O/sbNGecWsrzQzHQwACEIAABKohYOzJ9WuqUVaay8hzbp12pFrT3Ei0DQIQgAAEUiRgHK4BCKE7HXGrXASoG0PIC1lAAAIQgAAEqiCgEQCEocyuQZPmmacChZEf8oAABCAAAQhEKcAW16yF4UusG7ViwgxAGJrIAwIQgAAEIhdwjFMA4SBzg3YOMwDhYCIXCEAAAhCIXMDDKYBwjCUAUAoBQDiYyAUCEIAABKIWwG3r4QgTcaMmRWvCyQ65QAACEIAABKITCBaviS73bOXsFDVo1mpVtpqN1kIAAhCAQCIFtm5FABBSx2mmlZqcqw8pP2QDAQhAAAIQiE7g6FGsWhuSLpOq15ZoeUj5IRsIQCAhAtbaglLuuLLqiFwHNGF95yek6qhmhgWGR0exBkBI/S93U9R7RIQZgJBAkU22BKyMoNqqAik77RsqyFO1pq2vClqradKu4BRPGzYFP/hJJAOumnbOFQzpaSYusNOSjqflruYCsZtmRwU5JTcti3MUmHlaznfKdjXNmgs6+MmyXfKS/AtO9muWPNibdiYoh2WbmjYmKDcoxyt4Tk3bvCvUOTft+37hxPT09Pnnn1+g7duDusx5SXmkenpyB5XK54/q3JQ5lveMyRmt84UC5aQNeav9nPZVXp4mlpNVROUn5ZxTeZlKzMlXs7yTNORUjmQfK5KfLu9c8DNIq3KyLa/Y5eQR5Hk2nDNO5+XZ5Dml5TjJwzrKa3Z5eUxJTiooeXHOZ5WXduXknGVe25Pb5XEwOaNc3reco6COeJ7JnP5M4wbP9+WdlE9j06reJsO03NPKyQwATqtUXR8FLi7AfIws9cs01bSTAU/LIOuYpuUhFoVgm6xfUVAy4MkdwTODpAwUBRk0puXK1oKVwZSUlu0yuOrgpwyeKhgsZXCVAVYGVxm0ZRBmJQPuqYE0yMvcP9DKID2Tt5O8eDrn8gVfBtO6OlsoyGA6MTlZuGDvXilDvj8n7bVv34I1lvaw2rFjWhIE/yXqFTzV9N6+vvyyZctyOQlYJqdMzjOU97UEJ0HQIsGEleBBrnrOy6xnTqY+86StBBUng5ggIAmCGZKgQgKbHEkgcjJgmdmel29Lsk1+15xj0hLESDATpJEgJth+MoiRnzMBkcsbCVwkMJPAyORk4Zr8MnkLJQo0ppU1Ek3GtGqJq5Z89tV7yup6hUmVxHVe2ivcNLj7Dmlj8B9eEFhSgLZtCwZYDLJLSiU7gdcoi9edmHcCK9kNq0HtfUv12im7rAZlo0gIQAACEIBASQIUnALAKxQBT9EyzcZ4oeSGTCAAAQhAAAIRCmhrEQCE5OsbJ2sqWrmcBi8IQAACEIBAzAXM9HKMVyH1kVwHZbQyWFc5JE9kAwEIQAACEQroerkeGK9QBOQuGk+zJURUoXAiEwhAAAIQiFQAdwGEyCszAHi0YoieyAoCEIAABCITmJB7OSPLPGMZy2JgcgoAj1bMWLejuRCAAASSKSBL1+MiwLC6Tm4AQDQVFibygQAEIACBSAWI6xEAhCisle+St5pZiADICgIQgAAEkiEgS2YjAAirq6z1taw7jgAgLFDkAwEIQAAC0QngFEBotsYYK0tVy0rVeEEAAhCAAARiLkDL5UkgeIUk4OSKSotTACFpIhsIQAACEIhQABcBhodrlfa1lWmA8LJEThCAAAQgAIGIBBgzAGHJspIZgOB55mFliHwgAAEIQAACUQnII75xCiAkXM/KDIBoToWUH7KBAAQgAAEIRCZAXIcAICRdX/GkPAvATYSUH7KBAAQgAAEIRCeAGYDQbD3DE7IQkEYAEBopMoIABCAAgagEcAogPFlyNKEt84nwskROEIAABCAAgYgE6nANQFiylt2EPAsYpwDCAkU+EIAABCAQoQAWAgoNVxtzQjMZzACERoqMIAABCEAAAvEXIFYTmpw6Gv+qooYQgAAEIAABCIQl4IiPaVZ8OKwMkQ8EIAABCEAgKoFp3AUQGq1WfEjuAqBDoeWIjCAAAQhAAAIQiL2AxFLjWhsaj31NUUEIQAACEIAA57EQUGjvAgpmABgzAKGBIiMIQAACEIBAAgRIZgDY4RRAAroKVYQABCAAAQiEJiAPAwpmABxOAYRGiowgAAEIQAAC8Rdg0nINAKuD8a8qaggBCEAAAlkXIIWVAMN6DxilD2qfvf1hZYh8IAABCEAAAhCIv8C0mj6gW9rXHbRyJWD8q4saQgACEIBApgWwDkAo3W8V23UDAyOatm3zydrRUHJFJhCAAAQgAIGIBPA0wHBgjVIjcj+lk4sA5UUGpwHCcUUuEIAABCAAgVgLsM8HggrOBABaOQQAse4uVA4CEIAABCAQjgB5embMnwkAWNO94WSLXCAAAQhAAAIQiLMAkZoZ80+eAnC0J86VRd0gAAEIQAACEAhNYGbMP3kKQCsEAKG5IiMIQAACEIBAnAX47qB2J2cA2CEAiHNfoW4QgAAEIACBsAT45Kz/TABA9/8RVt7IBwIQgAAEIACBuAroM6cAzDKDGYC49hPqBQEIQAACEAhVYPrMKYDVu3bJQkDueKj5IzMIQAACEIAABOIlYNWRpsHBw0GlTl4DIL+wrwbjVUvUBgIQgAAEIACBUAXMmbH+dACgPTUQaiHIDAIQgAAEIACBmAlw/6kKnQ4AmMzpjad24icEIAABCEAAAukRYEenx/rTAQApd3pjepqKlkAAAhCAAAQgcEqAaJ4AwPGZjacS4icEIAABCEAAAukRcIZOn+4/PQNgGKcA0tPFaAkEIAABCEBgroBW/unZ/tMBQMPQTlkLgCfmJscWCEAAAhCAAAQSL2Dtsab+/ntOteN0AECyEAA5tevUDvyEAAQgAAEIQCBFAkbtlLGeT7XodAAQbHCa/nBqB35CAAIQgAAEIJAiATZnjfFnBQDyx44UNRVNgQAEIAABCEDgfgHSfNYYf1YAYBkzAHinQAACEIAABFIpwGrhGYCcsWdFB6kEQKMgAAEIQAACGRQgZ84a48+aAVjT3z+EhwKV/64gzp3lWX5OOBICEIAABM4VIM+Zc7fh7yIF5A6AhuFdd81OfdaAFdwJwE7/ZnYC/F68gCHKF58aKSEAAQhAoBQBp1RdKemR9oyAXOT/m9l3AAR7zgoAZjZo9+szh+C3UgRY8epS0iMtBCAAAQiUIuDhM7YUrllpjdZzxvY5AQCzmZNoVh74dREB57hlkd3YBQEIQAACFQhoy2srODzThzLTnLF9TgDgjJ2TKNNqJTTeEF9QQnIkhQAEIACBUgSIH1BKcqQ9I6D13LF9TgDQUlf3e2tt4cxh+K1YAatcZ7FpkQ4CEIAABEoTkKfW4jO2NLKZ1MGY3lBXd9YdAMGOOQEA7dgxbczZtwqUUV42D3Hq4mw2HK2GAAQgUA0BfUk1SklbGVqb3wdj+7ntmhMAzCRg9fNzE+LvpQW01g9ZOhVSQAACEIBAqQKygD35SuEztlQ4SU9E847p8wcAxD8towwcotR5422b2wABAQhAAALhCoy0b+qWRQAaws01G7kxuXnH9PkDAM0/ywZL+K102j4+/FyRIwQgAIFsCxhy+Gwt9y1gqfgAQJ4XvNMqdbjcsjJ9HNFTMt1+NB4CEIBAFAJMT44i27TnKWP5ePNwX+987Zx3BiBYLUimWn4x3wHYtoSAb58y1Na2bIlU2A0BCEAAAkUKHOjpWcmknlhkciSbJaCJf37uCoCnds8bAMzsZP7JqUT4WYKAMStXU93TSjgCSSEAAQhAYBEBPVF4luxevkgS7FpAgHj+6f8g+cIBgOIfLpAfNi8lQO6vl0qC/RCAAAQgUJwAkXppcSmR6lwBuXtiwbF8wQDA1tf92PpO7rrAq1QBq+iKkYs2XlzqcUgPAQhAAAJnC4y3bXywbHnM2VvxVzECwQJA05PHfrxQ2gUDgLU7dhwznv7VQgdi+8ICcv0EaU3/Z+EU2AMBCEAAAsUI+Ib+rph0SDNXwHhm+/p9+ybm7jm5ZcEAYGY30fcXOhDbFxfwiV+IWYDFjbAXAhCAwGICwbd/ZvXcxdJg38ICYnfnwnsXvQZAvsayW/TgxTLO+j6jyDDxDVl3QPshAAEIlCvAmt4rM6qLf1EtN/MMHKepkgDAFX4o9xC6DDhF0kRZGvgpox0bnxNJ5sgUAhCAQIoFxjo2vVAuYHt8ipsYadOsYisrAP5osUIWjawah4cPGetwHcBigkvts/Sh/e3t65ZKhv0QgAAEIHBS4OCGTesLyt4Ij/IFZBZ6e3N//5HFclg0AAgOJKO/tVgG2LeEgFFrPcp9ViLZJa2XyAm7IQABCKReQD4rjcnx5zylm1Lf2AgbKA8AWnLsXnJQskVkEmEb0pL1FWOdm96dlsagHRCAAASiEhhv734fpv4r1yXnvrlULksGAC3LPDmH4I4vlRH2LyHA/DcjnRtfs0Qq7IYABCCQWYHR9o1/I0v+4nOy0neAtccamlYvuZrvkgEA7dgx7Zz6fqX1wfESRjF9YKxz48thAQEIQAACZwvIF6Rr5cH17zl7K/4qS0CbO2n79sJSxy4ZAAQZyNXsS55LWKog7JcTW8GdlUwfGenoxsIWeENAAAIQuF9gtKP7LbJm/QcAEo4Aa15y+j8oqagAgJ36WjjVQi6BgDyZ6V2j7d2f2nPBBXi4Bd4SEIBAZgXuW3fZitG27s8LwNszixBBw9npbxSTrYxFxb3GLureLc8I7iouNVIVI8C++532vBc2De76XTHpkQYCEIBAWgSCVf6con+Tr6GXpKVNsWiHz7ub797dXUxdipoBCDJiw/9VTIZIU7wAefrSgi38Uqa/3j7U1ras+COREgIQgEAyBYKZT7kr6v8rsPs5Bv8I+tCjO4rNtfgAQBWfabGFI51SnjF5cXjLSp3fNdLZ/aLgHli4QAACEEibAG/d6o12bPqrelPfx8xvNnK3f9raGIf2MBU/Vhd9CoC3bMmNjRwalSUaVsWhkWmtA1nVLyHA+/zluc8ET2RMazvRLghAIBsCo11dq+Xi5xfLoH+dVro9G62uTStl6f7DrY2rWou5AyCoYdEBQJBYorevyMkArG0fYET9kvs4Jdj6itwW86WmZd53g9sxoy4S+UMAAhAIQ4C7uurGnX6CYvWn8lA0eZof1YeRL/JYQoDULc0DfVctker07pICgLH2TX8mnfnZ00fjl+oISDDARn9PbpO5Uzrs59MTy3513v7fYnGm6uijFAhAYAmBAz09K3MT0/+LtXq4rHfyWFLu8XKT2YolDsPukAVI0Z81Dfb+W7HZlhYAdHSsKVg6cP9562LLQLqQBWSaRxbLcsOk9A55VuPvleFesrxLK39X8ACnkItDdhCAAARmBA5deGmjzZ/YrBxtZkWbZGOPUvaBTpmLgnVOwFQ7Ad/a6ZzhtU2Dg4eLrUXJHXawreu/g8fcFlsA0lVXwFk7wlrv9hTtlihhkFkNak2D1teDLXftvE86XK4zxAsCEIDAXAH5cKCRDZvOl4fxdDhSHcTyn/yU7RuttRuNNs1zj8KWWAg49d/Nw31PLaUuXimJg7SazK0yhiAAKBWuSum1MS1SVIv8g31EUKT841Vy8Y3SxqrRi7qnxpTaI+s5DMu6xHukM/fIXMLdEsHvkQsP79G+fw9mEKrUUSgGAjUQCL7Bu5z/AHlS/AMUuQ3y6XChfEhskEfHb2A2bQfkp2c4H3xLkMF/5iUfHzMvGfxP/oL/j6eAZrlGr7RXyTMAR7q7WyZ9vk+eNYx3Q2nWCUk98+Cne5jMvXJaYZ/T7l7NdK+cbriPldsvP/dPa/++dQMDI/LmcQlpFKoJgdQKyPhsDrS3t+RUfh0re56E++tI8ToZ2NdLo8+X/9Yrn89XnnqADOu4GC+F7wTrO7/O1a1bs3eHfMcr/lVyABBkPdrW9R15QMAfFV8MUqZNQK5DcFomFeQ0wwGj1QHL7oAhNSIfPgflG4MEB3RQLhgdNfK7M270iO+PtA8PT6bNAe2BQNgCwUI59XV1LdrqZqupWS7+bWbFrTKb1yrX/rRY0q3G8Vq5tW6tY7uWjWmSb2NFr+kSdn2RXywEvt082HdFqTUp+RRAUAAZ/SX5kEcAUKp2itLPfOCY4ANJtco3kB5N+vTFBcFph+BSg+CHnEcMQgW1WuflNtKNE7JhnJ0bUzkzJjMMY0rzuHxTkW08LnmMybzjuBxxmMkFFzMedlPmUMEePbR+374J+RsvCCRCIFjj3lsz2SDPZF+j2GuQgVt+coN8ejY65kbS1Ch/N8q/h0YZuput5SbjuSZZcrVRGrg8+Mck/2xOXlUnc/Ez/6RkhwTY8k9Gfgb/yOR/GuuGJeL9EHklWX25nDJOva9KOvbwBT1Nk2byXtwNUBIbElcgEExxsaeOyGfiYfkIlACBDssH6FFy6qh8EB6V6xmOBH9LEUflU/KYxCPyU/azOuprc5ysO06eOybXORxraGs7Rtu2+RVUB4emTCBYpe7w4OgqucJ9Bft6pdx2u8JzdoXMcK2SAHWVPBBNfsp/Sq2Un6vl5NcqeZ+tktveZvbLYz7XOBnk5ZzYGvLVauPpsr5cpYwVzamCQHD1fx3Xn9dw9++CL08lvcoKAIISRjo2flWmeZ9WUmlIDIGYCMgVzQVZaOm4ceq4XBA5oTw6bplPGOUmmPSEXDg5Idc+TLCmE/Jl64SkOSFBx4S850/It7lJmdmY1Iom5QN/kqw+4Tw1JcHFpHzsT9kCTXpKT/p1PF3n3LSs4DQlp0Cm24aHp+QfnHx/w2shAcGh4ba2utWel5c1suumtM7LSFpnnVsmwV+deC9zyqvTvqpj45bLNvmbl8m34mXy7XiZ9Fu9nP9eLgHhcpmlXE6OlztDK2SAXk7s6q3S9YZouZwTX6FyboVlU6+sXYFlaRfqEWyPuwARf7VpYPczyqln2QHAWGf38+Uf2BfKKRTHQCCrAsFMhnw7LMg1FNNyDcW0BBfTcqGlXFcp3xs1FeTCCt+wKcg3y4JzTk73Gp+c78t91gVJ68tAJ3GKsjLzayWUsHJuWE4TyzAXbFNyckVGOc1GLslwTvKT+EW+q8oIKddjzPwMtgX28ofsCyaT5Xd2MmEiKU/+Idd5yndeiYKCny6Yc5aVXUju/XVkjQRFwcS0FKnkNHSQvVwMLL8HNZrZFvxOnJOpb4/lUZfsrCeHGpmpyVmyOe2MJ/nlZK8nValj3+ScUXk5pZQXmxy+Oc/0Av4PAsULkHq+rP73peIPOJOy7ABg3/r19XW55fvlW9TKM9nhNwhAAAIQgAAEqiJg7dEJO7Vuw969J8opT6L58l7BRVly9elt5R2NoyAAAQhAAAIQqESAPHNbuYN/UG7ZAUBwsJxX+0zwEy8IQAACEIAABKorIHdPfbaSEss+BRAUKicQ9cELu4flrJ6sKIUXBCAAAQhAAALVEPAt3732rt3tMoiXvSBbZTMAUrAx/OlqNBZlQAACEIAABCBwUsDT6tOVDP5BLhUFAEEGJkefDC4/Dn7HCwIQgAAEIACBaAWCMdc4/clKS6k4AGjo6xuUe4K+X2lFcDwEIAABCEAAAksLeMx3NtzVO7R0ysVTVBwAnMye/3XxYrAXAhCAAEaGerAAABshSURBVAQgAIEwBJyiUMbcUAKAE1MTt8iURMnLEIYBgTwgAAEIQAACWREIxtoThYmSH/07n08oAUBwH6IsC4aLAecTxjYIQAACEIBASALBWFvJvf+zqxFKABBkKIuJfmR2xvgdAhCAAAQgAIFwBcIca0MLAFqHenvlloTvhdtU5AYBCEAAAhCAQCAQjLHBWBuWRmgBQFAheeLIh8OqGPKBAAQgAAEIQOCMQNhjbKgBQFPTSnk2gL33THXxGwQgAAEIQAACIQjcd3KMDSGn+7MINQCg7dsLijzMAoTXP8gJAhCAAAQgEAh8eGaMDdEi1AAgqFeebHAx4GSIdURWEIAABCAAgSwLTOa1C/3LdegBwKr+/oNyNcDns9xTaDsEIAABCEAgPAH+/MmxNbwcg5xCDwCCTEmZ9wc/8YIABCAAAQhAoDIBIu99leUw/9GRBABNg7t+p5z77vxFYisEIAABCEAAAkUJsP1O08DO3xeVtsREkQQAQR1I6xtKrAuSQwACEIAABCAwS4DIvHfWn6H+KusKRPOS5wPT6IVdvyFPXxpNCcgVAhCAAAQgkF4B9t3vWu7uvyyqFkY3AyBXAmpj/jmqiiNfCEAAAhCAQJoFtGfeHWX7IgsAgko3XnT+F51Sd0XZAOQNAQhAAAIQSJsAKzvceOH5X4qyXZEGALRtm0/EkZ2/iBIGeUMAAhCAAARqJsDmhmAMjbL8SAOAoOLTJ45/3Fk7EmUjkDcEIAABCEAgLQJs1cEThYlPRN2eyAOA9fv2TZA2kdzDGDUO8ocABCAAAQhUXcCo923Yu/dE1OVGHgAEDeA83eQrNxZ1Y5A/BCAAAQhAIMkC1tlRztEHq9GGqgQArb29Rw0RZgGq0aMoAwIQgAAEEiug5b7/YMysRgOqEgAEDZGLAW+0So1Xo1EoAwIQgAAEIJA0gWCmPJgxr1a9qxYANPf3HzFK4RkB1epZlAMBCEAAAokSMExV+/YfwFQtAAgKI+V/ALMAgQReEIAABCAAgTMCwbd/Mly1b/9ByVUNAJoGBw97iiJd2egMJ36DAAQgAAEIJEMgR/RPwUx5NWtb1QAgaNjx6eM3KmXvrWYjURYEIAABCEAgtgJk9x2fOlGVK/9nG1Q9AAjubSTlvXN2JfA7BCAAAQhAIKsCpPQ7qnHf/7m+VQ8Aggo0Nq78uGI1eG5l8DcEIAABCEAgSwJkVX/jhgdEvurffKY1CQBo+/YCEb1lvgphGwQgAAEIQCAzAobfGvWa/wtZ0kI7ot7OclPAaHv3diL1kKjLQv4QgAAEIACBuAmQ4181Du9+qAzEMiRW/1WTGYCgmUGDWdMbqt9klAgBCEAAAhCovYD1zBtqNfgHra9ZABAU3jrQ+z1WfHvwO14QgAAEIACBrAjI6rhfbe3fta2W7a1pABA0XKYB3mh9F+kzj2sJjLIhAAEIQAACswWstQXL5o2zt9Xi95oHAK1Dvb3a0x+rReNRJgQgAAEIQKDaAp42H2kd3NVX7XLPLa/mAUBQobyn3ipLBB86t3L4GwIQgAAEIJAmgWA5fK9Ovz0ObYpFALC6r29EE+O2wDi8I1AHCEAAAhCITECz+ofVu3aNRlZACRnLBYjxeMk9EGb0wq5fk6cvjUeNUAsIQAACEIBAeAJOqd+0DPZtkYFXJgJq/4rFDEDAEIAYQ6+uPQlqAAEIQAACEAhfwCj16rgM/kHrYhMABJVpHNr9ffnxxeB3vCAAAQhAAAJpEZBb3v+tabDvh3FqT6wCgACGPfU3ytpjcUJCXSAAAQhAAAJlC8iYxgX9prKPj+jA2AUALX199yhjcEFgRB2ObCEAAQhAoMoCxvuH1j29+6pc6pLFxeYiwNk1nbkgsL37F3hOwGwV/A4BCEAAAkkTIFbbG4f6Hh6nc/+nDGM3AxBULIBiopfJZZJy0SReEIAABCAAgeQJWMXWGveyOA7+gWYsA4CgYq2Dvb/0WN0c/I4XBCAAAQhAIGkCxqmbWvv7fxXXesc2AAjAbJ7eLHMA98QVD/WCAAQgAAEIzCdgfbXHrsj/w3z74rIt1gFAa2/vUSJ3TVywUA8IQAACEIBAMQKex9es3bEj1ne0xToACJCbhvpvZ0efLwYcaSAAAQhAAAK1FpAL2T/XNLj7v2pdj6XKj30AEDQgv4yulRUC9i/VGOyHAAQgAAEI1Fjgvtx07rU1rkNRxSciAJh5cAJrLBNcVJciEQQgAAEI1EqASb1yzd4dY7Uqv5RyExEABA1qHur9itwgeGspjUNaCEAAAhCAQNUESN3SMtD3H1Urr8KCEhMABO3Ma3uNPEPpQIVtxuEQgAAEIACBcAVkbMqTe1W4mUabW6ICgFX9/QedppdGS4LcIQABCEAAAqUJkHZ/HYxRpR1V29SJCgACqtah3q/Kj0/Ulg2lQwACEIAABE4KOHIfD+5YS5pH4gKAANjl6HVOuaGkYaO+EIAABCCQLgF2aoCX1b0uia1KZAAQLBBklH4RnhWQxLcc6gwBCEAgHQLBWv9k9IvivuDPQtqJDACCxjQN9v3QI/rHhRqG7RCAAAQgAIEoBQyrdzUP7PpxlGVEmXdiA4AApXHD+W+zzD+JEgh5QwACEIAABM4VcNb+sGlo99vP3Z6kvxMdANC2bX5OeS+QUwGHk4SOukIAAhCAQHIFZMwZN4ZfGNfH/BYrm+gAIGhk49DOuwzj1sBiOxzpIAABCECgMgFN6iVNg4N3V5ZL7Y9OfAAQEMoqgbcEt2HUnhM1gAAEIACBNAuw4w8nabW/xfoiFQFA0MDJqclrnbK/Xayx2AcBCEAAAhAoV8Ap9ZujqvD6co+P23FyCiM9rwMdF2801v5SGbU6Pa1CSyAAAQhAoNYCwbVmee22NPT3D9S6LmGVn5oZgABk7eDO3UrTS8LCQT4QgAAEIACBQEDO+784TYP/TJvS1rUnnxrIH0hbu9AeCEAAAhCokQDR9XLe/7YalR5ZsamaATil1NS4+o1YH+CUBn5CAAIQgEAFAj9o2nD+31VwfGwPTdU1ALOVR7q7H0C++qVsO2/2dvwOAQhAAAIQKEqA7D5rl21ZO7zjvqLSJyxRKmcAgj5o6eu7R5F+jm/tdML6BNWFAAQgAIEaC7BVU2z1s9M6+Ae8qQ0AgsYFazR72rw6+B0vCEAAAhCAQLECZPialuHdPys2fRLTpToACDqkeajvX5Sijyaxc1BnCEAAAhCovgApd3Pz4O5PVr/k6paY+gAg4GxqXPma4MEN1aVFaRCAAAQgkECB7zdeeMF1Cax3yVVO7UWA50oc7epqnXTqZ1rp9nP34W8IQAACEIAAOzWQz6vLV/f1jWRBIxMzAEFHrurvP6i1ulJZdSQLHYs2QgACEIBA8QKy0t8hSX1lVgb/QCYzAUDQ2Ob+/j/InQFXWSXXd+IFAQhAAAIQEAHrO18Gw+e2DPftyhJIpgKAoGObh3d9QzNl4vxOlt7IaCsEIACBcgW8HL26ZbDvO+Uen9TjMhcABB3VMtT3QcV0Y1I7DfWGAAQgAIFwBJxy720a2J3JO8UycxHguW8VltMfY23dt8hJkGefuw9/QwACEIBA+gUcqS/LGv/Pl4FQhoTsvTI5AxB0s3S4O6KmX4jbA7P3pkeLIQABCDDRnS3kXpTVwT94B2R2BuDU2//wBT1Nfn7qRzIhsPnUNvyEAAQgAIH0Cjindnhq+tGNw8PBlf+ZfWV2BuBUj6/Zu2NMc+7Jch3ovae24ScEIAABCKRUwKl7tLFPyfrgH/Ru5gOAAKFxaOddxN6T778PNNiEFwQgAAEIpExAPuPHyZgnNw8M7ElZ08pqDgKA+9mahnp/a0g/Va4FmShLEgdBAAIQgECMBdxx49yfNA3s/H2MK1nVqiEAmMUdPD1QOfNsPEJ4Fgp+hQAEIJBwgeAznZV+ZvNw/08T3pRQq48A4BzOYKEgT3t/LlNF7pxd+BMCEIAABBImEKz86hl9tSz08+2EVT3y6iIAmIe4eaj3y4bVK+bZhU0QgAAEIJAQAfkix0bpl8mjfW9NSJWrWk0EAAtwNw/1/QsTX7vAbmyGAAQgAIGYC3hKvbp5sPdfY17NmlUPAcAi9C0Du2+S3W9YJAl2QQACEIBALAXodU2DfR+KZdViUikEAEt0RPNg33tljcj/u0Qy7IYABCAAgZgIEPGb5Jv/+2NSndhWAwFAEV0jF4/8oyR7WxFJkQQCEIAABGoowMx/Lw/3eU8Nq5CYohEAFNlVMhPwdkn61iKTIxkEIAABCFRZQK7b+oeWod3/r8rFJra4zD8LoNSeG+no/jtBe1epxyE9BCAAAQhEJxBM++Obf2m+CABK85pJPdre/QZ5jNL1ZRyKQyAAAQhAIHQBuk7O+X8g9GxTniECgDI7eKRz47XEhDdcmX44DAIQgEClAsF9/p7iVzYN7v5IpXll8XgEABX0+lhn98t8Vh82eKhSBYo4FAIQgEDpAsEKf/LZ+1JZ5OeTpR+NIwIBBAAVvg9G2zddZZ3/OWNMrsKscDgEIAABCBQhwFZNKU+9oGWg7z+KSI4kCwggAFgAppTNo52bnqzYyVKTVF/KcUgLAQhAAAIlClh7jI15ptye/Z0Sj0TycwQQAJwDUu6fYx3dj/aVukOmpNaUmweOgwAEIACBhQV85cYM66e0DPX9fOFU2FOsAAKAYqWKSDfe3v0gR/ZrSpnzi0iOJBCAAAQgUKyAVXtVzj25ub9/R7GHIN3iAlgIaHGfkvY2DvX9RnP+EfIk4V0lHYjEEIAABCCwoIC1/HsZ/B+BwX9BorJ2YAagLLbFDzp8QU9TwSvcTlo9cvGU2AsBCEAAAosJEPM2RfaZTYODhxdLh32lC2AGoHSzJY9Ys3fH2Al/4o9JuduWTIwEEIAABCCwkMAXG+vzT8LgvxBPZdsxA1CZ36JHy1MEtVwX8H4m9ZpFE2InBCAAAQicLcD0nqah3r+VQUo+SvGKQgABQBSq5+Q50t79akf8fqNIbhLACwIQgAAEFhKw1haMNq9sHur7+EJpsD0cAQQA4TgumcvMWgE+f0kZtXrJxEgAAQhAIIMCsrTvuCZ6bstA73cz2PyqNxkBQBXJR7u6etjxHaRMWxWLRVEQgAAEYi9AVvVbTVe2DvX2xr6yKakgLgKsYkcGt7D4pB7u2P2oisWiKAhAAAKxFgiu9Dc293AM/tXtJgQA1fVW5w0MHGhpWvN4WTb4o1UuGsVBAAIQiJ8A042NFz3giuDuqfhVLt01wimAGvbvWOfGl/u+uwkPEqphJ6BoCECgVgKTcofUK+SBPp+uVQWyXi4CgBq/A8Y6Nz2Kmb8i1TivxlVB8RCAAASqIyDL+rJRz5YH+vyiOgWilPkEcApgPpUqbmsa6P0Re+qhlvknVSwWRUEAAhCoiQAT3enrwkMx+NeE/6xCMQNwFkft/uAtW3Jj40feI9cGvLZ2tUDJEIAABKIRkFv8WL5x/nPzYN+bZeCRP/GqtQACgFr3wDnlj7Zvep5y/ieUMavO2YU/IQABCCRSQEb7Qx67FzUN9d+eyAaktNIIAGLYsQfbN21i575iDD0whtVDlSAAAQgULUCstmtHz2u4q3eo6IOQsCoCuAagKsylFRLcC+sXjj/ckcNSmKXRITUEIBAjAXkg2s2Nxj0Kg3+MOmVWVTADMAsjjr/KKYGrLPHH5CECa+JYP9QJAhCAwLkC1tlRIu+v5MvMV8/dh7/jI4AAID59sWBNDl20qd16/Hl5JtblCybCDghAAAIxEAiu8leGX9jS13dPDKqDKiwigFMAi+DEZVcwfda0Yf1j2Kl/kotpXFzqhXpAAAIQOCVgfecrorc0D/T+EQb/Uyrx/okZgHj3z5zajbV3P8aR/QweKDSHBhsgAIFaCfi8W+7x+/OW4d0/q1UVUG7pApgBKN2spkc0DfX9gHPeZcrxJ2taERQOAQhAQATkCacfnvKPPxiDf/LeDpgBSF6fna7xSGf3M5WvPkZGtZ7eiF8gAAEIVEXA3ktkXtI00Pe1qhSHQkIXwAxA6KTVy1AeonGb71lZK4BurV6pKAkCEMi8gFNfyOVzl2LwT/Y7ATMAye6/07UPVhCUqbibMRtwmgS/QAACYQuQ3eecdw1u7wsbtjb5IQCojXskpR7p7m4p+Oomyfz5kRSATCEAgewKyHVHWhVe3zg8fCi7COlqOQKAdPXnTGuCawNI2ZsVm/UpbB6aBAEIVFFA7ju+Szv98ubhXd+oYrEoqgoCuAagCsjVLiK4NkDux704WIYT6wZUWx/lQSAdAvff13+9Pb6sB4N/Ovr03FZgBuBckZT9PdLe/TAm9TGJ9B6UsqahORCAQHQCP9OsXt441Peb6IpAzrUWQABQ6x6oQvm8das3dte+1ypyb1dKr6hCkSgCAhBIooBVR2RBn//bPNT3YRkcsOpoEvuwhDojACgBK+lJR7u6LnBWXa9J/2nS24L6QwAC4QnIqUL2WH3W59zfrh3ecV94OSOnOAsgAIhz70RUt4Ndm7dywd5kDMkaAnhBAAJZFiDHv5LR/9XN/f0/ybJDFtuOACCLvS5tnjktcPe9r7KK345HDWf0TYBmZ1rAWTtiPPPmxoG+j2O6P5tvBQQA2ez3060+2tXVOuX025zvXmY87Z3egV8gAIFUCvjWTnvG3Gz8unc23P278VQ2Eo0qSgABQFFM6U80ctHGi0nTexSpp6a/tWghBLIqQLcabf+2ob9/IKsCaPcZAQQAZyzwmwiMdHQ/gZW6AbcN4u0AgVQJ/Fw+7N/QNNj3w1S1Co2pSAABQEV86TxYAgA93r7pakv2HVrp9nS2Eq2CQBYEXJ+sCPoPTUO9t8iHvfzTxgsCZwSwEuAZC/x2v4B8UDj5wPhcS+OaTczq1bIZtwXh3QGBJAlYtVeG+5c2XXhBT/NQ75cx+Cep86pXV3lf4AWBxQX2rV9fn1+28rWyKsib5I6BhsVTYy8EIFArgeDKfm3Mu5q0+xD190/Vqh4oNxkCCACS0U+xqOVYR8caVt51smjIdQgEYtElqAQEZgRmbukz5gZ/ee6Da3fsOAYWCBQjgACgGCWkOUtgJhCg3LWW+XUSCDSetRN/QAACVRNgqw5qj66fPlZ383n7f3u8agWjoFQIIABIRTfWphGytPBqZrrWWXed0aa5NrVAqRDIogDvl3P81xcmln8YA38W+z+cNiMACMcx07nct+6yFbkVU3/tW/d6z9CFmcZA4yEQoQA7NaA1X3/YFT7VPjw8GWFRyDoDAggAMtDJ1Woib9mSGz109AUyLfkmrVVPtcpFORBIu4DcjfNr0urdTQN9X5EPbbkMBy8IVC6AAKByQ+RwjoDcbEzjHRtlRUF6vfz++HN2408IQKAIgeAJfZr4m/Kwnvc2D/V/s4hDkAQCJQkgACiJC4lLFRhv736QI3WdzAq8gIyqK/V4pIdABgVOyPn9z7Lj97fctXtnBtuPJldJAAFAlaCzXsz+9vZ1HuWukS81r5CZgXVZ90D7ITBHwKl7WKub83n9sdW7do3O2Y8NEAhZAAFAyKDIbnGB4DqBsUNHn82KriHmxy2eGnshkG6BYJpfbqX9Niv+SPOFD/gqbdvmp7vFaF2cBBAAxKk3MlaXk08g1K+wxH8hH4JrMtZ8NDfDAjMr9nnep6zyP7p2YKA/wxRoeg0FEADUEB9FnxSYWWp4+YqriOkvZctj4QKBNArIt30nge53SfEnGzXfiqV609jLyWoTAoBk9Vfqa3ugs7PLU96L2ee/UEZdkPoGo4HpF2A1qDR9irjw6abBwbvT32C0MCkCCACS0lMZq6fcPqjH2jZfwdr+uXxjeqb8uSJjBGhuggXk2/5h+bb/H07rT7f077pTPmjlLY0XBOIlgAAgXv2B2swjEJwiWLZsxTOcoqvl3OmTjDG5eZJhEwRqLTCpnPpv1vxvzZr/C1P8te4OlL+UAAKApYSwP1YCRzZvbvan7fPkHunnWU2PM0pWF8ALAjUSsNYWSJvvyII9XyZl/12m+A/XqCooFgIlCyAAKJkMB8RF4Eh3d0uhQDIzwM9lZ5+AmYG49Ezq6zFJrL7hlLrV8PTtjcPDh1LfYjQwlQIIAFLZrdlr1HhbW4Ol/NOI+OnKuicpY1ZlTwEtjkpAzumPG6e+Lhem/qddlvuvtTt2HIuqLOQLgWoJIAColjTKqZoA9/TkR08UHisXD16pmJ6mSHVUrXAUlCIBt0uW6bldK3dHw9DuH8mHpcQBeEEgPQIIANLTl2jJAgIzCw4Z/STn7BO1XDcgSxHXL5AUm7MsYNUReeLe92Rq/1uecV9v6O8fyDIH2p5+AQQA6e9jtHCWQDA7MDJlH2nYXcFsr7DKbJGrCPWsJPg1IwJWySOqWP3cEH2LiL7ZuOH8n2Ep3ox0Ppo5I4AAAG+ETAuMdXTIEsTm0fKtT04Z0OOs77YYT3uZRklp431rp2UG6BdG6zvZ6u/bFeZHOJef0s5Gs4oSQABQFBMSZUXgvnWXrcjVn3ikInq0rN1yuVX0MJkhaMhK+9PUTl+5Me3Uz7TWP3VEP5icOv7TDXv3nkhTG9EWCFQigACgEj0cm3oBWb6NRi/auFlWG7hcLii8XC4ofJjc+92DWw7j1fXBt/sc6d/LTM7PlKGfMuuftg7u6otXLVEbCMRLAAFAvPoDtUmAQHAdwaGpqR7nzEPktsOHWOceoh0/SG49XJmA6ie/itYeFev/kYDs16zdr42jXzc0rfoDbd9eSH7j0AIIVE8AAUD1rFFSigWCmYLDF21qc8b1KNKXKMc97Nwlct/4xXiOQZkdf3Kg/4NY/kFmXv5AmnaQM39oGNp5t3xwYW39MllxGAROCSAAOCWBnxCIQCAIDMa6uh7glNelretiUl1ysWGXrF4of9uOrC9YFDw0x3M8wIYGZHW9flbUr9n1+77ub93Tuy+CLkGWEIDA/QIIAPBWgEANBYIVDFkv2yBrzFwo1dggFx/K72oDszqffbeOSK+zRrUk7VbF4BY7qfOIU26/Vma/DO73yiNx98gX9+BxuHuY3MzP5v7+IzXkR9EQyLQAAoBMdz8anwQBmUXQ+zs7W/KcW+eIWxW7BmLdKIOp3J3ADXIdQqM8KbFBM62UGYZ6x67eMC2Xp9LV+5bqPUXLfOM8UtoY5eQWR23kQkYjsw8nb3e01peLGq2Sn1Z+snLWs9r3FU96hifI0YRlN6GNniCmE1KHY5poXB7IJGvg08x/MqCPM+lxo/TBHP3/+/2S586dt8DCBbgmbxSMhsBoCAzWEAAArpJuXvr/YLQAAAAASUVORK5CYII=;" vertex="1" parent="1">
          <mxGeometry x="70" y="420" width="40" height="40" as="geometry" />
        </mxCell>
        <mxCell id="MWtXkFUQYbGvttKdn1CM-25" value="Node 2" style="text;html=1;strokeColor=none;fillColor=none;align=center;verticalAlign=middle;whiteSpace=wrap;rounded=0;fontSize=15;" vertex="1" parent="1">
          <mxGeometry x="60" y="380" width="60" height="20" as="geometry" />
        </mxCell>
        <mxCell id="MWtXkFUQYbGvttKdn1CM-26" value="" style="shape=image;verticalLabelPosition=bottom;labelBackgroundColor=#ffffff;verticalAlign=top;aspect=fixed;imageAspect=0;image=https://cdn.iconscout.com/icon/free/png-256/prometheus-282488.png;" vertex="1" parent="1">
          <mxGeometry x="115" y="420" width="40" height="40" as="geometry" />
        </mxCell>
        <mxCell id="MWtXkFUQYbGvttKdn1CM-27" value="" style="shape=cylinder3;whiteSpace=wrap;html=1;boundedLbl=1;backgroundOutline=1;size=15;fontSize=15;fillColor=none;" vertex="1" parent="1">
          <mxGeometry x="60" y="520" width="100" height="110" as="geometry" />
        </mxCell>
        <mxCell id="MWtXkFUQYbGvttKdn1CM-28" value="" style="shape=image;verticalLabelPosition=bottom;labelBackgroundColor=#ffffff;verticalAlign=top;aspect=fixed;imageAspect=0;image=data:image/png,iVBORw0KGgoAAAANSUhEUgAAAgAAAAIACAYAAAD0eNT6AAAAAXNSR0IArs4c6QAAAGhlWElmTU0AKgAAAAgABAEGAAMAAAABAAIAAAESAAMAAAABAAEAAAEoAAMAAAABAAIAAIdpAAQAAAABAAAAPgAAAAAAA6ABAAMAAAABAAEAAKACAAQAAAABAAACAKADAAQAAAABAAACAAAAAACJBzC+AAACC2lUWHRYTUw6Y29tLmFkb2JlLnhtcAAAAAAAPHg6eG1wbWV0YSB4bWxuczp4PSJhZG9iZTpuczptZXRhLyIgeDp4bXB0az0iWE1QIENvcmUgNi4wLjAiPgogICA8cmRmOlJERiB4bWxuczpyZGY9Imh0dHA6Ly93d3cudzMub3JnLzE5OTkvMDIvMjItcmRmLXN5bnRheC1ucyMiPgogICAgICA8cmRmOkRlc2NyaXB0aW9uIHJkZjphYm91dD0iIgogICAgICAgICAgICB4bWxuczp0aWZmPSJodHRwOi8vbnMuYWRvYmUuY29tL3RpZmYvMS4wLyI+CiAgICAgICAgIDx0aWZmOlJlc29sdXRpb25Vbml0PjI8L3RpZmY6UmVzb2x1dGlvblVuaXQ+CiAgICAgICAgIDx0aWZmOk9yaWVudGF0aW9uPjE8L3RpZmY6T3JpZW50YXRpb24+CiAgICAgICAgIDx0aWZmOkNvbXByZXNzaW9uPjE8L3RpZmY6Q29tcHJlc3Npb24+CiAgICAgICAgIDx0aWZmOlBob3RvbWV0cmljSW50ZXJwcmV0YXRpb24+MjwvdGlmZjpQaG90b21ldHJpY0ludGVycHJldGF0aW9uPgogICAgICA8L3JkZjpEZXNjcmlwdGlvbj4KICAgPC9yZGY6UkRGPgo8L3g6eG1wbWV0YT4KlqhK0AAAQABJREFUeAHs3QecHVd5N/7znDP3rrRqWyVbWPY2rWQvNvCKF0wXIaYE08EBkxASQjHFGAjkzUtC/b8kBJtiY1og1NCMEwc7oYNMb4JQhLSrbbZk2ZK2qK529845z/+ZlSWttO2WmXun/O4Hs7szZ075nqt7nntm5gwpvCAAgVgL8Nat3sjQ/laP/HWOVKtSupG0a1SsG5zjBqW4gRStYa1WEdvlVul6Q7RcKVevrK53yi5jYzxjrVFGG7ZkHDujPG1mGu47q0nLVrbKOkllrLaqQEpNKeMmpLwJy3zCKDfBZE6QU0dZ8WGl6JA2NC7lH2JHh6S8cc3qoM/e/pb2dQdp2zY/1rCoHAQyLiD/xvGCAARqJXBk8+ZmO2k3MPEGRXqDc2qD0rxBK1rPTq2TEXmd0qZJRupE/Vu1EhWQtaOKzH6t3H7WdK9ytEdrtUex20NMe8wys2f1rl2jtbJHuRDIukCiPlSy3llof/IEWL4+H2q/eIMlu1Er7mLSnfItvcu31GWM6pBxvT55rQqzxu44+2pQe2pAZhf6Sbl+x9Rv2PQ3DO28Wz6ghBAvCEAgCgEEAFGoIs/MCQQD/cHOzg5y3iVE3CMAl8jQ1UOkNsvvMh2PV+kCPCGnG3Y5TX/QSu2QmYMdctLiD2v6+4fkg8uVnh+OgAAEZgsgAJitgd8hUIQAd3XVjbD3QO3cQ5jUQxzzQwzxZRIDrCjicCSpWEBmDZz+jdbu18zm187YX7fU1f2eduyYrjhrZACBDAkgAMhQZ6OppQvIN3sa6+q6RDnzcEV8uWP1MLb2EmNMrvTccERUAtbagvSJzBKon0s//VSuo/hZU3//TvmAwymEqNCRb+IFEAAkvgvRgDAFDvT0rDTH7aMU2UfLLPMjZOD/38qo1WGWgbyqIyAXIh6Wiyd/oZh/InHAD2193Y/X7thxrDqloxQIxF8AAUD8+wg1jFBgvK2tgcl7DGv9OMX2sXIL3f8ycul6hEUi6xoJWN/5xtO/kvsT7iRy31fK/qBpcFBuZ8QLAtkUQACQzX7PbKuD8/ejbB6lLF+hSV3hyzl8Ge3lGjO8siYgMwRy+YD7FRn9Lav1N1vqzI9xHUHW3gXZbi8CgGz3fyZaP3LRxovJ0FPkXvsnEqvH4Na7THR7GY10x2Udhu9rrb8lazB8rWW4b1cZmeAQCCRGAAFAYroKFS1WgHt68mMTU1tJ6SvlCrCnyhI6cr89XhAoTYCs6mfD/8WK7mhuXHUnbd9eKC0HpIZAvAUQAMS7f1C7IgWCc/mW8k+Tb/jPlHP5VyhjVhV5KJJBYGkBq44oQ9+S99dtigq349qBpcmQIv4CCADi30eo4QICR7u6WqetfiZrfo7z3R/h1rwFoLA5VAHf2mmPzLeVpltzefpPLGccKi8yq6IAAoAqYqOoygWCtfP9afs8OY9/la/4sbhiv3JT5FC+wMydBYbvJG2+rAt1tzTc/Tt5OBJeEEiGAAKAZPRTpmt537rLVuRXnHgGM10tD6t7Ir7pZ/rtENvGBzMDxuhvaKLPT5449tX1+/bJkxTxgkB8BRAAxLdvMl2zYG39sbbNV8hjZ18kT6p9BpbZzfTbIXmNt/aYPIL5NmL+TNPQ7u/IBy2eXZC8Xkx9jREApL6Lk9XAA52dXZ4yfylPiHuRrMB3QbJqj9pCYK6Ab/luT6tPmxx9qqGvb3BuCmyBQG0EEADUxh2lzhLYt359fX75yufJFdYvkc1ynz5eEEifgCw8xHJ6QFYg5H89MTVxy4a9e0+kr5VoUZIEEAAkqbdSVteRtu7NRHSNJX6RrMbXkLLmoTkQWFBAgoFx4/jTjvRHWod6exdMiB0QiFAAAUCEuMh6rgBv2ZIbGzv2LFLuGibaOjcFtkAgYwLOfVceP/GRpqaVt2GxoYz1fY2biwCgxh2QleLv6+xcm2PzCmnvNfLfeVlpN9oJgeIF7L2KvA/nyX5kVX//weKPQ0oIlCeAAKA8NxxVpMB4e/eDHKnr2KoXyDP26oo8DMkgkGWBSblO4POkzPubBnf9LssQaHu0AggAovXNZO5yCx+Nt3ddKT9ej2n+TL4F0OiwBOT0AGl9Q9Ng33+HlSXygcApAQQApyTws2KB4Pz+6KGjV8u3/TdqrXoqzhAZQAACMwLsu99pY/658aLzv0jbtvlggUAYAggAwlDMeB7BSn25FVMvtT6/3nhqQ8Y50HwIRCYgqwndRcQ3TJ84/gmsNBgZc2YyRgCQma4Ov6FjHR1rmHLX+myv85RuCr8E5AgBCMwn4KwdkecPvI/zdFNrb+/R+dJgGwSWEkAAsJQQ9s8RCB6963T+tXIv83W4f38ODzZAoGoCvnJjhuh9MitwY3N//5GqFYyCUiGAACAV3VidRtw/8L9OBv7XysC/pjqlohQIQGApgZmFhZR6Pyn/A02Dg4eXSo/9EAgEEADgfbCkQHCO36s/cZ0jeiMG/iW5kAACNRMIAgFP0buPTx+/EUsN16wbElMwAoDEdFX1K8o9PfnRicLLZHrx7yVWXFf9GqBECECgPAF7LynvnY2NKz+O1QXLE8zCUQgAstDLJbYxeBTvaGf3nym2b5fFSNpKPBzJIQCBmAiwUwNa01sbB3tlYSEl/7TxgsAZAQQAZyzwmwiMdHT/sXxKXK+VehBAIACBdAgwq1/Lowjf0DrQ+710tAitCEMAAUAYiinIY7Sr6xLl6/corf4kBc1BEyAAgXkEWPHtzPqNeALhPDgZ3IQAIIOdPrvJJx/S473DKvfXRh5JNnsffocABNInYH3na09/LO+pt67u6xtJXwvRomIFEAAUK5WydLx1qzd2977XyFXDb8WV/SnrXDQHAkUIBHcMaFZvaR7q+7AMBPInXlkTQACQtR6X9o50bvojtnwj1uvPYOejyRA4R8Ap+1uP9Wsah3Z//5xd+DPlAggAUt7Bs5snS/deyMrcILf0PXf2dvwOAQhAQAS+yJ76m5a+vnugkQ0BBAAZ6Odgun98zz2vkyuB3yaDf30GmowmQgAC5QhYe0wZ8xZ5/PCNOC1QDmCyjkEAkKz+Krm2o21dlzvNH9XKXFbywTgAAhDIpAA5/pXV+uWtg72/zCRARhqNACClHR08qc85849O08vlIj+5rR8vCEAAAsULyFWBzmN1s83Tm/HEweLdkpQSAUCSeqvIuo50dj+L2N6slDm/yEOQDAIQgMD8Ak7dQ5pf0TS4+475E2BrUgUQACS15+ap99GurtZJ1h+UW3uummc3NkEAAhAoW4AdfT6/jK5dvWvXaNmZ4MBYCSAAiFV3lF+Zsc7u51vf3qSNaSk/FxwJAQhAYDEB3i97X9U8uPvWxVJhXzIEEAAko58WrOX+9vZ1Huc+LGf5n7VgIuyAAAQgEKoA3ZrX9ppV/f0HQ80WmVVVAAFAVbnDLSw418++/Ri+9YfritwgAIEiBKw6QNr9ddNQ/+1FpEaSGAogAIhhpyxVJXlwz2pl9Y2K1F8slRb7IQABCEQs8Am7PHfd2h07jkVcDrIPWQABQMigUWc33tb1OF/rT8t9fRdFXRbyhwAEIFCUAKtBki8ksoDQD4tKj0SxEEAAEItuWLoSvGVLbnT86DudUm/Eff1LeyEFBCBQXYGZdQOI/rFxw/lvo23b/OqWjtLKEUAAUI5alY851N3dYX31BSn2YVUuGsVBAAIQKEmAnfqxIXN149DOu0o6EImrLoAV4qpOXlqBYx0br7ZT6tdyFAb/0uiQGgIQqIEAafXIAtn/GW3fhIeO1cC/lCIxA1CKVhXT3rfushW5FZMflCJfXMViURQEIACB0AQcuY9PTk1eu2Hv3hOhZYqMQhNAABAaZXgZjbR1b5aOuVXu7b8kvFyREwQgAIHqCzhlf8sq/9y1gzt3V790lLiYAE4BLKZTg30y5f8CWcf/Fxj8a4CPIiEAgdAFgieRGmt/iVMCodNWnCFmAComDCcD7unJj54ovE865JXh5IhcIAABCMRNgD/Q1Lj6jbR9eyFuNctifRAAxKDXRzs7Nyg2X5Gq4EK/GPQHqgABCEQnYJl/Qr5+buue3n3RlYKcixFAAFCMUoRpxts3PtY5ukUZtTbCYpA1BCAAgTgJ3KdIP6d5YNeP41SprNUF1wDUsMdH2rtfVXDu2xj8a9gJKBoCEKiFwHm+X/jeaHv3S2tROMo8KYAZgBq8E4Lz/WMnCh+Sol9Sg+JRJAQgAIEYCdBHmxpXvgbXBVS/SxAAVNk8eHwvKe8/DNEjqlw0ioMABCAQSwFn7Q+X5ejZeLxwdbsHAUAVvcc6Nl9asPYOz9CFVSwWRUEAAhCIvYBTbkhrdWVzf/8fYl/ZlFQQ1wBUqSPl/v6nsi38CIN/lcBRDAQgkCgBrXS7dfrHo+1dT0xUxRNcWQQAVei80Y7u1/mKvqqMWVWF4lAEBCAAgUQKyJNO11ii/x7r6MZ6KFXoQZwCiBCZlTKjbRtvIk3XRFgMsoYABCCQPgGmG5uGel8ng5Q8BR2vKAQQAEShKnnuueCC5Svqln+RmZ4eURHIFgIQgEDKBejWI27qz9qHhydT3tCaNA8BQATsR7q7WwpW3a5YXR5B9sgSAhCAQGYEgjsEclz/9Ia7fzeemUZXqaEIAEKGPtTd3WEn+evKo40hZ43sIAABCGRTgNRO7cxTGod23pVNgGhajQAgRNfxrq6HyLK+X1OK1oWYLbKCAAQgAAFl7yX2nizXBfwWGOEI4C6AcBzVzJr+Bb0Ng39IoMgGAhCAwFkC5nyf+M7Rzs2PPGsz/ihbAAFA2XRnDgzu8XdEX5c1/Vef2YrfIAABCEAgTAG5TbBBsf3WaNvmJ4WZb1bzQgBQYc/L4H+17/Ntks3yCrPC4RCAAAQgsKQA1ftc+Opo+6arlkyKBIsKIABYlGfxnWMdm66RBX4+ZzztLZ4SeyEAAQhAICwBz5i8Jf4CniZYmSgCgDL9gtX9WPGHZEoKF1KWaYjDIAABCJQrIJ+92pL6qDxW/dXl5pH14xAAlPEOkG/+fyuHvbeMQ3EIBCAAAQiEJBB8ASNSN8kXsteHlGWmskEAUGJ3j3Ru/Hv55v9PJR6G5BCAAAQgEJ3ADSMd3X8XXfbpzBkBQAn9Otq+8R3E9M4SDkFSCEAAAhCogoCci32XzAS8tQpFpaYInL8usivljfV2SfqWIpMjGQQgAAEI1Ebgrc2Dfe+oTdHJKhUBQBH9FUz745t/EVBIAgEIQCAGAjKw/V3TYB9O1S7RFwgAlgAKLvjDOf8lkLAbAhCAQNwEWP1N81DfDXGrVpzqgwBgkd4IbvWT3bjafxEj7IIABCAQVwEmvrZlYPdNca1freuFAGCBHhjr6H4lK3XzAruxGQIQgAAEkiDA6mUyE/AvSahqteuIAGAecZn2f6Gv+LNY5GceHGyCAAQgkCABq5QzTC9oHur9coKqXZWqIgA4h1nW9r9S1vb/Dyzvew4M/oQABCCQUAFrbcF43tObB3q/ntAmRFJtBACzWMfbuh7ntA7eIMtmbcavEIAABCCQeAGeINJPbBro/VHimxJSAxAA3A95sHPzFu277+KRviG9s5ANBCAAgZgJyOmAwzlWj2sc6vtNzKpWk+ogABD2Q11dnbagfyyD/9qa9AIKhQAEIACBKgnYezXnH9E4tPOuKhUY22IyvxTw0a6uVleQaX8M/rF9k6JiEIAABMITMOc7Knz98AU9TeHlmcycMh0A7Fu/vn7a6TvYqK5kdh9qDQEIQAACpQvozQWvcPtQW1umr/fKbAAg9/ib/LKVX5I3zsNKf/PgCAhAAAIQSLIAafXI1Sr/eRkLMjsOZrbho20bPygXQFyZ5Dcw6g4BCEAAAhUIaPWs8fbu91eQQ6IPzWQAECzxS5pekeieQ+UhAAEIQKBiASb1mpH27ldVnFECM8jcXQAzC/0o+k9Z5S+TwU8C36OoMgQgAIFIBaxia0hfmbWFgjIVAMhUz4Ocsz9UxqyM9N2EzCEAAQhAIFkCVh1ROffI5v7+HcmqePm1zUwAcKCt5zzlCj83ntpQPheOhAAEIACBtAqwssM+qYefNzBwIK1tnN2uTEyDc1dXnTEFWd8fg//szsfvEIAABCBwRoCUaTOO/p23bMmd2Zre3zIRAIw5+pBidXl6uxEtgwAEIACBMAQ06UeNjR+7KYy84p5H6gMAubrz1UrRX8W9I1A/CEAAAhCIiwC/fKyz+2VxqU1U9Uj1NQDB0/0KTn0bj/aN6u2DfCEAAQikU8C3djrneX+U5qcHpjYAGOvouNBZ75dkVGs6355oFQQgAAEIRCxwH3vqoS19ffdEXE5Nsk/lKQDu6cmz1bdi8K/JewqFQgACEEiLwHlqWn05rRcFpjIAGD0+/X5l9EPT8g5EOyAAAQhAoDYCwTMDxkaP/HNtSo+21NSdAhjr2PRCVvy5aNmQOwQgAAEIZEqA6armod5b0tTmVAUAo11dlyinfi6r/K5IUyehLRCAAAQgUGMBa486k3to6+CuvhrXJLTiU3MK4L51l62Qwf9WDP6hvTeQEQQgAAEInBIwZhVbe+u+9evrT21K+s/UBAC5+smbZfDfnPQOQf0hAAEIQCCeAsbQA3PL6z8Qz9qVXqtUnALAef/SOx5HQAACEIBAmQJMfyrXA3y5zKNjc1jiA4ADnZ1dxle/kif8rYqNKioCAQhAAAKpFbBKHc45/eDG4V3DSW5kok8BBPdmGp++gME/yW9B1B0CEIBAsgSMUmuccV/grVu9ZNX87NomOgAYO3TsXbjf/+wOxV8QgAAEIFAFAXnA3OjwvndWoaTIikjsKYCDnZsez8zfkUgssW2IrFeRMQQgAAEIRC4gpwKcx2pr01DfDyIvLIICEjl4yjr/awrW/NYzdGEEJsgSAhCAAAQgUJQAKzvMOe+y1t7eo0UdEKNEyTwFQN5NGPxj9C5CVSAAAQhkVICUadNTLpG3BiZuBmC0fdNzFXGqlmPM6L8bNBsCEIBAagSY1LNaBvpuS1KDEhUAHGjrOU+pyd8bbZqThIy6QgACEIBAugXYqoO+Zx943sDAgaS0NFGnADwz/VEM/kl5a6GeEIAABLIjEDx+Psfeh5LU4sQEAGMdG69mpqcnCRd1hQAEIACBLAnwc+Q09fOS0uJEnALY396+jljvwLf/pLytUE8IQAAC2RQITgXk69Qlq/v6RuIukIgZAI/yN2Pwj/tbCfWDAAQgAIHgVEDBVzclQSL2MwAz0ynEiX/oQhLeDKgjBCAAAQiEI8CantnS3/uf4eQWTS6xDgDG29oanM7tksX+1kXTfOQKAQhAAAIQiECA7D5FdHFzf/+RCHIPJctYnwJwlH83Bv9Q+hmZQAACEIBANQXYrJdr1/5fNYsstazYzgCMdm5+pGX3Q6z1X2qXIj0EIAABCMRBIHhWgHzLvrxlsO8XcajPuXWI5QxA8Jhf69uPYvA/t7vwNwQgAAEIJEVAxjAt37I/xkrJr/F7xTIAGB8/+gZj6IHx40KNIAABCEAAAiUJPHisvfu6ko6oUuLYnQIYb7/4Ikd2p7R/eZUMUAwEIAABCEAgQgF3XGm1WS4I3BthISVnHbsZAMf2vdIKDP4ldyUOgAAEIACBeAroFc6q6+NWt1jNAIy2b7xCbpv4ZtyQUB8IQAACEIBApQJO68e39u/aVmk+YR0fmxmA4MI/eczvjWE1DPlAAAIQgAAE4iRA0/6NvHWrF5c6xSYAGBs78lq5YHJzXGBQDwhAAAIQgECYAuTpS0f33PPKMPOsJK9YnAI40NZznuHJPmXMqkoag2MhAAEIQAACcRaQtQEOL9du46r+/oO1rmcsZgDITL0Tg3+t3wooHwIQgAAEohaQBQHWTDn9tqjLKSb/ms8AjHVsvtRX7n+CBROKqTDSQAACEIAABJIsYH3na60vbRnuk2fd1O5V80GXlb0eg3/t3gAoGQIQgAAEqitgPO0R1f62wJrOAIx2bnqyYv5adelRGgQgAAEIQKD2ArJE8B/LcwK+U6ua1GwGIFgb2VmO3cIIteoIlAsBCEAAAtkSkHHwBvmvZuNwzQoe69j0F1qrnmx1N1oLAQhAAAIQOCkgA/CDxts3XV0rj5qcAuCurrqD03q38dSGWjUc5UIAAhCAAARqLsBqsKlp1Wbavr1Q7brUZAZgzJlrMPhXu6tRHgQgAAEIxE6AVMfo2NGX1aJeVZ8BONDTs1IfKwySUa21aDDKhAAEIAABCMRM4L6pyWOd6/ftm6hmvao+A2BOFN6Awb+aXYyyIAABCEAg5gLn5ZetlOXwq/uq6gzA4Qt6mnwzOYxV/6rbySgNAhCAAATiLSBLBB/ylN/WNDh4uFo1reoMgK3zX4/Bv1pdi3IgAAEIQCApArIgXgMrr6qzAFWbATj57b8wpIxanZQOQT0hAAEIQAAC1RKQWYBxmQVor9YsQNVmAPzc9Osw+FfrbYRyIAABCEAgaQIyC9DIlLu2WvWuygzAoQsvbbQ0Jef+8e2/Wh2LciAAAQhAIHkCwSyA0a6tub//SNS1r8oMgDWT+PYfdU8ifwhAAAIQSLzAzCwAU1VmASKfATi4adMqLvDdwQUOie8ZNAACEIAABCAQsYB1dtSfPnFh1OsCRD4DYHz3Cgz+Eb9bkD0EIAABCKRGwGjTXLds1UujblCkAQD39ORZueuibgTyhwAEIAABCKRJwLfu9bx1qxdlmyINAMYmCi9SbNZH2QDkDQEIQAACEEibgGfowtE9+yJ9UmBkAcDMM47JvTFtnYL2QAACEIAABKohwFa9ScbSyK7ViywAGO3Y+EyldHc1kFAGBCAAAQhAIG0CWque8Y6NT42qXZEFAGzd66KqNPKFAAQgAAEIZEOAXh9VOyOZWjjYuXmLZvfLqCqNfCEAAQhAAAJZEdCsHtw41PebsNsbyQwAMa78D7ujkB8EIAABCGRTwJGK5G660GcADl508flOTQ97xuSz2VVoNQQgAAEIQCA8AbkYcMr37IXnDQwcCC9XuUovzMyCvLT2X4nBP2xV5AcBCEAAAlkVIKPqcmyuCbv9oc4ABAv/jB4r7JXKtoZdUeQHAQhAAAIQyK4A729qXL2Btm8vhGUQ6gzA+Inp52LwD6trkA8EIAABCEDglACtGzt09Nmn/grjZ6gBgLUu9CmKMBqJPCAAAQhAAAJJF2BFoY6xoZ0CGOu8+IHM9ndJB0b9IQABCEAAAnEVYMuXtNy1e2cY9QttBsBZ/5VhVAh5QAACEIAABCAwvwBp/Yr595S+NZQZgAM9PSvNscl9yphVpVcBR0AAAhCAAAQgUIyAVeqwP3ls/fp9+yaKSb9YmlBmAMxE4fkY/Bdjxj4IQAACEIBA5QJGqTX55SuuqjynkNYBsIr/KozKIA8IQAACEIAABBYXIKa/XDxFcXsrPgUw0ta9mbQK5YKE4qqMVBCAAAQgAIFsC1iyG9cODPRXouBVcvDMsZolEqk4jqi4Gsig9gJybkpuBLEFeVNNW2N8stbX8lMpy8oZp4wl5ZuVyqjVta8tagCBeAkE/37k38yoJjM1U7Pg3wsb7az12BjPKJfzLefImJxMA+NDN17dV/XaeMp7sRT695UUXNGbiLdu9cbu3rdHKnBeJZXAsbUTCC4oIeXGDOsxJjUuHyvjTrnDWunD8hlzWLE6IrU7Kj+PkuZj5Pi4jOrHybrjsuzzRE7rEyfq6k60Lls2VewKVUc2b272p+3l7NRzlKbnS/7LayeAkiFQQwGy+0iZTzG5OyYmJ/9nw969J4qpTbDq6tjU1DLf2uV1Ll9vc7aena5nrVcYZ1cqopXy72uV/HsOLsxerRyvkZ/yHzXIjG2D/LtvYl81GbKNcv3WymLKRJqYCVi1t+muvotkEHfl1qyiAGCsY+OVsjDB7eUWjuPCFwi+RRirDrJW90jn7pOnPeyTf/z3ST/tJ/lPsz3oPHVQntR0cOUFF4zTtm3yDb12r/s6O9fmrP4nCQT+sna1QMkQqLrACZkve0tTff5G2rFjuuqlzyowCCZGjvgtxlMtjnitVtzKSq9jx+skWJAvd7zeWrVeGXqAzDw0zjoUv9ZawOknNw/v+ka51agoADjY2f0leU5xKFcjltuAjB4XfEvolf92yYdIvwz2A0xmOFfgu9as9O6p9QdKOX0iweTVBes+iQdJlaOHY5IkYH21x8uZP2ka2Pn7JNU7qOt96y5b4S2f3ECG2uSx723MukPOU3TLuYvNVukuo2QxeLyqJsCK/61lcPeflVtg2QHAwU2bVukC75eCMX1brn6xx1l1hInuIOJt8i3+Z41DvTuk4+TLfrpeI12bnuEc/7t8goRye2q6dNCadAjwfuPRIxv6+gbT0Z4zreCurroR9h5Izj1C/gH/MTv7BJxeOOMTzW/u+NTkxNpy1wQoOwAY6ex+EbH6dDSNQq4yujuP1e2K+F8al+e/lcRv9eX04mj7xnfK+cuKLmwpp1wcA4GoBYLTc0T0hNaB3u9FXVYc8t9zwQXL63MrrmTtXuKYniiBfdnjTRzaE9c6yAzM1U2Du79QTv3K7pCRzo1fl3sRn1ROoThmYQHrO19r+hcvT9en8VvCwi0/uWfmW4RTO+UixPal0mI/BBIlIF+Ymof6XpyoOodU2ZGLNl4sn2v/xyd+IU4ThIR6fzas1B0tg31PKyfXsgKA4MItzXofOrIc8oWPkavxb7PK+9vWwV19C6dK/x65HuAVctHih9PfUrQwKwLBt3+lzKa1gzt3Z6XN87VztKvrEuXofTIZ8MT59mNb6QJWbr1etjx3/updu0ZLPbqsc62eM1dh8C+VepH0Vh2Qizme0zTY/6ysD/4nlewX5Pamml4ZvUhvYRcEShaQ+/t/lPXBP0Br7u//Q/Pg7icF09a+3H5cMiQOmCNgZF0Iua36eXN2FLGhrACACFf+F2FbVBLn3Ndyy/UlciXnvxd1QAYSNQ0OHjae95MMNBVNzIgAafO1jDS1qGYG56x1wVwqF0XcWdQBSLSogNyyWZ0AYH97+zqZznrUorXBzqIEJJB6V8tw/5XlTN0UVUCCE8k3hF8muPqoOgTOEiDW28/agD9U657efc0DvU+QSyNvBEdlAlbT4450d7eUmkvJMwA58p6F27RKZT47vTw8KTgl+FdNA31vloswyl7F6exc0/WXrGI2lK4WoTVZFpAFdoaz3P6F2i6ff7Z5qPe1ck3A605eJ7FQSmxfTCA4JV8o0DMWSzPfvpIDALk46znzZYRtxQkEF2zIsrsvkPNgnyzuiGym0sEyxHhBIC0CTgdLauO1gEDzYO/7DdNLEQQsAFTEZse25LG5pADg8AU9TXKb2tYi6oIk8wgEb27P6L+QiPeWeXZj02wBLSuV4wWBlAiwPEgjJU2JrBnyufgJUXpNZAWkPGPH/ITxtraGUppZUgBQqJt+uvF05U8QLKWGKUprmN9U7oINKWJAUyAAAQjMK9Ay1HeznBb4x3l3YuOiAsEy6pbyJa0HUFIAoJlLPsewaI0ztZP/tXlo9/WZajIaCwEIQKBEgcZBuTaK+KslHobkIiBuTy8FougAIFihTeawriglc6Q9KSBX+f3miCu8Ch4QgAAEILC4gMwAyLIo9kXyuXnX4imxd46AdU/iLVtyc7YvsKHoAGCMzePlGS0rFsgHmxcWkCf36avah4cnF06CPRCAAAQgcEpgZi0QVn+OiwJPiRT505hVo+NHH1dk6uKfusbMJZ1bKLYCaU8nT+97O1b3S3svo30QgEDYAk1DfT/wlPtQ2PmmPT9ZQ+XKYttY9AyAtcVnWmzhaU8XTP03Xnj+DWlvJ9oHAQhAIBoB92Y5IxA8dh6vYgWYiv6yXlQAMNax+VLP0IXFlo90JwU0uzfRtm24nQ1vCAhAAAJlCASnAuSagLeVcWh2DyHVETx9sRiAogIARfbJxWSGNLMEnPtu81D/N2dtwa8QgAAEIFCiQGPj6k+wssMlHpbp5GT0k4oBKCoAYMajG4vBnJ1GE7199t/4HQIQgAAESheg7dsLWul3l35kdo9wzhb1uOUlA4ChtrZlwvjo7FKW1fL/aRza/f2yjsRBEIAABCBwlsDk5PHPyB0B42dtxB8LCmh5OBD39OQXTHD/jiUDgNWUe4ykDYIAvIoVYPpgsUmRDgIQgAAEFhdYv2/fhFH8mcVTYe8ZAaofmbKPPPP3/L8tGQDIPexY/Gd+u4W2Trq8+vJCO7EdAhCAAARKF3BkPlv6Udk9wrBbcuxeOgAgXjKT7BLPbTmx+kZrb+/RuXuwBQIQgAAEyhVoHdi13Sk3VO7xWTuO2S45di8aABzZvLlZzrs8KGtwlbRX7v2/tZLjcSwEIAABCMwvII9Sv2P+Pdh6roBVZstYR8eac7fP/nvRAGC64B5j5PkCsw/A74sLkHHfWzwF9kIAAhCAQDkCztB3yjkui8fI2C3ju1n0Av5FAwCZzn5sFuHKbbNv+e7m/v695R6P4yAAAQhAYGEBn/2fLLwXe84VkBnpRcfwxQMAx0U/VODcgrP4t/bop1lsN9oMAQhAoBoC5w0MHLC+2lONstJQhjyLZtExfMEAYLSra7Wv6cFpQKhWG7TjvmqVhXIgAAEIZFHAeLwzi+0up83Wd1vuW3fZgk/xXTAAIKcfffIcQjnFZvMY1tSfzZaj1RCAAASqJaBxJ0CR1MbTXq7+xILrASwYAEj+i148UGT5GUtGmJrKWI+juRCAQJUFSN1T5RKTXRzRgmP5YgHA5cludQ1q7/hYDUpFkRCAAAQyI8COsSRwSb3NC47l8wYALLcPsLUPLakMJFZyCyACALwPIAABCEQoIPelT0aYfeqytooeJmP6vLfzzxsAjHds7lHGrEqdRMQNsszTEReB7CEAAQhkW4BI7m7Dq1gBuZavYfSijZvnSz9vAMDsHj5fYmyDAAQgAAEI1FJAvsrW1bL8JJZNRs17GmDeAEAmC+ZNnMSGo84QgAAEIJAeAZnOXvIxt+lpbUgtYZp3TJ83AHDK/u+QikU2EIAABCAAgdAE5AwAAoBSNUk9bL5D5gQAQ21ty9inS+ZLjG0QgAAEIACBWgo4hxmAUv2ttT3c0zMncJoTAKzS+UuDxQNKLQDpIQABCEAAAlELEFEu6jLSlr8xJndoaqrn3HbNCQA0qYecmwh/QwACEIAABOIgQKQQAJTREc6ZOWP7nADAWZ6TqIyycAgEIAABCEAgdAFWNGcqO/RCUpgh0dyxfU4AQJoQAKSw89EkCEAAAqkQYIcZgDI60jo3Z2w/KwAIVgCUfC8rI28cAgEIQAACEIhcQGYAEACUoSxPq33QuSsCnhUAHOy4uFPyXV5G3jgEAhCAAAQgELkArgEok9iYlYcv2tQ2++izAgBNds5VgrMT43cIQAACEIBATQUYFwGW6++MO2uMPysAUE7h/v9yZXEcBCAAAQhELiDT2LhNvVxl0meN8WcHAMRn7Sy3DBwHAQhAAAIQiEJAnlWDawDKhJVHKZ81xp8VAJCis6YHyiwDh0EAAhCAAAQiEdCsEQCUK+sWOAVw/x0Am8rNF8dBAAIQgAAEohYgwzgFUC6yURfPvhPg9AzAobbNF0qeuAOgXFgcBwEIQAACkQtYy5gBKFtZrxjr6nrAqcNPBwBWu65TG/ETAhCAAAQgEEcBrfGsmkr6xSnv9Fh/OgDQik9vrCRzHAsBCEAAAhCITEAWtY8s7wxkrO2ZL/unAwAmQgCQgc5HEyEAAQgkWkDjIsBK+o9JnR7rTwcA5M5srCRzHAsBCEAAAhCISsAyLgKsxFbu9psbAFhGAFAJKo6FAAQgAIHoBQwRTgFUwOxmne4/PQOgNbdXkCcOhQAEIAABCEQuQA4zAJUga2s7Th0/EwAc6e5uUYrqT23ETwhAAAIQgEAcBazGDEBF/WLMqvG2toYgj5kAQJ4TvKGiDHEwBCAAAQhAoAoCbBmnACp0Zr1sZsyfCQB8axAAVAiKwyEAAQhAIHoBg5UAQ0C2wcJ/J2cASDECgBBIkQUEIAABCEQs4OMUQAjCZ2YAFCkEACGIIgsIQAACEIhYwCAAqFiYaFYA4E7+UXGmyAACEIAABCAQoYCPuwDC0D0TAMgtgOeHkSPygAAEIAABCEQp4CmauXYtyjLSnjezmhnzZyDZqXVpbzDaBwEIQAACKRAwFncBVNiN7LuZMf/kbYDKIgCoEBSHQwACEIBAFQSsQQBQITORPhkA8NatntKmqcL8cDgEIAABCEAgcgFLmAGoFNkabma5C1CPDNy7VsIpqjRDHA8BCEAAAhCIXEBjBqBSY6PI7O/sbNGecWsrzQzHQwACEIAABKohYOzJ9WuqUVaay8hzbp12pFrT3Ei0DQIQgAAEUiRgHK4BCKE7HXGrXASoG0PIC1lAAAIQgAAEqiCgEQCEocyuQZPmmacChZEf8oAABCAAAQhEKcAW16yF4UusG7ViwgxAGJrIAwIQgAAEIhdwjFMA4SBzg3YOMwDhYCIXCEAAAhCIXMDDKYBwjCUAUAoBQDiYyAUCEIAABKIWwG3r4QgTcaMmRWvCyQ65QAACEIAABKITCBaviS73bOXsFDVo1mpVtpqN1kIAAhCAQCIFtm5FABBSx2mmlZqcqw8pP2QDAQhAAAIQiE7g6FGsWhuSLpOq15ZoeUj5IRsIQCAhAtbaglLuuLLqiFwHNGF95yek6qhmhgWGR0exBkBI/S93U9R7RIQZgJBAkU22BKyMoNqqAik77RsqyFO1pq2vClqradKu4BRPGzYFP/hJJAOumnbOFQzpaSYusNOSjqflruYCsZtmRwU5JTcti3MUmHlaznfKdjXNmgs6+MmyXfKS/AtO9muWPNibdiYoh2WbmjYmKDcoxyt4Tk3bvCvUOTft+37hxPT09Pnnn1+g7duDusx5SXmkenpyB5XK54/q3JQ5lveMyRmt84UC5aQNeav9nPZVXp4mlpNVROUn5ZxTeZlKzMlXs7yTNORUjmQfK5KfLu9c8DNIq3KyLa/Y5eQR5Hk2nDNO5+XZ5Dml5TjJwzrKa3Z5eUxJTiooeXHOZ5WXduXknGVe25Pb5XEwOaNc3reco6COeJ7JnP5M4wbP9+WdlE9j06reJsO03NPKyQwATqtUXR8FLi7AfIws9cs01bSTAU/LIOuYpuUhFoVgm6xfUVAy4MkdwTODpAwUBRk0puXK1oKVwZSUlu0yuOrgpwyeKhgsZXCVAVYGVxm0ZRBmJQPuqYE0yMvcP9DKID2Tt5O8eDrn8gVfBtO6OlsoyGA6MTlZuGDvXilDvj8n7bVv34I1lvaw2rFjWhIE/yXqFTzV9N6+vvyyZctyOQlYJqdMzjOU97UEJ0HQIsGEleBBrnrOy6xnTqY+86StBBUng5ggIAmCGZKgQgKbHEkgcjJgmdmel29Lsk1+15xj0hLESDATpJEgJth+MoiRnzMBkcsbCVwkMJPAyORk4Zr8MnkLJQo0ppU1Ek3GtGqJq5Z89tV7yup6hUmVxHVe2ivcNLj7Dmlj8B9eEFhSgLZtCwZYDLJLSiU7gdcoi9edmHcCK9kNq0HtfUv12im7rAZlo0gIQAACEIBASQIUnALAKxQBT9EyzcZ4oeSGTCAAAQhAAAIRCmhrEQCE5OsbJ2sqWrmcBi8IQAACEIBAzAXM9HKMVyH1kVwHZbQyWFc5JE9kAwEIQAACEQroerkeGK9QBOQuGk+zJURUoXAiEwhAAAIQiFQAdwGEyCszAHi0YoieyAoCEIAABCITmJB7OSPLPGMZy2JgcgoAj1bMWLejuRCAAASSKSBL1+MiwLC6Tm4AQDQVFibygQAEIACBSAWI6xEAhCisle+St5pZiADICgIQgAAEkiEgS2YjAAirq6z1taw7jgAgLFDkAwEIQAAC0QngFEBotsYYK0tVy0rVeEEAAhCAAARiLkDL5UkgeIUk4OSKSotTACFpIhsIQAACEIhQABcBhodrlfa1lWmA8LJEThCAAAQgAIGIBBgzAGHJspIZgOB55mFliHwgAAEIQAACUQnII75xCiAkXM/KDIBoToWUH7KBAAQgAAEIRCZAXIcAICRdX/GkPAvATYSUH7KBAAQgAAEIRCeAGYDQbD3DE7IQkEYAEBopMoIABCAAgagEcAogPFlyNKEt84nwskROEIAABCAAgYgE6nANQFiylt2EPAsYpwDCAkU+EIAABCAQoQAWAgoNVxtzQjMZzACERoqMIAABCEAAAvEXIFYTmpw6Gv+qooYQgAAEIAABCIQl4IiPaVZ8OKwMkQ8EIAABCEAgKoFp3AUQGq1WfEjuAqBDoeWIjCAAAQhAAAIQiL2AxFLjWhsaj31NUUEIQAACEIAA57EQUGjvAgpmABgzAKGBIiMIQAACEIBAAgRIZgDY4RRAAroKVYQABCAAAQiEJiAPAwpmABxOAYRGiowgAAEIQAAC8Rdg0nINAKuD8a8qaggBCEAAAlkXIIWVAMN6DxilD2qfvf1hZYh8IAABCEAAAhCIv8C0mj6gW9rXHbRyJWD8q4saQgACEIBApgWwDkAo3W8V23UDAyOatm3zydrRUHJFJhCAAAQgAIGIBPA0wHBgjVIjcj+lk4sA5UUGpwHCcUUuEIAABCAAgVgLsM8HggrOBABaOQQAse4uVA4CEIAABCAQjgB5embMnwkAWNO94WSLXCAAAQhAAAIQiLMAkZoZ80+eAnC0J86VRd0gAAEIQAACEAhNYGbMP3kKQCsEAKG5IiMIQAACEIBAnAX47qB2J2cA2CEAiHNfoW4QgAAEIACBsAT45Kz/TABA9/8RVt7IBwIQgAAEIACBuAroM6cAzDKDGYC49hPqBQEIQAACEAhVYPrMKYDVu3bJQkDueKj5IzMIQAACEIAABOIlYNWRpsHBw0GlTl4DIL+wrwbjVUvUBgIQgAAEIACBUAXMmbH+dACgPTUQaiHIDAIQgAAEIACBmAlw/6kKnQ4AmMzpjad24icEIAABCEAAAukRYEenx/rTAQApd3pjepqKlkAAAhCAAAQgcEqAaJ4AwPGZjacS4icEIAABCEAAAukRcIZOn+4/PQNgGKcA0tPFaAkEIAABCEBgroBW/unZ/tMBQMPQTlkLgCfmJscWCEAAAhCAAAQSL2Dtsab+/ntOteN0AECyEAA5tevUDvyEAAQgAAEIQCBFAkbtlLGeT7XodAAQbHCa/nBqB35CAAIQgAAEIJAiATZnjfFnBQDyx44UNRVNgQAEIAABCEDgfgHSfNYYf1YAYBkzAHinQAACEIAABFIpwGrhGYCcsWdFB6kEQKMgAAEIQAACGRQgZ84a48+aAVjT3z+EhwKV/64gzp3lWX5OOBICEIAABM4VIM+Zc7fh7yIF5A6AhuFdd81OfdaAFdwJwE7/ZnYC/F68gCHKF58aKSEAAQhAoBQBp1RdKemR9oyAXOT/m9l3AAR7zgoAZjZo9+szh+C3UgRY8epS0iMtBCAAAQiUIuDhM7YUrllpjdZzxvY5AQCzmZNoVh74dREB57hlkd3YBQEIQAACFQhoy2srODzThzLTnLF9TgDgjJ2TKNNqJTTeEF9QQnIkhQAEIACBUgSIH1BKcqQ9I6D13LF9TgDQUlf3e2tt4cxh+K1YAatcZ7FpkQ4CEIAABEoTkKfW4jO2NLKZ1MGY3lBXd9YdAMGOOQEA7dgxbczZtwqUUV42D3Hq4mw2HK2GAAQgUA0BfUk1SklbGVqb3wdj+7ntmhMAzCRg9fNzE+LvpQW01g9ZOhVSQAACEIBAqQKygD35SuEztlQ4SU9E847p8wcAxD8towwcotR5422b2wABAQhAAALhCoy0b+qWRQAaws01G7kxuXnH9PkDAM0/ywZL+K102j4+/FyRIwQgAIFsCxhy+Gwt9y1gqfgAQJ4XvNMqdbjcsjJ9HNFTMt1+NB4CEIBAFAJMT44i27TnKWP5ePNwX+987Zx3BiBYLUimWn4x3wHYtoSAb58y1Na2bIlU2A0BCEAAAkUKHOjpWcmknlhkciSbJaCJf37uCoCnds8bAMzsZP7JqUT4WYKAMStXU93TSjgCSSEAAQhAYBEBPVF4luxevkgS7FpAgHj+6f8g+cIBgOIfLpAfNi8lQO6vl0qC/RCAAAQgUJwAkXppcSmR6lwBuXtiwbF8wQDA1tf92PpO7rrAq1QBq+iKkYs2XlzqcUgPAQhAAAJnC4y3bXywbHnM2VvxVzECwQJA05PHfrxQ2gUDgLU7dhwznv7VQgdi+8ICcv0EaU3/Z+EU2AMBCEAAAsUI+Ib+rph0SDNXwHhm+/p9+ybm7jm5ZcEAYGY30fcXOhDbFxfwiV+IWYDFjbAXAhCAwGICwbd/ZvXcxdJg38ICYnfnwnsXvQZAvsayW/TgxTLO+j6jyDDxDVl3QPshAAEIlCvAmt4rM6qLf1EtN/MMHKepkgDAFX4o9xC6DDhF0kRZGvgpox0bnxNJ5sgUAhCAQIoFxjo2vVAuYHt8ipsYadOsYisrAP5osUIWjawah4cPGetwHcBigkvts/Sh/e3t65ZKhv0QgAAEIHBS4OCGTesLyt4Ij/IFZBZ6e3N//5HFclg0AAgOJKO/tVgG2LeEgFFrPcp9ViLZJa2XyAm7IQABCKReQD4rjcnx5zylm1Lf2AgbKA8AWnLsXnJQskVkEmEb0pL1FWOdm96dlsagHRCAAASiEhhv734fpv4r1yXnvrlULksGAC3LPDmH4I4vlRH2LyHA/DcjnRtfs0Qq7IYABCCQWYHR9o1/I0v+4nOy0neAtccamlYvuZrvkgEA7dgx7Zz6fqX1wfESRjF9YKxz48thAQEIQAACZwvIF6Rr5cH17zl7K/4qS0CbO2n79sJSxy4ZAAQZyNXsS55LWKog7JcTW8GdlUwfGenoxsIWeENAAAIQuF9gtKP7LbJm/QcAEo4Aa15y+j8oqagAgJ36WjjVQi6BgDyZ6V2j7d2f2nPBBXi4Bd4SEIBAZgXuW3fZitG27s8LwNszixBBw9npbxSTrYxFxb3GLureLc8I7iouNVIVI8C++532vBc2De76XTHpkQYCEIBAWgSCVf6con+Tr6GXpKVNsWiHz7ub797dXUxdipoBCDJiw/9VTIZIU7wAefrSgi38Uqa/3j7U1ras+COREgIQgEAyBYKZT7kr6v8rsPs5Bv8I+tCjO4rNtfgAQBWfabGFI51SnjF5cXjLSp3fNdLZ/aLgHli4QAACEEibAG/d6o12bPqrelPfx8xvNnK3f9raGIf2MBU/Vhd9CoC3bMmNjRwalSUaVsWhkWmtA1nVLyHA+/zluc8ET2RMazvRLghAIBsCo11dq+Xi5xfLoH+dVro9G62uTStl6f7DrY2rWou5AyCoYdEBQJBYorevyMkArG0fYET9kvs4Jdj6itwW86WmZd53g9sxoy4S+UMAAhAIQ4C7uurGnX6CYvWn8lA0eZof1YeRL/JYQoDULc0DfVctker07pICgLH2TX8mnfnZ00fjl+oISDDARn9PbpO5Uzrs59MTy3513v7fYnGm6uijFAhAYAmBAz09K3MT0/+LtXq4rHfyWFLu8XKT2YolDsPukAVI0Z81Dfb+W7HZlhYAdHSsKVg6cP9562LLQLqQBWSaRxbLcsOk9A55VuPvleFesrxLK39X8ACnkItDdhCAAARmBA5deGmjzZ/YrBxtZkWbZGOPUvaBTpmLgnVOwFQ7Ad/a6ZzhtU2Dg4eLrUXJHXawreu/g8fcFlsA0lVXwFk7wlrv9hTtlihhkFkNak2D1teDLXftvE86XK4zxAsCEIDAXAH5cKCRDZvOl4fxdDhSHcTyn/yU7RuttRuNNs1zj8KWWAg49d/Nw31PLaUuXimJg7SazK0yhiAAKBWuSum1MS1SVIv8g31EUKT841Vy8Y3SxqrRi7qnxpTaI+s5DMu6xHukM/fIXMLdEsHvkQsP79G+fw9mEKrUUSgGAjUQCL7Bu5z/AHlS/AMUuQ3y6XChfEhskEfHb2A2bQfkp2c4H3xLkMF/5iUfHzMvGfxP/oL/j6eAZrlGr7RXyTMAR7q7WyZ9vk+eNYx3Q2nWCUk98+Cne5jMvXJaYZ/T7l7NdK+cbriPldsvP/dPa/++dQMDI/LmcQlpFKoJgdQKyPhsDrS3t+RUfh0re56E++tI8ToZ2NdLo8+X/9Yrn89XnnqADOu4GC+F7wTrO7/O1a1bs3eHfMcr/lVyABBkPdrW9R15QMAfFV8MUqZNQK5DcFomFeQ0wwGj1QHL7oAhNSIfPgflG4MEB3RQLhgdNfK7M270iO+PtA8PT6bNAe2BQNgCwUI59XV1LdrqZqupWS7+bWbFrTKb1yrX/rRY0q3G8Vq5tW6tY7uWjWmSb2NFr+kSdn2RXywEvt082HdFqTUp+RRAUAAZ/SX5kEcAUKp2itLPfOCY4ANJtco3kB5N+vTFBcFph+BSg+CHnEcMQgW1WuflNtKNE7JhnJ0bUzkzJjMMY0rzuHxTkW08LnmMybzjuBxxmMkFFzMedlPmUMEePbR+374J+RsvCCRCIFjj3lsz2SDPZF+j2GuQgVt+coN8ejY65kbS1Ch/N8q/h0YZuput5SbjuSZZcrVRGrg8+Mck/2xOXlUnc/Ez/6RkhwTY8k9Gfgb/yOR/GuuGJeL9EHklWX25nDJOva9KOvbwBT1Nk2byXtwNUBIbElcgEExxsaeOyGfiYfkIlACBDssH6FFy6qh8EB6V6xmOBH9LEUflU/KYxCPyU/azOuprc5ysO06eOybXORxraGs7Rtu2+RVUB4emTCBYpe7w4OgqucJ9Bft6pdx2u8JzdoXMcK2SAHWVPBBNfsp/Sq2Un6vl5NcqeZ+tktveZvbLYz7XOBnk5ZzYGvLVauPpsr5cpYwVzamCQHD1fx3Xn9dw9++CL08lvcoKAIISRjo2flWmeZ9WUmlIDIGYCMgVzQVZaOm4ceq4XBA5oTw6bplPGOUmmPSEXDg5Idc+TLCmE/Jl64SkOSFBx4S850/It7lJmdmY1Iom5QN/kqw+4Tw1JcHFpHzsT9kCTXpKT/p1PF3n3LSs4DQlp0Cm24aHp+QfnHx/w2shAcGh4ba2utWel5c1suumtM7LSFpnnVsmwV+deC9zyqvTvqpj45bLNvmbl8m34mXy7XiZ9Fu9nP9eLgHhcpmlXE6OlztDK2SAXk7s6q3S9YZouZwTX6FyboVlU6+sXYFlaRfqEWyPuwARf7VpYPczyqln2QHAWGf38+Uf2BfKKRTHQCCrAsFMhnw7LMg1FNNyDcW0BBfTcqGlXFcp3xs1FeTCCt+wKcg3y4JzTk73Gp+c78t91gVJ68tAJ3GKsjLzayWUsHJuWE4TyzAXbFNyckVGOc1GLslwTvKT+EW+q8oIKddjzPwMtgX28ofsCyaT5Xd2MmEiKU/+Idd5yndeiYKCny6Yc5aVXUju/XVkjQRFwcS0FKnkNHSQvVwMLL8HNZrZFvxOnJOpb4/lUZfsrCeHGpmpyVmyOe2MJ/nlZK8nValj3+ScUXk5pZQXmxy+Oc/0Av4PAsULkHq+rP73peIPOJOy7ABg3/r19XW55fvlW9TKM9nhNwhAAAIQgAAEqiJg7dEJO7Vuw969J8opT6L58l7BRVly9elt5R2NoyAAAQhAAAIQqESAPHNbuYN/UG7ZAUBwsJxX+0zwEy8IQAACEIAABKorIHdPfbaSEss+BRAUKicQ9cELu4flrJ6sKIUXBCAAAQhAAALVEPAt3732rt3tMoiXvSBbZTMAUrAx/OlqNBZlQAACEIAABCBwUsDT6tOVDP5BLhUFAEEGJkefDC4/Dn7HCwIQgAAEIACBaAWCMdc4/clKS6k4AGjo6xuUe4K+X2lFcDwEIAABCEAAAksLeMx3NtzVO7R0ysVTVBwAnMye/3XxYrAXAhCAAEaGerAAABshSURBVAQgAIEwBJyiUMbcUAKAE1MTt8iURMnLEIYBgTwgAAEIQAACWREIxtoThYmSH/07n08oAUBwH6IsC4aLAecTxjYIQAACEIBASALBWFvJvf+zqxFKABBkKIuJfmR2xvgdAhCAAAQgAIFwBcIca0MLAFqHenvlloTvhdtU5AYBCEAAAhCAQCAQjLHBWBuWRmgBQFAheeLIh8OqGPKBAAQgAAEIQOCMQNhjbKgBQFPTSnk2gL33THXxGwQgAAEIQAACIQjcd3KMDSGn+7MINQCg7dsLijzMAoTXP8gJAhCAAAQgEAh8eGaMDdEi1AAgqFeebHAx4GSIdURWEIAABCAAgSwLTOa1C/3LdegBwKr+/oNyNcDns9xTaDsEIAABCEAgPAH+/MmxNbwcg5xCDwCCTEmZ9wc/8YIABCAAAQhAoDIBIu99leUw/9GRBABNg7t+p5z77vxFYisEIAABCEAAAkUJsP1O08DO3xeVtsREkQQAQR1I6xtKrAuSQwACEIAABCAwS4DIvHfWn6H+KusKRPOS5wPT6IVdvyFPXxpNCcgVAhCAAAQgkF4B9t3vWu7uvyyqFkY3AyBXAmpj/jmqiiNfCEAAAhCAQJoFtGfeHWX7IgsAgko3XnT+F51Sd0XZAOQNAQhAAAIQSJsAKzvceOH5X4qyXZEGALRtm0/EkZ2/iBIGeUMAAhCAAARqJsDmhmAMjbL8SAOAoOLTJ45/3Fk7EmUjkDcEIAABCEAgLQJs1cEThYlPRN2eyAOA9fv2TZA2kdzDGDUO8ocABCAAAQhUXcCo923Yu/dE1OVGHgAEDeA83eQrNxZ1Y5A/BCAAAQhAIMkC1tlRztEHq9GGqgQArb29Rw0RZgGq0aMoAwIQgAAEEiug5b7/YMysRgOqEgAEDZGLAW+0So1Xo1EoAwIQgAAEIJA0gWCmPJgxr1a9qxYANPf3HzFK4RkB1epZlAMBCEAAAokSMExV+/YfwFQtAAgKI+V/ALMAgQReEIAABCAAgTMCwbd/Mly1b/9ByVUNAJoGBw97iiJd2egMJ36DAAQgAAEIJEMgR/RPwUx5NWtb1QAgaNjx6eM3KmXvrWYjURYEIAABCEAgtgJk9x2fOlGVK/9nG1Q9AAjubSTlvXN2JfA7BCAAAQhAIKsCpPQ7qnHf/7m+VQ8Aggo0Nq78uGI1eG5l8DcEIAABCEAgSwJkVX/jhgdEvurffKY1CQBo+/YCEb1lvgphGwQgAAEIQCAzAobfGvWa/wtZ0kI7ot7OclPAaHv3diL1kKjLQv4QgAAEIACBuAmQ4181Du9+qAzEMiRW/1WTGYCgmUGDWdMbqt9klAgBCEAAAhCovYD1zBtqNfgHra9ZABAU3jrQ+z1WfHvwO14QgAAEIACBrAjI6rhfbe3fta2W7a1pABA0XKYB3mh9F+kzj2sJjLIhAAEIQAACswWstQXL5o2zt9Xi95oHAK1Dvb3a0x+rReNRJgQgAAEIQKDaAp42H2kd3NVX7XLPLa/mAUBQobyn3ipLBB86t3L4GwIQgAAEIJAmgWA5fK9Ovz0ObYpFALC6r29EE+O2wDi8I1AHCEAAAhCITECz+ofVu3aNRlZACRnLBYjxeMk9EGb0wq5fk6cvjUeNUAsIQAACEIBAeAJOqd+0DPZtkYFXJgJq/4rFDEDAEIAYQ6+uPQlqAAEIQAACEAhfwCj16rgM/kHrYhMABJVpHNr9ffnxxeB3vCAAAQhAAAJpEZBb3v+tabDvh3FqT6wCgACGPfU3ytpjcUJCXSAAAQhAAAJlC8iYxgX9prKPj+jA2AUALX199yhjcEFgRB2ObCEAAQhAoMoCxvuH1j29+6pc6pLFxeYiwNk1nbkgsL37F3hOwGwV/A4BCEAAAkkTIFbbG4f6Hh6nc/+nDGM3AxBULIBiopfJZZJy0SReEIAABCAAgeQJWMXWGveyOA7+gWYsA4CgYq2Dvb/0WN0c/I4XBCAAAQhAIGkCxqmbWvv7fxXXesc2AAjAbJ7eLHMA98QVD/WCAAQgAAEIzCdgfbXHrsj/w3z74rIt1gFAa2/vUSJ3TVywUA8IQAACEIBAMQKex9es3bEj1ne0xToACJCbhvpvZ0efLwYcaSAAAQhAAAK1FpAL2T/XNLj7v2pdj6XKj30AEDQgv4yulRUC9i/VGOyHAAQgAAEI1Fjgvtx07rU1rkNRxSciAJh5cAJrLBNcVJciEQQgAAEI1EqASb1yzd4dY7Uqv5RyExEABA1qHur9itwgeGspjUNaCEAAAhCAQNUESN3SMtD3H1Urr8KCEhMABO3Ma3uNPEPpQIVtxuEQgAAEIACBcAVkbMqTe1W4mUabW6ICgFX9/QedppdGS4LcIQABCEAAAqUJkHZ/HYxRpR1V29SJCgACqtah3q/Kj0/Ulg2lQwACEIAABE4KOHIfD+5YS5pH4gKAANjl6HVOuaGkYaO+EIAABCCQLgF2aoCX1b0uia1KZAAQLBBklH4RnhWQxLcc6gwBCEAgHQLBWv9k9IvivuDPQtqJDACCxjQN9v3QI/rHhRqG7RCAAAQgAIEoBQyrdzUP7PpxlGVEmXdiA4AApXHD+W+zzD+JEgh5QwACEIAABM4VcNb+sGlo99vP3Z6kvxMdANC2bX5OeS+QUwGHk4SOukIAAhCAQHIFZMwZN4ZfGNfH/BYrm+gAIGhk49DOuwzj1sBiOxzpIAABCECgMgFN6iVNg4N3V5ZL7Y9OfAAQEMoqgbcEt2HUnhM1gAAEIACBNAuw4w8nabW/xfoiFQFA0MDJqclrnbK/Xayx2AcBCEAAAhAoV8Ap9ZujqvD6co+P23FyCiM9rwMdF2801v5SGbU6Pa1CSyAAAQhAoNYCwbVmee22NPT3D9S6LmGVn5oZgABk7eDO3UrTS8LCQT4QgAAEIACBQEDO+784TYP/TJvS1rUnnxrIH0hbu9AeCEAAAhCokQDR9XLe/7YalR5ZsamaATil1NS4+o1YH+CUBn5CAAIQgEAFAj9o2nD+31VwfGwPTdU1ALOVR7q7H0C++qVsO2/2dvwOAQhAAAIQKEqA7D5rl21ZO7zjvqLSJyxRKmcAgj5o6eu7R5F+jm/tdML6BNWFAAQgAIEaC7BVU2z1s9M6+Ae8qQ0AgsYFazR72rw6+B0vCEAAAhCAQLECZPialuHdPys2fRLTpToACDqkeajvX5Sijyaxc1BnCEAAAhCovgApd3Pz4O5PVr/k6paY+gAg4GxqXPma4MEN1aVFaRCAAAQgkECB7zdeeMF1Cax3yVVO7UWA50oc7epqnXTqZ1rp9nP34W8IQAACEIAAOzWQz6vLV/f1jWRBIxMzAEFHrurvP6i1ulJZdSQLHYs2QgACEIBA8QKy0t8hSX1lVgb/QCYzAUDQ2Ob+/j/InQFXWSXXd+IFAQhAAAIQEAHrO18Gw+e2DPftyhJIpgKAoGObh3d9QzNl4vxOlt7IaCsEIACBcgW8HL26ZbDvO+Uen9TjMhcABB3VMtT3QcV0Y1I7DfWGAAQgAIFwBJxy720a2J3JO8UycxHguW8VltMfY23dt8hJkGefuw9/QwACEIBA+gUcqS/LGv/Pl4FQhoTsvTI5AxB0s3S4O6KmX4jbA7P3pkeLIQABCDDRnS3kXpTVwT94B2R2BuDU2//wBT1Nfn7qRzIhsPnUNvyEAAQgAIH0Cjindnhq+tGNw8PBlf+ZfWV2BuBUj6/Zu2NMc+7Jch3ovae24ScEIAABCKRUwKl7tLFPyfrgH/Ru5gOAAKFxaOddxN6T778PNNiEFwQgAAEIpExAPuPHyZgnNw8M7ElZ08pqDgKA+9mahnp/a0g/Va4FmShLEgdBAAIQgECMBdxx49yfNA3s/H2MK1nVqiEAmMUdPD1QOfNsPEJ4Fgp+hQAEIJBwgeAznZV+ZvNw/08T3pRQq48A4BzOYKEgT3t/LlNF7pxd+BMCEIAABBImEKz86hl9tSz08+2EVT3y6iIAmIe4eaj3y4bVK+bZhU0QgAAEIJAQAfkix0bpl8mjfW9NSJWrWk0EAAtwNw/1/QsTX7vAbmyGAAQgAIGYC3hKvbp5sPdfY17NmlUPAcAi9C0Du2+S3W9YJAl2QQACEIBALAXodU2DfR+KZdViUikEAEt0RPNg33tljcj/u0Qy7IYABCAAgZgIEPGb5Jv/+2NSndhWAwFAEV0jF4/8oyR7WxFJkQQCEIAABGoowMx/Lw/3eU8Nq5CYohEAFNlVMhPwdkn61iKTIxkEIAABCFRZQK7b+oeWod3/r8rFJra4zD8LoNSeG+no/jtBe1epxyE9BCAAAQhEJxBM++Obf2m+CABK85pJPdre/QZ5jNL1ZRyKQyAAAQhAIHQBuk7O+X8g9GxTniECgDI7eKRz47XEhDdcmX44DAIQgEClAsF9/p7iVzYN7v5IpXll8XgEABX0+lhn98t8Vh82eKhSBYo4FAIQgEDpAsEKf/LZ+1JZ5OeTpR+NIwIBBAAVvg9G2zddZZ3/OWNMrsKscDgEIAABCBQhwFZNKU+9oGWg7z+KSI4kCwggAFgAppTNo52bnqzYyVKTVF/KcUgLAQhAAAIlClh7jI15ptye/Z0Sj0TycwQQAJwDUu6fYx3dj/aVukOmpNaUmweOgwAEIACBhQV85cYM66e0DPX9fOFU2FOsAAKAYqWKSDfe3v0gR/ZrSpnzi0iOJBCAAAQgUKyAVXtVzj25ub9/R7GHIN3iAlgIaHGfkvY2DvX9RnP+EfIk4V0lHYjEEIAABCCwoIC1/HsZ/B+BwX9BorJ2YAagLLbFDzp8QU9TwSvcTlo9cvGU2AsBCEAAAosJEPM2RfaZTYODhxdLh32lC2AGoHSzJY9Ys3fH2Al/4o9JuduWTIwEEIAABCCwkMAXG+vzT8LgvxBPZdsxA1CZ36JHy1MEtVwX8H4m9ZpFE2InBCAAAQicLcD0nqah3r+VQUo+SvGKQgABQBSq5+Q50t79akf8fqNIbhLACwIQgAAEFhKw1haMNq9sHur7+EJpsD0cAQQA4TgumcvMWgE+f0kZtXrJxEgAAQhAIIMCsrTvuCZ6bstA73cz2PyqNxkBQBXJR7u6etjxHaRMWxWLRVEQgAAEYi9AVvVbTVe2DvX2xr6yKakgLgKsYkcGt7D4pB7u2P2oisWiKAhAAAKxFgiu9Dc293AM/tXtJgQA1fVW5w0MHGhpWvN4WTb4o1UuGsVBAAIQiJ8A042NFz3giuDuqfhVLt01wimAGvbvWOfGl/u+uwkPEqphJ6BoCECgVgKTcofUK+SBPp+uVQWyXi4CgBq/A8Y6Nz2Kmb8i1TivxlVB8RCAAASqIyDL+rJRz5YH+vyiOgWilPkEcApgPpUqbmsa6P0Re+qhlvknVSwWRUEAAhCoiQAT3enrwkMx+NeE/6xCMQNwFkft/uAtW3Jj40feI9cGvLZ2tUDJEIAABKIRkFv8WL5x/nPzYN+bZeCRP/GqtQACgFr3wDnlj7Zvep5y/ieUMavO2YU/IQABCCRSQEb7Qx67FzUN9d+eyAaktNIIAGLYsQfbN21i575iDD0whtVDlSAAAQgULUCstmtHz2u4q3eo6IOQsCoCuAagKsylFRLcC+sXjj/ckcNSmKXRITUEIBAjAXkg2s2Nxj0Kg3+MOmVWVTADMAsjjr/KKYGrLPHH5CECa+JYP9QJAhCAwLkC1tlRIu+v5MvMV8/dh7/jI4AAID59sWBNDl20qd16/Hl5JtblCybCDghAAAIxEAiu8leGX9jS13dPDKqDKiwigFMAi+DEZVcwfda0Yf1j2Kl/kotpXFzqhXpAAAIQOCVgfecrorc0D/T+EQb/Uyrx/okZgHj3z5zajbV3P8aR/QweKDSHBhsgAIFaCfi8W+7x+/OW4d0/q1UVUG7pApgBKN2spkc0DfX9gHPeZcrxJ2taERQOAQhAQATkCacfnvKPPxiDf/LeDpgBSF6fna7xSGf3M5WvPkZGtZ7eiF8gAAEIVEXA3ktkXtI00Pe1qhSHQkIXwAxA6KTVy1AeonGb71lZK4BurV6pKAkCEMi8gFNfyOVzl2LwT/Y7ATMAye6/07UPVhCUqbibMRtwmgS/QAACYQuQ3eecdw1u7wsbtjb5IQCojXskpR7p7m4p+Oomyfz5kRSATCEAgewKyHVHWhVe3zg8fCi7COlqOQKAdPXnTGuCawNI2ZsVm/UpbB6aBAEIVFFA7ju+Szv98ubhXd+oYrEoqgoCuAagCsjVLiK4NkDux704WIYT6wZUWx/lQSAdAvff13+9Pb6sB4N/Ovr03FZgBuBckZT9PdLe/TAm9TGJ9B6UsqahORCAQHQCP9OsXt441Peb6IpAzrUWQABQ6x6oQvm8das3dte+1ypyb1dKr6hCkSgCAhBIooBVR2RBn//bPNT3YRkcsOpoEvuwhDojACgBK+lJR7u6LnBWXa9J/2nS24L6QwAC4QnIqUL2WH3W59zfrh3ecV94OSOnOAsgAIhz70RUt4Ndm7dywd5kDMkaAnhBAAJZFiDHv5LR/9XN/f0/ybJDFtuOACCLvS5tnjktcPe9r7KK345HDWf0TYBmZ1rAWTtiPPPmxoG+j2O6P5tvBQQA2ez3060+2tXVOuX025zvXmY87Z3egV8gAIFUCvjWTnvG3Gz8unc23P278VQ2Eo0qSgABQFFM6U80ctHGi0nTexSpp6a/tWghBLIqQLcabf+2ob9/IKsCaPcZAQQAZyzwmwiMdHQ/gZW6AbcN4u0AgVQJ/Fw+7N/QNNj3w1S1Co2pSAABQEV86TxYAgA93r7pakv2HVrp9nS2Eq2CQBYEXJ+sCPoPTUO9t8iHvfzTxgsCZwSwEuAZC/x2v4B8UDj5wPhcS+OaTczq1bIZtwXh3QGBJAlYtVeG+5c2XXhBT/NQ75cx+Cep86pXV3lf4AWBxQX2rV9fn1+28rWyKsib5I6BhsVTYy8EIFArgeDKfm3Mu5q0+xD190/Vqh4oNxkCCACS0U+xqOVYR8caVt51smjIdQgEYtElqAQEZgRmbukz5gZ/ee6Da3fsOAYWCBQjgACgGCWkOUtgJhCg3LWW+XUSCDSetRN/QAACVRNgqw5qj66fPlZ383n7f3u8agWjoFQIIABIRTfWphGytPBqZrrWWXed0aa5NrVAqRDIogDvl3P81xcmln8YA38W+z+cNiMACMcx07nct+6yFbkVU3/tW/d6z9CFmcZA4yEQoQA7NaA1X3/YFT7VPjw8GWFRyDoDAggAMtDJ1Woib9mSGz109AUyLfkmrVVPtcpFORBIu4DcjfNr0urdTQN9X5EPbbkMBy8IVC6AAKByQ+RwjoDcbEzjHRtlRUF6vfz++HN2408IQKAIgeAJfZr4m/Kwnvc2D/V/s4hDkAQCJQkgACiJC4lLFRhv736QI3WdzAq8gIyqK/V4pIdABgVOyPn9z7Lj97fctXtnBtuPJldJAAFAlaCzXsz+9vZ1HuWukS81r5CZgXVZ90D7ITBHwKl7WKub83n9sdW7do3O2Y8NEAhZAAFAyKDIbnGB4DqBsUNHn82KriHmxy2eGnshkG6BYJpfbqX9Niv+SPOFD/gqbdvmp7vFaF2cBBAAxKk3MlaXk08g1K+wxH8hH4JrMtZ8NDfDAjMr9nnep6zyP7p2YKA/wxRoeg0FEADUEB9FnxSYWWp4+YqriOkvZctj4QKBNArIt30nge53SfEnGzXfiqV609jLyWoTAoBk9Vfqa3ugs7PLU96L2ee/UEZdkPoGo4HpF2A1qDR9irjw6abBwbvT32C0MCkCCACS0lMZq6fcPqjH2jZfwdr+uXxjeqb8uSJjBGhuggXk2/5h+bb/H07rT7f077pTPmjlLY0XBOIlgAAgXv2B2swjEJwiWLZsxTOcoqvl3OmTjDG5eZJhEwRqLTCpnPpv1vxvzZr/C1P8te4OlL+UAAKApYSwP1YCRzZvbvan7fPkHunnWU2PM0pWF8ALAjUSsNYWSJvvyII9XyZl/12m+A/XqCooFgIlCyAAKJkMB8RF4Eh3d0uhQDIzwM9lZ5+AmYG49Ezq6zFJrL7hlLrV8PTtjcPDh1LfYjQwlQIIAFLZrdlr1HhbW4Ol/NOI+OnKuicpY1ZlTwEtjkpAzumPG6e+Lhem/qddlvuvtTt2HIuqLOQLgWoJIAColjTKqZoA9/TkR08UHisXD16pmJ6mSHVUrXAUlCIBt0uW6bldK3dHw9DuH8mHpcQBeEEgPQIIANLTl2jJAgIzCw4Z/STn7BO1XDcgSxHXL5AUm7MsYNUReeLe92Rq/1uecV9v6O8fyDIH2p5+AQQA6e9jtHCWQDA7MDJlH2nYXcFsr7DKbJGrCPWsJPg1IwJWySOqWP3cEH2LiL7ZuOH8n2Ep3ox0Ppo5I4AAAG+ETAuMdXTIEsTm0fKtT04Z0OOs77YYT3uZRklp431rp2UG6BdG6zvZ6u/bFeZHOJef0s5Gs4oSQABQFBMSZUXgvnWXrcjVn3ikInq0rN1yuVX0MJkhaMhK+9PUTl+5Me3Uz7TWP3VEP5icOv7TDXv3nkhTG9EWCFQigACgEj0cm3oBWb6NRi/auFlWG7hcLii8XC4ofJjc+92DWw7j1fXBt/sc6d/LTM7PlKGfMuuftg7u6otXLVEbCMRLAAFAvPoDtUmAQHAdwaGpqR7nzEPktsOHWOceoh0/SG49XJmA6ie/itYeFev/kYDs16zdr42jXzc0rfoDbd9eSH7j0AIIVE8AAUD1rFFSigWCmYLDF21qc8b1KNKXKMc97Nwlct/4xXiOQZkdf3Kg/4NY/kFmXv5AmnaQM39oGNp5t3xwYW39MllxGAROCSAAOCWBnxCIQCAIDMa6uh7glNelretiUl1ysWGXrF4of9uOrC9YFDw0x3M8wIYGZHW9flbUr9n1+77ub93Tuy+CLkGWEIDA/QIIAPBWgEANBYIVDFkv2yBrzFwo1dggFx/K72oDszqffbeOSK+zRrUk7VbF4BY7qfOIU26/Vma/DO73yiNx98gX9+BxuHuY3MzP5v7+IzXkR9EQyLQAAoBMdz8anwQBmUXQ+zs7W/KcW+eIWxW7BmLdKIOp3J3ADXIdQqM8KbFBM62UGYZ6x67eMC2Xp9LV+5bqPUXLfOM8UtoY5eQWR23kQkYjsw8nb3e01peLGq2Sn1Z+snLWs9r3FU96hifI0YRlN6GNniCmE1KHY5poXB7IJGvg08x/MqCPM+lxo/TBHP3/+/2S586dt8DCBbgmbxSMhsBoCAzWEAAArpJuXvr/YLQAAAAASUVORK5CYII=;" vertex="1" parent="1">
          <mxGeometry x="70" y="560" width="40" height="40" as="geometry" />
        </mxCell>
        <mxCell id="MWtXkFUQYbGvttKdn1CM-29" value="Node 3" style="text;html=1;strokeColor=none;fillColor=none;align=center;verticalAlign=middle;whiteSpace=wrap;rounded=0;fontSize=15;" vertex="1" parent="1">
          <mxGeometry x="60" y="520" width="60" height="20" as="geometry" />
        </mxCell>
        <mxCell id="MWtXkFUQYbGvttKdn1CM-30" value="" style="shape=image;verticalLabelPosition=bottom;labelBackgroundColor=#ffffff;verticalAlign=top;aspect=fixed;imageAspect=0;image=https://cdn.iconscout.com/icon/free/png-256/prometheus-282488.png;" vertex="1" parent="1">
          <mxGeometry x="115" y="560" width="40" height="40" as="geometry" />
        </mxCell>
        <mxCell id="MWtXkFUQYbGvttKdn1CM-31" value="" style="endArrow=classic;html=1;rounded=0;entryX=1;entryY=0.5;entryDx=0;entryDy=0;" edge="1" parent="1" source="t5AtAjVldFoCVjbBlI82-7" target="MWtXkFUQYbGvttKdn1CM-22">
          <mxGeometry width="50" height="50" relative="1" as="geometry">
            <mxPoint x="410" y="140" as="sourcePoint" />
            <mxPoint x="360" y="200" as="targetPoint" />
          </mxGeometry>
        </mxCell>
        <mxCell id="MWtXkFUQYbGvttKdn1CM-32" value="Couchbase Metrics Target" style="endArrow=classic;html=1;rounded=0;entryX=1;entryY=0.25;entryDx=0;entryDy=0;exitX=0;exitY=0.75;exitDx=0;exitDy=0;" edge="1" parent="1" source="t5AtAjVldFoCVjbBlI82-7" target="MWtXkFUQYbGvttKdn1CM-26">
          <mxGeometry width="50" height="50" relative="1" as="geometry">
            <mxPoint x="420" y="150" as="sourcePoint" />
            <mxPoint x="165" y="320" as="targetPoint" />
          </mxGeometry>
        </mxCell>
        <mxCell id="MWtXkFUQYbGvttKdn1CM-33" value="" style="endArrow=classic;html=1;rounded=0;entryX=1;entryY=0.25;entryDx=0;entryDy=0;" edge="1" parent="1" source="t5AtAjVldFoCVjbBlI82-7" target="MWtXkFUQYbGvttKdn1CM-30">
          <mxGeometry width="50" height="50" relative="1" as="geometry">
            <mxPoint x="430" y="160" as="sourcePoint" />
            <mxPoint x="165" y="440" as="targetPoint" />
          </mxGeometry>
        </mxCell>
        <mxCell id="MWtXkFUQYbGvttKdn1CM-35" value="&lt;font style=&quot;font-size: 11px&quot;&gt;Alert Manager&lt;/font&gt;" style="text;html=1;strokeColor=none;fillColor=none;align=center;verticalAlign=middle;whiteSpace=wrap;rounded=0;" vertex="1" parent="1">
          <mxGeometry x="402" y="70" width="87" height="30" as="geometry" />
        </mxCell>
        <mxCell id="MWtXkFUQYbGvttKdn1CM-42" value="" style="rounded=0;whiteSpace=wrap;html=1;fontSize=11;fillColor=none;strokeColor=#B266FF;" vertex="1" parent="1">
          <mxGeometry x="-50" y="10" width="1010" height="860" as="geometry" />
        </mxCell>
        <mxCell id="MWtXkFUQYbGvttKdn1CM-43" value="" style="rounded=0;whiteSpace=wrap;html=1;fontSize=11;strokeColor=#B266FF;fillColor=#000000;fillOpacity=50;" vertex="1" parent="1">
          <mxGeometry x="340" y="370" width="230" height="450" as="geometry" />
        </mxCell>
      </root>
    </mxGraphModel>
  </diagram>
</mxfile>
